<svg width="25" height="25" viewBox="0 0 25 25" fill="none" xmlns="http://www.w3.org/2000/svg">
<g id="Group">
<path id="Vector" d="M0.786133 0.0977554C0.50293 0.21006 0.253906 0.434669 0.107422 0.708107L0 0.903419V12.5001V24.0968L0.107422 24.2921C0.229492 24.5216 0.46875 24.756 0.708008 24.8829C0.874023 24.9708 1.19629 24.9757 9.47266 24.9903C18.9209 25.0001 18.3057 25.0196 18.6865 24.7071C18.7842 24.6241 18.9209 24.4483 18.9893 24.3067L19.1162 24.0528V21.7286V19.3995L19.0039 19.297C18.8428 19.1456 18.5791 19.1554 18.4277 19.3165L18.3105 19.4435L18.3008 21.6212C18.291 22.8224 18.2764 23.8526 18.2617 23.9112C18.1982 24.1847 18.6768 24.17 9.52148 24.17H1.08887L0.947266 24.0284L0.805664 23.8868V12.505V1.12803L0.922852 0.99131L1.04004 0.854591L9.48242 0.839943C15.4346 0.83506 17.959 0.844826 18.0469 0.883888C18.1201 0.908302 18.1982 0.981544 18.2324 1.04014C18.2715 1.11826 18.291 2.28526 18.3008 5.18565L18.3105 9.21885L18.4277 9.3458C18.584 9.51182 18.8574 9.52158 19.0088 9.36045L19.1162 9.24815V5.09776V0.947365L18.9893 0.688576C18.8379 0.390724 18.5205 0.131935 18.2031 0.0538101C18.0615 0.0147476 15.3271 9.91821e-05 9.51172 9.91821e-05C1.25977 0.00498199 1.02051 0.00498199 0.786133 0.0977554Z" fill="#343434"/>
<path id="Vector_2" d="M3.99902 2.53955C3.75488 2.63721 3.73535 2.73486 3.73535 3.7749C3.73535 4.73682 3.73535 4.7417 3.85742 4.85889L3.97461 4.98096H9.56055H15.1465L15.2441 4.86865C15.3906 4.70752 15.4102 4.60498 15.3369 4.42432C15.293 4.31201 15.2197 4.24365 15.1123 4.20459C14.9951 4.16553 13.5059 4.15088 9.76074 4.15088H4.56543V3.73584V3.3208H9.85352H15.1465L15.2441 3.2085C15.3906 3.04736 15.4102 2.94482 15.3369 2.76416C15.293 2.65186 15.2197 2.5835 15.1123 2.54443C14.917 2.48096 4.16504 2.47119 3.99902 2.53955Z" fill="#343434"/>
<path id="Vector_3" d="M23.1935 5.13197C22.9347 5.25892 22.7443 5.44447 22.5783 5.74232C22.4465 5.97181 22.4269 5.98646 22.2707 5.96693C22.1828 5.95717 22.0607 5.97181 22.007 6.00111C21.9533 6.03041 21.6896 6.4308 21.4211 6.89466C20.7472 8.05189 20.8449 7.94935 20.5226 7.7931C20.2638 7.66615 20.2443 7.66615 20.0783 7.73451C19.9562 7.78334 19.8879 7.84681 19.8635 7.94447C19.7902 8.22279 19.8537 8.33998 20.176 8.54017L20.3859 8.67201L18.6232 11.7189L16.8605 14.7706L16.426 15.9376C16.1818 16.5773 15.8547 17.3536 15.6984 17.6613C15.4347 18.1593 15.4055 18.2423 15.4055 18.5109C15.4055 18.7013 15.4396 18.8869 15.508 19.0431L15.6105 19.2824L15.1808 19.8097C14.9465 20.0978 14.7414 20.3566 14.7219 20.3761C14.7023 20.4005 14.6144 20.2394 14.5265 20.0245C14.2824 19.4142 13.9455 19.1701 13.467 19.2628C13.2863 19.297 12.964 19.5753 12.8371 19.7951C12.798 19.8683 12.7687 19.6827 12.7053 18.9747C12.6174 17.9591 12.5734 17.8273 12.2414 17.6027C11.924 17.3878 11.4504 17.4611 11.1965 17.7638C11.0109 17.9835 9.95623 21.1622 10.0051 21.3527C10.0441 21.5236 10.3078 21.6896 10.4738 21.6554C10.5422 21.6408 10.6398 21.5773 10.6935 21.5187C10.7472 21.4552 11.0012 20.7667 11.2795 19.9074C11.548 19.0822 11.7775 18.4083 11.7922 18.4083C11.8117 18.4083 11.8508 18.7745 11.8849 19.2238C11.9191 19.6827 11.9777 20.1173 12.0168 20.215C12.2853 20.8546 13.0715 20.9425 13.467 20.3761C13.55 20.2589 13.633 20.1661 13.6476 20.1661C13.6672 20.1661 13.7404 20.3224 13.8185 20.5128C13.9846 20.9425 14.1262 21.1134 14.4045 21.216C14.6584 21.3136 14.9123 21.2843 15.1418 21.1281C15.2248 21.0744 15.5226 20.7374 15.801 20.3859L16.3039 19.7462L16.5822 19.7658C16.8019 19.7804 16.9142 19.7609 17.1242 19.6681C17.4465 19.5167 17.5783 19.38 17.9592 18.7843C18.1252 18.5255 18.5939 17.9103 18.9992 17.4171L19.7365 16.5285L21.509 13.4523C22.4806 11.7579 23.2863 10.3712 23.2912 10.3615C23.3254 10.3224 23.7062 10.5568 23.7746 10.6544C23.9357 10.879 23.882 11.006 22.9933 12.549C22.5197 13.3693 22.1242 14.1066 22.1096 14.1945C22.0851 14.3214 22.1096 14.38 22.2365 14.507C22.3683 14.6339 22.4172 14.6535 22.5441 14.629C22.6271 14.6144 22.7248 14.5753 22.759 14.546C22.8566 14.463 24.5851 11.4503 24.6388 11.2697C24.8 10.7081 24.5656 10.171 24.0138 9.81459L23.7111 9.61927L24.2433 8.69154C24.8146 7.71009 24.8732 7.52455 24.6877 7.35365C24.5949 7.26576 24.5949 7.26088 24.7609 6.95814C24.9709 6.57728 25.0148 6.26478 24.9123 5.90345C24.7512 5.36146 24.2922 5.02943 23.7111 5.02943C23.4914 5.03431 23.3254 5.06361 23.1935 5.13197ZM23.9992 5.95717C24.1555 6.11342 24.1701 6.26967 24.048 6.52357C23.9846 6.64564 23.9113 6.75795 23.8771 6.76771C23.8332 6.78724 23.301 6.51869 23.174 6.41615C23.1398 6.38685 23.4133 5.96205 23.5012 5.91322C23.6428 5.83021 23.8918 5.84974 23.9992 5.95717ZM23.091 7.32924C23.467 7.54896 23.7892 7.73451 23.799 7.74427C23.8137 7.75892 23.0568 9.1017 22.9933 9.17494C22.9836 9.18959 21.6408 8.43275 21.5627 8.36927C21.5431 8.35463 22.3537 6.93373 22.383 6.93373C22.3928 6.93373 22.7101 7.11439 23.091 7.32924ZM22.0803 9.63392C22.3293 9.77064 22.5344 9.90736 22.5344 9.93177C22.5344 9.96595 19.4484 15.337 19.2678 15.6202C19.2336 15.6691 19.0724 15.5958 18.5256 15.2785C18.1398 15.0587 17.8176 14.8732 17.8078 14.8634C17.798 14.8585 19.8586 11.2599 21.006 9.29213L21.1281 9.08705L21.3771 9.22865C21.5187 9.31166 21.8361 9.49232 22.0803 9.63392ZM18.2521 16.0744C18.4865 16.2111 18.6916 16.338 18.7062 16.3624C18.7209 16.3869 18.4963 16.6896 18.2082 17.0411L17.6808 17.671L17.4123 17.5197C17.2609 17.4318 17.0803 17.3292 17.007 17.2853C16.9289 17.2462 16.8703 17.1974 16.8703 17.1827C16.8703 17.1486 17.4074 15.7179 17.4416 15.6593C17.4513 15.6398 17.5441 15.6691 17.6418 15.7277C17.7443 15.7863 18.0129 15.9425 18.2521 16.0744ZM16.8996 18.1935C17.0705 18.2911 17.2121 18.379 17.2121 18.3888C17.2121 18.4718 16.9972 18.8038 16.9094 18.8673C16.6506 19.0529 16.2795 18.8673 16.2697 18.5548C16.2697 18.379 16.4504 18.0177 16.5383 18.0177C16.5627 18.0177 16.7287 18.0958 16.8996 18.1935Z" fill="#343434"/>
<path id="Vector_4" d="M5.11715 5.96694C4.97066 6.13295 4.95113 6.23549 5.02438 6.42104C5.07809 6.54799 5.14156 6.59682 5.28316 6.64076C5.415 6.67983 6.68941 6.68959 9.68258 6.67983L13.9013 6.66518L14.0185 6.52846C14.1699 6.3478 14.1699 6.13295 14.0136 5.98159L13.8964 5.85951H9.55562H5.21481L5.11715 5.96694Z" fill="#343434"/>
<path id="Vector_5" d="M6.91406 8.79443C6.74316 8.86279 6.66992 8.98486 6.66504 9.18994C6.66504 9.32666 6.69434 9.39014 6.79199 9.46826C6.92383 9.5708 6.94336 9.5708 11.6553 9.5708H16.3867L16.5039 9.44873C16.6699 9.2876 16.6699 9.04346 16.499 8.88232L16.3721 8.76514L11.7041 8.75537C8.76953 8.75049 6.9873 8.76514 6.91406 8.79443Z" fill="#343434"/>
<path id="Vector_6" d="M3.21289 11.2651C3.06641 11.2944 2.90527 11.5044 2.90527 11.6753C2.90527 11.7485 2.95898 11.8755 3.02246 11.9487L3.13965 12.0854H7.46094H11.7822L11.9092 11.9683C12.085 11.8022 12.085 11.5386 11.9092 11.3726L11.7822 11.2554L7.55371 11.2505C5.22461 11.2456 3.27148 11.2505 3.21289 11.2651Z" fill="#343434"/>
<path id="Vector_7" d="M13.2321 11.2651C12.9147 11.3481 12.8024 11.7437 13.0417 11.9683L13.1687 12.0854H14.78H16.3913L16.5085 11.9487C16.6599 11.7729 16.6599 11.5679 16.5085 11.3921L16.3913 11.2554L14.8581 11.2456C14.0183 11.2456 13.2858 11.2505 13.2321 11.2651Z" fill="#343434"/>
<path id="Vector_8" d="M3.12506 13.3892C2.87603 13.5308 2.82721 13.8433 3.0274 14.0386L3.14459 14.1606H5.3858H7.62701L7.75885 14.0337C7.92975 13.8579 7.92486 13.6577 7.7442 13.4722L7.6026 13.3306H5.41021C3.85748 13.3354 3.19342 13.3501 3.12506 13.3892Z" fill="#343434"/>
<path id="Vector_9" d="M8.96004 13.394C8.69637 13.5259 8.66219 13.8774 8.89657 14.063C9.01375 14.1558 9.10164 14.1606 10.6153 14.1606C12.1534 14.1606 12.2169 14.1558 12.3194 14.063C12.544 13.853 12.5001 13.5308 12.2315 13.394C12.0557 13.3062 9.13582 13.3062 8.96004 13.394Z" fill="#343434"/>
<path id="Vector_10" d="M4.46783 16.3335C3.13483 16.6167 2.09967 17.6177 1.75299 18.9458C1.62604 19.4341 1.6358 20.2397 1.77252 20.728C2.12408 21.9487 3.03229 22.8521 4.24811 23.2036C4.54596 23.2866 4.76569 23.311 5.17584 23.3159C5.8399 23.3159 6.11334 23.2524 6.75299 22.9399C7.1778 22.7397 7.32428 22.6372 7.63678 22.3247C8.27643 21.6899 8.64752 20.9087 8.70123 20.0737C8.72565 19.6636 8.72565 19.6489 8.59381 19.5171C8.30084 19.229 7.8858 19.4487 7.8858 19.8882C7.88092 20.4985 7.5733 21.2163 7.10455 21.6802C6.56256 22.2222 5.94733 22.481 5.20026 22.481C3.67194 22.4907 2.48541 21.3042 2.49518 19.7759C2.49518 19.0288 2.75397 18.4136 3.29596 17.8716C3.94537 17.2222 4.88776 16.9536 5.78619 17.1685C6.0694 17.2319 6.22076 17.3003 6.87018 17.6372C7.03131 17.7251 7.06061 17.7251 7.22174 17.6567C7.40729 17.5786 7.46588 17.4517 7.43658 17.2075C7.40729 16.9292 6.62115 16.4849 5.88873 16.3286C5.48834 16.2456 4.88287 16.2456 4.46783 16.3335Z" fill="#343434"/>
<path id="Vector_11" d="M6.71387 18.5885C6.6748 18.6032 6.28418 18.9596 5.84473 19.3747L5.04883 20.1315L4.5459 19.6383C4.13086 19.2282 4.01855 19.1403 3.89648 19.1403C3.68652 19.1403 3.49121 19.3454 3.49121 19.5651C3.49121 19.7116 3.55469 19.7995 4.00879 20.2633C4.29199 20.5563 4.59961 20.8298 4.69727 20.8737C4.89258 20.9665 5.20996 20.9811 5.41504 20.8981C5.60547 20.8298 7.09961 19.3551 7.18262 19.155C7.27539 18.9352 7.19238 18.7106 6.97754 18.6227C6.88965 18.5837 6.80664 18.5544 6.80176 18.5592C6.79199 18.5592 6.75293 18.5739 6.71387 18.5885Z" fill="#343434"/>
</g>
</svg>
