<svg width="200" height="171" viewBox="0 0 200 171" fill="none" xmlns="http://www.w3.org/2000/svg">
<g id="Group 1000002104">
<g id="Group 1000002102">
<g id="Clip path group">
<mask id="mask0_315_1040" style="mask-type:luminance" maskUnits="userSpaceOnUse" x="0" y="56" width="60" height="115">
<g id="2a935f110a">
<path id="Vector" d="M0 56.5225H59.1861V171H0V56.5225Z" fill="white"/>
</g>
</mask>
<g mask="url(#mask0_315_1040)">
<g id="Group">
<path id="Vector_2" d="M54.6464 114.888C48.1801 112.031 44.2413 105.788 44.2296 98.2469C44.2043 97.0139 44.3093 95.7506 44.5329 94.5002C44.7779 92.9069 45.2211 91.231 45.8258 89.5378C47.6688 84.3931 53.756 70.0856 59.0752 58.7629C57.2399 57.5473 55.1714 56.82 52.8073 56.6855C51.6602 56.5682 50.447 56.5856 49.16 56.7376C49.0861 56.7484 49.0025 56.7549 48.9364 56.7658C46.4557 57.9141 43.7416 58.535 40.9012 58.535C38.0608 58.535 35.3467 57.9141 32.866 56.7658C32.7882 56.7549 32.7163 56.7484 32.6366 56.7376C31.3554 56.5856 30.1422 56.5682 28.9951 56.6855C24.2844 56.9525 20.7422 59.5661 17.9231 63.7079C14.7911 68.3056 3.51689 93.6905 0.703685 101.505C0.384842 102.408 0.161264 103.246 0.0407255 104.036C0.0368374 104.06 0.0310047 104.084 0.0310047 104.106C-0.0467619 104.549 -0.0895334 104.985 -0.0739801 105.428C-0.105087 108.256 1.31804 110.258 4.07875 111.228C4.08458 111.228 4.09042 111.235 4.10014 111.235C4.65811 111.473 5.25691 111.612 5.86155 111.647C8.13816 111.788 9.83736 110.612 11.0505 108.437C11.869 106.976 21.0649 88.3852 23.1802 84.0045C23.7129 82.8931 25.2176 83.3121 25.2293 84.5624V84.6558C25.2293 84.8229 25.2332 84.9988 25.2332 85.1724C25.3071 102.599 25.552 152.017 25.9992 162.723V162.74C26.0109 163.52 26.0264 164.045 26.0303 164.26C26.1606 167.827 28.7463 170.635 32.1 170.926C32.1272 170.933 32.1525 170.933 32.1797 170.933C32.2516 170.939 32.3138 170.939 32.3877 170.946C33.1382 170.985 33.873 170.887 34.5807 170.642C34.639 170.625 34.6954 170.601 34.7479 170.579C34.8043 170.555 34.8685 170.538 34.9307 170.507C36.4666 169.904 37.7225 168.682 38.4516 167.058C38.4516 167.058 38.4516 167.052 38.4574 167.047C38.7024 166.5 38.8793 165.918 38.9881 165.282C39.3906 163.066 39.3595 160.804 39.3634 158.551C39.4003 148.149 39.4372 127.177 39.4528 121.22C39.4528 120.328 40.0983 119.614 40.9012 119.614C41.2978 119.614 41.6575 119.794 41.918 120.085C42.1785 120.376 42.3399 120.771 42.3438 121.22C42.3554 127.177 42.3963 148.149 42.4332 158.551C42.4429 160.804 42.4118 163.066 42.8084 165.282C42.9231 165.918 43.1059 166.5 43.345 167.047C43.345 167.047 43.3508 167.052 43.3508 167.058C44.0741 168.682 45.3358 169.904 46.8678 170.507C46.9339 170.538 46.9864 170.555 47.0486 170.579C47.107 170.601 47.1633 170.625 47.2217 170.642C47.9196 170.887 48.6584 170.985 49.4089 170.946C49.4769 170.939 49.5508 170.933 49.6188 170.933C49.6441 170.933 49.6655 170.933 49.6908 170.926C53.0464 170.635 55.636 167.827 55.7663 164.26C55.776 164.045 55.7877 163.52 55.7974 162.74V162.723C56.0734 156.189 56.2718 135.248 56.3962 115.947H56.2348L54.6464 114.888Z" fill="#100F0D"/>
</g>
</g>
</g>
<path id="Vector_3" d="M40.9015 52.4264C49.5452 52.4264 56.5481 44.6051 56.5481 34.9539C56.5481 25.3005 49.5452 17.4749 40.9015 17.4749C32.2577 17.4749 25.249 25.3005 25.249 34.9539C25.249 44.6051 32.2577 52.4264 40.9015 52.4264Z" fill="#100F0D"/>
<g id="Clip path group_2">
<mask id="mask1_315_1040" style="mask-type:luminance" maskUnits="userSpaceOnUse" x="140" y="56" width="61" height="115">
<g id="b9db93718b">
<path id="Vector_4" d="M140.81 56.5225H200V171H140.81V56.5225Z" fill="white"/>
</g>
</mask>
<g mask="url(#mask1_315_1040)">
<g id="Group_2">
<path id="Vector_5" d="M199.827 103.759C199.823 103.745 199.823 103.741 199.823 103.728C199.693 103.025 199.488 102.285 199.212 101.505C196.405 93.6905 185.123 68.3056 181.997 63.7079C179.178 59.5661 175.636 56.9525 170.925 56.6855C169.78 56.5682 168.565 56.5856 167.278 56.7376C167.206 56.7484 167.128 56.7549 167.054 56.7658C164.573 57.9141 161.859 58.535 159.021 58.535C156.18 58.535 153.466 57.9141 150.985 56.7658C150.908 56.7549 150.834 56.7484 150.756 56.7376C149.475 56.5856 148.26 56.5682 147.115 56.6855C144.749 56.82 142.674 57.5473 140.847 58.7629C146.166 70.0856 152.247 84.3996 154.086 89.5313C154.403 90.404 154.67 91.2766 154.893 92.1319L154.94 92.2491L154.967 92.3598L155.018 92.4749L155.259 93.7621C155.471 94.8084 155.607 95.8265 155.665 96.8403L155.7 97.0139L155.696 97.765C155.696 97.9626 155.696 98.1666 155.69 98.3642V98.6963L155.685 98.8005C155.482 106.19 151.438 112.281 144.988 115.005L143.52 115.878C143.644 135.189 143.843 156.183 144.119 162.723V162.74C144.128 163.52 144.144 164.045 144.15 164.26C144.28 167.827 146.864 170.635 150.225 170.926C150.245 170.933 150.272 170.933 150.297 170.933C150.371 170.939 150.439 170.939 150.505 170.946C151.256 170.985 151.996 170.887 152.7 170.642C152.757 170.625 152.815 170.601 152.871 170.579C152.93 170.555 152.986 170.538 153.048 170.507C154.586 169.904 155.842 168.682 156.571 167.058C156.571 167.058 156.571 167.052 156.577 167.047C156.822 166.5 156.999 165.918 157.113 165.282C157.508 163.066 157.477 160.804 157.483 158.551C157.52 148.149 157.561 127.177 157.576 121.22C157.576 120.328 158.224 119.614 159.021 119.614C159.415 119.614 159.781 119.794 160.036 120.085C160.296 120.376 160.463 120.771 160.469 121.22C160.473 127.177 160.516 148.149 160.551 158.551C160.562 160.804 160.531 163.066 160.932 165.282C161.041 165.918 161.223 166.5 161.463 167.047C161.463 167.047 161.468 167.052 161.468 167.058C162.194 168.682 163.453 169.904 164.985 170.507C165.053 170.538 165.11 170.555 165.174 170.579C165.225 170.601 165.283 170.625 165.339 170.642C166.039 170.887 166.778 170.985 167.528 170.946C167.602 170.939 167.668 170.933 167.736 170.933C167.764 170.933 167.789 170.933 167.814 170.926C171.17 170.635 173.756 167.827 173.886 164.26C173.896 164.045 173.905 163.52 173.917 162.74V162.723C174.37 151.913 174.619 101.612 174.693 84.6558V84.5624C174.702 83.3056 176.203 82.8866 176.74 83.998C178.84 88.3504 188.035 106.958 188.866 108.437C190.085 110.612 191.782 111.788 194.055 111.647C194.659 111.612 195.258 111.473 195.82 111.235C195.82 111.235 195.831 111.228 195.835 111.228C198.555 110.269 199.978 108.319 199.994 105.556C199.988 105.539 199.994 105.521 199.994 105.508C200.015 104.926 199.953 104.345 199.827 103.759Z" fill="#100F0D"/>
</g>
</g>
</g>
<path id="Vector_6" d="M159.021 52.4264C167.664 52.4264 174.671 44.6051 174.671 34.9539C174.671 25.3005 167.664 17.4749 159.021 17.4749C150.375 17.4749 143.374 25.3005 143.374 34.9539C143.374 44.6051 150.375 52.4264 159.021 52.4264Z" fill="#100F0D"/>
<path id="Vector_7" d="M112.876 68.108L107.265 72.6579C106.729 73.0986 106.499 73.8801 106.707 74.5834L108.85 81.9488C109.309 83.5378 107.683 84.8533 106.478 83.8699L100.867 79.3244C100.325 78.8772 99.5955 78.8772 99.0531 79.3244L93.4423 83.8699C92.2388 84.8533 90.6135 83.5378 91.0723 81.9488L93.2128 74.5834C93.4209 73.8801 93.1973 73.0986 92.6607 72.6579L87.044 68.108C85.8347 67.129 86.4608 64.9951 87.95 64.9951H94.8907C95.5575 64.9951 96.1466 64.5176 96.3507 63.8077L98.4971 56.4401C98.9559 54.8533 100.966 54.8533 101.425 56.4401L103.571 63.8077C103.775 64.5176 104.363 64.9951 105.035 64.9951H111.97C113.461 64.9951 114.085 67.129 112.876 68.108ZM145.509 98.26V98.2057C145.53 97.5501 145.458 96.9097 145.328 96.2585C145.322 96.252 145.322 96.2346 145.316 96.2281C145.171 95.4488 144.947 94.6217 144.634 93.7621C141.518 85.0617 128.978 56.8483 125.502 51.7404C122.369 47.1319 118.431 44.2274 113.195 43.93C111.918 43.8019 110.568 43.8215 109.141 43.9886C109.058 44.0017 108.974 44.0125 108.891 44.019C106.136 45.2933 103.118 45.9966 99.961 45.9966C96.7979 45.9966 93.7864 45.2933 91.0295 44.019C90.9421 44.0125 90.8624 44.0017 90.7749 43.9886C89.3478 43.8215 88.0025 43.8019 86.7271 43.93C81.4954 44.2274 77.5507 47.1319 74.4147 51.7404C70.9386 56.8483 58.4026 85.0617 55.2764 93.7621C54.9226 94.7563 54.6776 95.6941 54.5415 96.5668C54.5376 96.595 54.5376 96.6232 54.5318 96.6471C54.4385 97.1355 54.3899 97.6196 54.4112 98.108C54.3743 101.256 55.9588 103.485 59.0325 104.562C59.0384 104.566 59.0442 104.573 59.0481 104.573C59.6799 104.829 60.3351 104.985 61.0136 105.026C63.541 105.183 65.4308 103.88 66.782 101.466C67.6938 99.8359 77.9103 79.1681 80.2608 74.299C80.8538 73.0639 82.5258 73.5241 82.5374 74.9199V75.0262C82.5374 75.2108 82.5433 75.404 82.5433 75.6015C82.6249 94.9712 82.8971 149.898 83.3909 161.798V161.822C83.4065 162.695 83.4182 163.27 83.4279 163.515C83.5795 167.484 86.451 170.601 90.18 170.922C90.2111 170.926 90.2383 170.926 90.2635 170.926C90.3413 170.939 90.421 170.939 90.493 170.946C91.3328 170.991 92.1494 170.881 92.9309 170.607C92.999 170.583 93.0612 170.562 93.1254 170.538C93.1817 170.514 93.2556 170.49 93.3217 170.462C95.0306 169.787 96.4324 168.432 97.2411 166.622C97.2411 166.622 97.2411 166.622 97.2411 166.615C97.5114 166.005 97.7155 165.354 97.8341 164.655C98.2716 162.187 98.2463 159.675 98.2521 157.172C98.2871 145.6 98.3357 122.284 98.3513 115.667C98.3552 114.68 99.0745 113.883 99.961 113.883C100.404 113.883 100.799 114.08 101.091 114.406C101.382 114.725 101.561 115.175 101.565 115.667C101.581 122.284 101.623 145.6 101.664 157.172C101.674 159.675 101.643 162.187 102.086 164.655C102.212 165.354 102.409 166.005 102.681 166.615L102.685 166.622C103.482 168.432 104.889 169.787 106.593 170.462C106.666 170.49 106.729 170.514 106.797 170.538C106.859 170.562 106.921 170.583 106.983 170.607C107.765 170.881 108.583 170.991 109.423 170.946C109.495 170.939 109.579 170.933 109.653 170.926C109.678 170.926 109.703 170.926 109.734 170.922C113.461 170.601 116.337 167.484 116.488 163.515C116.498 163.27 116.508 162.695 116.523 161.822V161.798C117.029 149.787 117.301 93.8728 117.379 75.0262V74.9199C117.394 73.5241 119.062 73.0595 119.655 74.2925C121.99 79.1398 132.213 99.812 133.134 101.466C134.489 103.88 136.381 105.183 138.908 105.026C139.579 104.985 140.236 104.829 140.862 104.573C140.872 104.573 140.878 104.566 140.888 104.562C143.911 103.496 145.493 101.325 145.509 98.26Z" fill="#100F0D"/>
<g id="Clip path group_3">
<mask id="mask2_315_1040" style="mask-type:luminance" maskUnits="userSpaceOnUse" x="82" y="0" width="36" height="40">
<g id="0fe5003a6a">
<path id="Vector_8" d="M82.0806 0H117.418V39.2952H82.0806V0Z" fill="white"/>
</g>
</mask>
<g mask="url(#mask2_315_1040)">
<g id="Group_3">
<path id="Vector_9" d="M99.9613 39.1997C109.569 39.1997 117.358 30.5015 117.358 19.7714C117.358 9.04345 109.569 0.343018 99.9613 0.343018C90.3532 0.343018 82.563 9.04345 82.563 19.7714C82.563 30.5015 90.3532 39.1997 99.9613 39.1997Z" fill="#100F0D"/>
</g>
</g>
</g>
</g>
</g>
</svg>
