<svg xmlns="http://www.w3.org/2000/svg" width="119" height="119" viewBox="0 0 119 119" fill="none">
  <path d="M41.2953 63.4191L39.9774 63.6989C39.5764 63.7844 39.329 64.138 39.4273 64.4877C39.5093 64.7804 39.809 64.985 40.1563 64.985C40.216 64.985 40.2756 64.9785 40.3352 64.9656L41.6515 64.6858C41.8468 64.6444 42.0108 64.5395 42.1152 64.3905C42.2195 64.2416 42.2508 64.0667 42.2031 63.8971C42.1047 63.5487 41.6963 63.3337 41.2953 63.4191Z" fill="#FBFBFB"/>
  <mask id="mask0_1806_881" style="mask-type:luminance" maskUnits="userSpaceOnUse" x="24" y="38" width="25" height="47">
    <path d="M24.5835 38.3219H48.0331V84.4857H24.5835V38.3219Z" fill="white"/>
  </mask>
  <g mask="url(#mask0_1806_881)">
    <path d="M37.8077 76.7643V83.0204H30.0274V76.7643C30.0286 74.3548 31.7741 72.3953 33.9175 72.3953C36.0596 72.3953 37.8052 74.3548 37.8077 76.7643ZM29.2342 74.3079L29.075 74.1375C28.9399 73.9927 28.8136 73.8493 28.6974 73.7101C26.5287 71.1387 25.6206 67.7991 26.141 64.3076C26.3898 62.6378 26.9708 60.9949 27.8208 59.5537C28.6671 58.1196 29.771 56.9042 31.0113 56.0395L31.1313 55.9571L31.2235 56.075C31.4925 56.42 31.807 56.7125 32.1581 56.944L32.3463 57.0675L32.1909 57.2379C31.4104 58.0955 30.746 59.1377 30.2673 60.2523C29.723 61.5189 29.4021 62.9104 29.3377 64.2763C29.2796 65.5244 29.4274 66.7441 29.7785 67.8985C30.1524 69.1324 30.7511 70.2669 31.5569 71.2722C31.5632 71.2807 31.5695 71.2878 31.5758 71.2963L31.74 71.4979L31.5481 71.6087C31.0782 71.8827 30.6475 72.2377 30.2686 72.6637C29.8922 73.0854 29.579 73.5653 29.3352 74.0892L29.2342 74.3079ZM34.0565 50.4763C35.4332 50.4763 36.5535 51.7358 36.5535 53.2835C36.5535 54.8326 35.4332 56.0906 34.0565 56.0906C32.6797 56.0906 31.5594 54.8326 31.5594 53.2835C31.5594 51.7358 32.6797 50.4763 34.0565 50.4763ZM34.3962 47.6663L35.3852 47.3951L35.4041 47.3895C35.4117 47.388 35.4205 47.3866 35.4281 47.3838L38.5301 46.5304C38.5466 46.5262 38.5617 46.5219 38.5781 46.5162L39.6353 46.2252C39.9978 46.1243 40.3653 46.3757 40.4537 46.7832L42.5125 56.2369C42.5567 56.4342 42.5277 56.6387 42.4342 56.8119C42.3407 56.9866 42.1917 57.1087 42.0161 57.157L36.777 58.5996C36.724 58.6138 36.6697 58.6209 36.6154 58.6209C36.4929 58.6209 36.3716 58.5825 36.2655 58.5101C36.1102 58.405 36.0015 58.2375 35.9586 58.0415L35.7477 57.0732L35.8588 57.005C37.0726 56.2582 37.8266 54.8326 37.8266 53.2835C37.8266 50.9889 36.1657 49.0891 34.1259 49.0465L33.9984 49.0436L33.8998 48.5879C33.8102 48.1789 34.0337 47.7672 34.3962 47.6663ZM36.9968 40.1096L38.0994 45.1744L35.2538 45.9582L34.1499 40.8934L36.9968 40.1096ZM38.6602 61.4848L38.2636 59.6631L41.1093 58.8793L41.5059 60.701L38.6602 61.4848ZM47.2274 70.9655H33.9175C33.6851 70.9655 33.4489 70.9825 33.2178 71.018L33.1407 71.0294L33.0839 70.9711C32.8768 70.7596 32.681 70.5381 32.5016 70.3152C31.159 68.6397 30.5035 66.578 30.6084 64.353C30.7195 61.9803 31.7337 59.6077 33.3201 58.0061C33.4742 57.8499 33.6371 57.6994 33.8051 57.5559L33.8518 57.5148L33.9112 57.5176C33.9655 57.5204 34.0122 57.5219 34.0565 57.5219C34.1638 57.5219 34.2762 57.5162 34.3874 57.5048L34.5288 57.4906L34.7221 58.3809C34.9368 59.3649 35.7148 60.0507 36.6166 60.0507C36.7038 60.0507 36.7922 60.045 36.8806 60.0308L37.0284 60.0081L37.5765 62.5199C37.646 62.8408 37.8999 63.0651 38.1929 63.0651C38.2434 63.0651 38.2952 63.0581 38.3445 63.0439L42.4266 61.9207C42.5921 61.8753 42.731 61.7603 42.8194 61.597C42.9078 61.4337 42.9331 61.242 42.8927 61.056L42.3458 58.5442L42.4898 58.4902C42.9255 58.3227 43.2817 57.999 43.5217 57.5545C43.792 57.0533 43.8728 56.4655 43.749 55.8961L41.6903 46.4424C41.449 45.3406 40.4815 44.6192 39.485 44.801L39.3334 44.8294L38.2005 39.6255C38.1285 39.2932 37.9453 39.0121 37.6852 38.8346C37.4237 38.6571 37.1181 38.6046 36.8225 38.6855L33.7192 39.5403C33.4237 39.6212 33.1736 39.8271 33.0157 40.1196C32.8578 40.4121 32.8111 40.7571 32.8831 41.0894L34.0173 46.2947L33.8784 46.3529C32.95 46.7392 32.4284 47.8453 32.6633 48.9272L32.7467 49.3063L32.6153 49.3674C31.2007 50.0291 30.2863 51.5654 30.2863 53.2835C30.2863 53.7236 30.3469 54.1567 30.4656 54.5727L30.5048 54.7119L30.3936 54.7886C29.0763 55.6945 27.8903 56.9496 26.967 58.4178C25.9048 60.1061 25.1861 62.0613 24.8868 64.0719C24.6064 65.9475 24.6923 67.7948 25.1407 69.5626C25.6231 71.4681 26.5085 73.1933 27.7728 74.6941C28.076 75.0534 28.4056 75.4055 28.7542 75.7392L28.8249 75.8059L28.811 75.9081C28.7744 76.1893 28.7555 76.4775 28.7555 76.7643V83.0204H26.7296C26.3797 83.0204 26.0942 83.3413 26.0942 83.736C26.0942 84.1293 26.3797 84.4502 26.7296 84.4502H44.6205C44.9716 84.4502 45.2571 84.1293 45.2571 83.736C45.2571 83.3413 44.9716 83.0204 44.6205 83.0204H39.0796V76.7629C39.0783 75.2394 38.5554 73.801 37.6081 72.7105L37.3328 72.3953H47.2274C47.5786 72.3953 47.864 72.0744 47.864 71.6797C47.864 71.2864 47.5786 70.9655 47.2274 70.9655Z" fill="#FBFBFB"/>
  </g>
  <path d="M34.1202 75.285C33.5372 75.285 33.063 75.8178 33.063 76.4729C33.063 77.1279 33.5372 77.662 34.1202 77.662C34.7031 77.662 35.1773 77.1279 35.1773 76.4729C35.1773 75.8178 34.7031 75.285 34.1202 75.285Z" fill="#FBFBFB"/>
  <path d="M61.8849 61.9946C61.645 62.0047 61.4427 61.7874 61.434 61.5125C61.4252 61.2348 61.6126 61.0016 61.8524 60.9916C62.0922 60.9815 62.2945 61.1988 62.3033 61.4751C62.312 61.7514 62.1247 61.9845 61.8849 61.9946ZM69.851 56.7709C69.9297 56.6716 70.0383 56.6155 70.1545 56.6111C70.2706 56.6054 70.3805 56.6529 70.4667 56.745C70.5517 56.8356 70.6004 56.9594 70.6054 57.0932C70.6091 57.227 70.5679 57.3551 70.4892 57.453C70.4105 57.5508 70.3019 57.6084 70.1857 57.6127C70.0695 57.6185 69.9584 57.571 69.8734 57.4789C69.7885 57.3882 69.7398 57.2645 69.7348 57.1306C69.7311 56.9968 69.7723 56.8687 69.851 56.7709ZM63.5235 61.4233C63.4986 60.639 63.0539 59.954 62.4219 59.695L62.3133 56.3205C63.1926 56.201 64.0356 55.906 64.8262 55.4426C65.4283 55.0886 65.9841 54.644 66.4799 54.1216L68.6269 56.4197C68.5445 56.6601 68.507 56.9205 68.5158 57.1824C68.532 57.6919 68.7194 58.1624 69.0429 58.5092C69.3676 58.856 69.7885 59.0374 70.2307 59.0187C70.6728 58.9999 71.0825 58.7841 71.3835 58.4099C71.6845 58.0372 71.8406 57.5508 71.8244 57.0414C71.8081 56.532 71.6208 56.0614 71.2973 55.7146C70.9726 55.3678 70.5504 55.1865 70.1095 55.2052C69.8822 55.2153 69.6599 55.2786 69.4575 55.3894L67.3093 53.0913C67.4142 52.9358 67.5166 52.7775 67.6128 52.6149C67.6864 52.4897 67.7227 52.3444 67.7177 52.1933C67.7114 51.9702 67.6115 51.763 67.4529 51.6378C67.1744 51.4191 66.7947 51.5026 66.6048 51.822C66.5086 51.9846 66.405 52.1444 66.2963 52.2983C65.1572 53.9187 63.4673 54.8915 61.66 54.9692C61.2853 54.985 60.9081 54.962 60.5397 54.9016C60.3786 54.8757 60.2187 54.9232 60.0875 55.0354C59.9576 55.1491 59.8727 55.3131 59.8502 55.4988C59.8277 55.6844 59.869 55.87 59.9664 56.0197C60.0651 56.1708 60.2074 56.2672 60.3686 56.2946C60.6071 56.3334 60.8507 56.3593 61.0942 56.3708L61.2016 59.7468C60.5884 60.0591 60.1887 60.78 60.2137 61.5643C60.2474 62.6148 61.0168 63.4379 61.9298 63.3991C62.8416 63.3602 63.5573 62.4738 63.5235 61.4233Z" fill="#FBFBFB"/>
  <path d="M64.381 55.5463C64.2511 55.6287 64.1532 55.7744 64.1048 55.9554C64.0563 56.1364 64.064 56.3307 64.1257 56.5043L64.4591 57.4433C64.5207 57.617 64.6285 57.7479 64.7639 57.8127C64.8992 57.876 65.0456 57.8672 65.1754 57.7847C65.3691 57.6611 65.4902 57.3947 65.4825 57.1077C65.4792 57.0106 65.4616 56.9149 65.4296 56.8266L65.0973 55.8877C64.9697 55.5301 64.6484 55.377 64.381 55.5463Z" fill="#FBFBFB"/>
  <path d="M56.5885 39.301C56.7308 39.5887 57.0891 39.7118 57.3872 39.5757C57.6043 39.4762 57.7381 39.2619 57.7295 39.0311C57.727 38.9529 57.7074 38.876 57.6718 38.8049L57.462 38.3764C57.3933 38.2367 57.2719 38.1325 57.121 38.0804C56.9701 38.0283 56.8081 38.0366 56.6634 38.1029C56.5186 38.1692 56.4094 38.2852 56.3554 38.4308C56.3015 38.5765 56.31 38.7339 56.3788 38.8736L56.5885 39.301Z" fill="#FBFBFB"/>
  <path d="M51.5625 53.8314L53.8552 52.7158C54.0771 52.6087 54.2145 52.375 54.2056 52.1232C54.2031 52.0367 54.183 51.9541 54.1464 51.8753C54.0014 51.5616 53.6334 51.4273 53.3259 51.577L51.0331 52.6926C50.7268 52.8411 50.5958 53.2181 50.742 53.5331C50.8869 53.8469 51.2562 53.9812 51.5625 53.8314Z" fill="#FBFBFB"/>
  <path d="M51.9793 59.4372C51.8998 59.5365 51.7913 59.5934 51.6739 59.5978C51.5553 59.6036 51.4442 59.5554 51.3584 59.4635C51.2725 59.3701 51.2221 59.2446 51.217 59.1089C51.2132 58.9732 51.2549 58.8433 51.3344 58.7441C51.4997 58.5384 51.7786 58.5267 51.9566 58.7178C52.0424 58.8098 52.0929 58.9353 52.0967 59.071C52.1017 59.2067 52.0601 59.3366 51.9793 59.4372ZM48.8481 48.6346C48.6057 48.6448 48.4013 48.4244 48.3924 48.1443C48.3823 47.8641 48.5729 47.6277 48.8152 47.6175C49.0576 47.6073 49.262 47.8261 49.2709 48.1078C49.2797 48.3879 49.0904 48.6243 48.8481 48.6346ZM52.883 60.4062C53.1871 60.0282 53.3462 59.535 53.3298 59.0184C53.3209 58.7543 53.2654 58.4946 53.1682 58.2567L56.201 54.4817C56.3878 54.6524 56.5809 54.8129 56.7791 54.9603C56.9179 55.0639 57.082 55.0989 57.2435 55.0581C57.4038 55.0187 57.5427 54.9078 57.631 54.7487C57.7004 54.6247 57.7345 54.4817 57.7294 54.3358C57.7231 54.1023 57.6171 53.8892 57.448 53.7623C55.7126 52.465 54.6297 50.2674 54.554 47.8816C54.5426 47.508 54.554 47.1315 54.5919 46.7638C54.5944 46.7288 54.5957 46.6923 54.5944 46.6558C54.5843 46.3071 54.3495 46.0138 54.0492 45.9744C53.7109 45.9291 53.4055 46.2108 53.3664 46.6004C53.3462 46.8047 53.3323 47.0119 53.3235 47.2206L50.3626 47.3475C50.09 46.6296 49.4576 46.1626 48.7698 46.1933C47.8472 46.2312 47.1253 47.1315 47.1594 48.1968C47.1934 49.2635 47.9709 50.0982 48.8935 50.0588C49.5813 50.0296 50.1808 49.5101 50.408 48.7717L53.3689 48.6462C53.4194 49.1292 53.5027 49.6079 53.62 50.0719C53.7904 50.7431 54.0302 51.3925 54.3357 51.9981C54.6057 52.538 54.9301 53.0458 55.2974 53.5113L52.2646 57.2878C51.6322 57.0032 50.9002 57.19 50.4307 57.7737C50.1266 58.1517 49.9688 58.6449 49.9852 59.1614C50.0016 59.678 50.1909 60.1566 50.5178 60.5069C50.846 60.8585 51.2725 61.0424 51.7193 61.022C52.1661 61.003 52.5801 60.7841 52.883 60.4062Z" fill="#FBFBFB"/>
  <path d="M52.7326 39.3718C52.8118 39.2748 52.9198 39.2192 53.0367 39.2135C53.1535 39.2092 53.2653 39.2563 53.3507 39.3461C53.4374 39.436 53.4864 39.5601 53.4902 39.6928C53.4952 39.8254 53.4538 39.9509 53.3734 40.0494C53.21 40.2491 52.9324 40.2619 52.7552 40.075C52.6698 39.9852 52.6196 39.8611 52.6158 39.7284C52.6108 39.5958 52.6522 39.4702 52.7326 39.3718ZM59.856 33.6177C59.851 33.4851 59.8924 33.3581 59.9728 33.2611C60.052 33.1641 60.16 33.1071 60.2769 33.1028C60.5181 33.0928 60.7216 33.3068 60.7304 33.5806C60.7392 33.8545 60.5507 34.0856 60.3095 34.0956C60.0683 34.1055 59.8648 33.8916 59.856 33.6177ZM51.9198 41.0963C52.4211 41.6255 53.1598 41.7468 53.7691 41.4173L54.8407 42.547C54.6699 42.7938 54.5091 43.0519 54.3633 43.3187C54.1837 43.6453 54.2729 44.0761 54.5593 44.2786C54.6988 44.3771 54.8634 44.4084 55.0229 44.3671C55.1825 44.3243 55.3181 44.2144 55.4048 44.0561C55.6159 43.671 55.8609 43.3073 56.1322 42.9749C56.1348 42.9721 56.1373 42.9692 56.1398 42.9663C56.1423 42.9621 56.1448 42.9592 56.1461 42.9578C57.2893 41.5642 58.8421 40.7583 60.5181 40.6855H60.5281C60.6387 40.6813 60.7505 40.6798 60.8611 40.6813C61.199 40.687 61.4792 40.3803 61.4842 39.9952C61.488 39.6942 61.3246 39.4374 61.0935 39.3362L60.9628 35.3294C61.5809 35.0213 61.9829 34.3067 61.9578 33.5293C61.9239 32.488 61.15 31.6707 60.2316 31.7092C59.7869 31.7277 59.3761 31.9417 59.0733 32.3126C58.7705 32.682 58.6122 33.1641 58.6286 33.6691C58.6537 34.4465 59.1009 35.1254 59.7366 35.3807L59.866 39.3476C58.3069 39.5573 56.8345 40.3247 55.6762 41.5257L54.6058 40.3974C54.6875 40.1578 54.7252 39.8996 54.7176 39.64C54.7013 39.1365 54.5128 38.6686 54.1862 38.3248C53.5141 37.6159 52.4575 37.6601 51.8331 38.4233C51.5303 38.7941 51.372 39.2763 51.3884 39.7798C51.4047 40.2847 51.5931 40.7526 51.9198 41.0963Z" fill="#FBFBFB"/>
  <path d="M57.7466 58.5078C57.6655 58.7652 57.4094 58.9031 57.1765 58.8135C57.0028 58.7481 56.8805 58.5661 56.8741 58.3641C56.8715 58.303 56.8805 58.2418 56.8985 58.1835C56.9796 57.9261 57.2344 57.7882 57.4673 57.8764H57.4699C57.6436 57.9432 57.7646 58.1252 57.771 58.3272C57.7736 58.3883 57.7646 58.4495 57.7466 58.5078ZM58.7014 57.235C58.6294 57.1255 58.547 57.0259 58.4569 56.9364L59.7978 53.2631C59.8313 53.1721 59.8467 53.0754 59.8441 52.9772C59.8351 52.7042 59.6807 52.461 59.4504 52.3586C59.2947 52.289 59.1248 52.2918 58.9691 52.3643C58.8147 52.4369 58.695 52.5705 58.6319 52.7426L57.2743 56.4614C56.5717 56.4827 55.9437 56.9833 55.7095 57.7299C55.6413 57.9503 55.6091 58.1821 55.6168 58.4153C55.6297 58.7908 55.743 59.1505 55.9437 59.4549C56.1496 59.7677 56.4327 60.001 56.7647 60.1275C57.6539 60.4674 58.6268 59.9441 58.9343 58.9614C59.0038 58.7396 59.036 58.5092 59.027 58.276C59.0154 57.9005 58.9022 57.5407 58.7014 57.235Z" fill="#FBFBFB"/>
  <path d="M51.9276 44.3301C51.9651 44.2191 52.0438 44.1307 52.1487 44.0789C52.2537 44.0272 52.3711 44.0196 52.481 44.0587C52.6497 44.1168 52.7672 44.2784 52.7746 44.4576C52.7759 44.5119 52.7684 44.5662 52.7509 44.618C52.7122 44.729 52.6335 44.8187 52.5285 44.8692C52.4248 44.9209 52.3061 44.9285 52.1962 44.8906C52.0275 44.8313 51.9101 44.671 51.9038 44.4905C51.9013 44.4362 51.9088 44.3819 51.9276 44.3301ZM51.0006 45.4599C51.2005 45.7364 51.4753 45.9434 51.7976 46.0558C52.2162 46.2022 52.6647 46.1744 53.0632 45.9788C53.2669 45.879 53.4481 45.7377 53.5955 45.566L56.92 46.7273C57.0737 46.7816 57.2399 46.7715 57.386 46.6996C57.5322 46.6276 57.6434 46.5014 57.6959 46.3461C57.7209 46.2741 57.7321 46.1984 57.7296 46.1214C57.7196 45.8702 57.5547 45.6442 57.3186 45.5622L53.994 44.3996C53.979 44.0714 53.8703 43.7558 53.6779 43.4894C53.478 43.2117 53.2019 43.0047 52.8808 42.8923C52.0175 42.5906 51.0718 43.0552 50.7744 43.9275C50.707 44.1244 50.6757 44.3289 50.6832 44.5359C50.6957 44.8692 50.8057 45.1885 51.0006 45.4599Z" fill="#FBFBFB"/>
  <path d="M60.9189 48.4717C60.6637 48.4822 60.4485 48.2566 60.4392 47.9698C60.4299 47.6829 60.6292 47.4409 60.8843 47.4304C61.1395 47.42 61.3547 47.6441 61.364 47.9324C61.3747 48.2177 61.174 48.4598 60.9189 48.4717ZM60.8365 45.9709C59.8664 46.0112 59.105 46.933 59.1409 48.0235C59.1767 49.1156 59.9967 49.9701 60.9667 49.9298C61.9381 49.8894 62.6982 48.9692 62.6623 47.8786C62.6265 46.7866 61.8079 45.932 60.8365 45.9709Z" fill="#FBFBFB"/>
  <path d="M62.7572 51.546L63.1305 52.0845C63.21 52.199 63.3277 52.2761 63.4645 52.2996C63.6013 52.3243 63.7382 52.2943 63.8516 52.214C63.9969 52.1112 64.0796 51.9442 64.0733 51.7655C64.069 51.6648 64.0372 51.5685 63.98 51.485L63.6066 50.9466C63.4433 50.71 63.1188 50.6522 62.8844 50.8181C62.6511 50.983 62.5938 51.3095 62.7572 51.546Z" fill="#FBFBFB"/>
  <path d="M58.1276 50.2141L57.1579 51.813C57.0595 51.9753 57.0138 52.1794 57.0279 52.3867C57.0419 52.5956 57.1134 52.7852 57.2317 52.9186C57.3488 53.0536 57.4975 53.1163 57.6497 53.097C57.802 53.0777 57.939 52.9797 58.0374 52.8174L59.0071 51.2185C59.0973 51.069 59.1441 50.881 59.1394 50.6866C59.1336 50.4648 59.0586 50.2543 58.9333 50.1129C58.6909 49.8349 58.329 49.8815 58.1276 50.2141Z" fill="#FBFBFB"/>
  <path d="M59.5931 45.9461C59.7921 45.9949 59.9973 45.9668 60.1744 45.8692C60.4157 45.7347 60.5598 45.4848 60.5488 45.2202C60.5441 45.1004 60.5081 44.9837 60.4439 44.8802L59.8595 43.9473C59.6448 43.6043 59.1748 43.4904 58.8114 43.693C58.6359 43.7905 58.5105 43.9473 58.4588 44.135C58.4087 44.3213 58.4385 44.5165 58.5419 44.682L59.1247 45.6149C59.2297 45.7805 59.3957 45.8988 59.5931 45.9461Z" fill="#FBFBFB"/>
  <path d="M77.2835 34.8365C77.1449 34.6234 76.9975 34.4229 76.847 34.2421C76.6134 33.9575 76.2977 34.0703 76.1404 34.4928C75.984 34.9152 76.0463 35.4881 76.2799 35.7709C76.3987 35.9159 76.5145 36.0752 76.6253 36.2435C76.7203 36.3903 76.8371 36.4619 76.9539 36.4619C77.0984 36.4619 77.2419 36.3509 77.3429 36.1361C77.525 35.7476 77.4983 35.1658 77.2835 34.8365Z" fill="#FBFBFB"/>
  <path d="M74.7716 33.4118C73.636 33.1817 72.4581 33.286 71.3689 33.714C70.2442 34.1542 69.241 34.9288 68.4685 35.955C68.2173 36.2878 68.2542 36.7863 68.5504 37.0686C68.6828 37.1928 68.8438 37.2542 69.0035 37.2542C69.2028 37.2542 69.4021 37.1606 69.5413 36.975C70.7574 35.3598 72.6669 34.5913 74.5232 34.9656C74.904 35.0438 75.2698 34.7585 75.3381 34.329C75.4077 33.8996 75.1538 33.49 74.7716 33.4118Z" fill="#FBFBFB"/>
  <mask id="mask1_1806_881" style="mask-type:luminance" maskUnits="userSpaceOnUse" x="63" y="29" width="32" height="32">
    <path d="M63.6865 29.3311H94.4175V60.9011H63.6865V29.3311Z" fill="white"/>
  </mask>
  <g mask="url(#mask1_1806_881)">
    <path d="M92.6383 58.6236C92.2771 59.1035 91.7706 59.3875 91.2123 59.423C90.6541 59.4599 90.1223 59.2413 89.7156 58.811L83.0468 51.7683C82.8801 51.5923 82.8662 51.2998 83.0139 51.1038L83.6063 50.3172L84.3856 49.2821C84.4702 49.1699 84.5915 49.1117 84.714 49.1117C84.8037 49.1117 84.8934 49.1429 84.9704 49.2068L92.3023 55.3365C92.7545 55.7142 93.0387 56.2694 93.1031 56.8984C93.1675 57.5274 93.0021 58.1408 92.6383 58.6236ZM82.1942 49.931L80.3565 48.1803C80.5662 47.9474 80.7683 47.7032 80.9615 47.4476C81.1131 47.246 81.2571 47.0401 81.3947 46.8285L83.2211 48.5665L82.3445 49.7308L82.1942 49.931ZM74.1929 49.8458C71.9333 50.0574 69.7356 49.2665 68.0052 47.6194C66.2749 45.9723 65.219 43.665 65.0321 41.1248C64.8439 38.5846 65.5474 36.1154 67.0125 34.1701C68.4776 32.2248 70.5301 31.0364 72.7896 30.8262C73.0284 30.8035 73.2671 30.7936 73.5058 30.7936C75.509 30.7936 77.43 31.5816 78.976 33.0541C80.7064 34.7012 81.7623 37.0071 81.9505 39.5473C82.1374 42.0875 81.4339 44.5581 79.9688 46.5033C78.5036 48.4486 76.4525 49.6356 74.1929 49.8458ZM94.3952 56.7323C94.2904 55.7114 93.8104 54.7757 93.0778 54.1637L85.7459 48.034C85.324 47.6819 84.8024 47.5782 84.3237 47.7017L82.0982 45.5833C82.4001 44.9585 82.6464 44.3039 82.8371 43.6195C83.2135 42.2607 83.3512 40.8507 83.2463 39.4266C83.1415 38.0024 82.798 36.6365 82.2271 35.3671C81.636 34.0523 80.8251 32.8979 79.8172 31.938C78.808 30.9782 77.6624 30.2696 76.4108 29.8295C75.2033 29.4063 73.9479 29.2516 72.6823 29.3694C71.4155 29.4873 70.2004 29.8735 69.07 30.5153C67.9004 31.1798 66.8748 32.0914 66.021 33.2245C65.1672 34.359 64.5357 35.6468 64.1454 37.0539C63.769 38.4113 63.6313 39.8227 63.7362 41.2469C63.841 42.6696 64.1846 44.0356 64.7542 45.3064C65.3466 46.6212 66.1574 47.7742 67.1653 48.734C68.1732 49.6939 69.3201 50.4038 70.5705 50.8426C71.5178 51.1748 72.4916 51.3409 73.4793 51.3409C73.7521 51.3409 74.0262 51.3282 74.3002 51.3026C75.5671 51.1848 76.7821 50.8 77.9113 50.1582C78.4228 49.8671 78.9065 49.5292 79.36 49.1472L81.6158 51.2941C81.5842 51.8535 81.7673 52.4215 82.1576 52.8333L88.8252 59.8774C89.4479 60.5334 90.2461 60.8883 91.0924 60.8883C91.1568 60.8883 91.2212 60.8869 91.2869 60.8827C92.2038 60.8245 93.0374 60.3573 93.6298 59.5693H93.6311C94.2209 58.7855 94.4988 57.7518 94.3952 56.7323Z" fill="#FBFBFB"/>
  </g>
  <mask id="mask2_1806_881" style="mask-type:luminance" maskUnits="userSpaceOnUse" x="73" y="60" width="14" height="30">
    <path d="M73.2153 60.8159H86.9648V89.035H73.2153V60.8159Z" fill="white"/>
  </mask>
  <g mask="url(#mask2_1806_881)">
    <path d="M83.1554 74.2226C82.5542 73.8321 82.1803 73.098 82.1803 72.3071V62.2798H82.2511C82.6098 62.2798 82.9015 61.9532 82.9015 61.55C82.9015 61.1453 82.6098 60.8187 82.2511 60.8187H76.4613C76.1026 60.8187 75.8121 61.1453 75.8121 61.55C75.8121 61.9532 76.1026 62.2798 76.4613 62.2798H76.5333V72.3071C76.5333 73.0994 76.162 73.8307 75.5633 74.2197C74.7069 74.7749 73.963 75.5033 73.3555 76.3837C73.1344 76.7017 73.1862 77.1618 73.4692 77.4088C73.7521 77.6573 74.1613 77.5991 74.3811 77.281C74.8863 76.5498 75.5026 75.9463 76.2137 75.4849C77.2128 74.836 77.833 73.6191 77.833 72.3071V62.2798H80.8794V72.3071C80.8794 73.6177 81.5021 74.836 82.5037 75.4877C84.4462 76.7514 85.6537 79.0999 85.6537 81.6202C85.6537 84.0724 84.5094 86.3641 82.6565 87.6491H78.2005C77.8418 87.6491 77.5513 87.9771 77.5513 88.3804C77.5513 88.7836 77.8418 89.1116 78.2005 89.1116H82.8359C82.9508 89.1116 83.0632 89.0776 83.1617 89.0122C84.2947 88.2753 85.2432 87.2146 85.9076 85.9467C86.5921 84.6404 86.9534 83.1438 86.9534 81.6202C86.9534 80.0939 86.5909 78.5959 85.905 77.2896C85.2394 76.0202 84.2883 74.9595 83.1554 74.2226Z" fill="#FBFBFB"/>
  </g>
  <path d="M82.4737 80.9466C82.4737 81.3199 82.7718 81.6235 83.1399 81.6235C83.508 81.6235 83.8074 81.3199 83.8074 80.9466C83.8074 79.6347 83.1101 78.4109 81.9889 77.7536C81.6701 77.5656 81.2618 77.6761 81.0778 78.0007C80.8937 78.3228 81.0026 78.7369 81.3214 78.9248C82.0317 79.3402 82.4737 80.1158 82.4737 80.9466Z" fill="#FBFBFB"/>
  <mask id="mask3_1806_881" style="mask-type:luminance" maskUnits="userSpaceOnUse" x="61" y="66" width="15" height="24">
    <path d="M61.9819 66.8448H75.5028V89.035H61.9819V66.8448Z" fill="white"/>
  </mask>
  <g mask="url(#mask3_1806_881)">
    <path d="M74.0929 87.2802C74.0361 87.3909 73.8656 87.6493 73.5233 87.6493H63.9659C63.6223 87.6493 63.4531 87.3909 63.395 87.2802C63.3381 87.168 63.2232 86.8726 63.395 86.539L67.3268 78.8843C67.5352 78.4768 67.6464 78.0139 67.6464 77.5439V68.3344H69.8428V77.5439C69.8428 78.0139 69.9527 78.4768 70.1623 78.8843L74.0929 86.539C74.2647 86.8726 74.151 87.168 74.0929 87.2802ZM71.2877 78.153C71.193 77.9685 71.1425 77.7569 71.1425 77.5439V68.333C71.4885 68.316 71.7651 67.9965 71.7651 67.6032C71.7651 67.1999 71.4734 66.8719 71.1147 66.8719H66.3075C65.9488 66.8719 65.6571 67.1999 65.6571 67.6032C65.6571 68.0064 65.9488 68.3344 66.3075 68.3344H66.3454V77.5439C66.3454 77.7569 66.2962 77.9685 66.2002 78.153L62.2696 85.8077C61.9147 86.4978 61.9147 87.3199 62.2696 88.01C62.6233 88.7001 63.2573 89.1118 63.9659 89.1118H73.5233C74.2306 89.1118 74.8659 88.7001 75.2195 88.01C75.5732 87.3199 75.5732 86.4978 75.2195 85.8077L71.2877 78.153Z" fill="#FBFBFB"/>
  </g>
  <path d="M58.5119 70.5311H55.5381C55.1914 70.5311 54.9106 70.8853 54.9106 71.3227C54.9106 71.76 55.1914 72.1157 55.5381 72.1157H58.5119C58.8586 72.1157 59.1393 71.76 59.1393 71.3227C59.1393 70.8853 58.8586 70.5311 58.5119 70.5311Z" fill="#FBFBFB"/>
  <path d="M54.2451 74.4927H52.7566C52.389 74.4927 52.0913 74.8465 52.0913 75.285C52.0913 75.7219 52.389 76.0773 52.7566 76.0773H54.2451C54.6127 76.0773 54.9104 75.7219 54.9104 75.285C54.9104 74.8465 54.6127 74.4927 54.2451 74.4927Z" fill="#FBFBFB"/>
  <path d="M57.8828 80.0389H56.8722C56.5668 80.0389 56.3203 80.3943 56.3203 80.8313C56.3203 81.2682 56.5668 81.6236 56.8722 81.6236H57.8828C58.1882 81.6236 58.4347 81.2682 58.4347 80.8313C58.4347 80.3943 58.1882 80.0389 57.8828 80.0389Z" fill="#FBFBFB"/>
</svg>