<svg width="30" height="30" viewBox="0 0 30 30" fill="none" xmlns="http://www.w3.org/2000/svg">
<g id="politique-de-confidentialite 1">
<g id="Group">
<path id="Vector" d="M7.06055 1.45894C6.75 1.65816 1.24219 7.22457 1.20117 7.38277C1.18359 7.46481 1.17773 12.0644 1.18359 17.6132L1.20117 27.6972L1.37695 27.9843C1.48828 28.1601 1.66406 28.3359 1.83984 28.4472L2.12695 28.623L11.332 28.6406C21.7148 28.6582 20.8242 28.6992 21.2871 28.1836C21.6152 27.8203 21.6797 27.5859 21.6797 26.7656V26.0976L22.2305 25.7343C25.3828 23.6718 27.4922 20.6953 28.3828 17.0507C28.7227 15.6796 28.793 15.0293 28.7988 13.3886C28.7988 11.7421 28.7637 11.4433 28.5586 11.1914L28.4121 11.0214L27.4629 11.0273C26.9414 11.0332 26.332 11.0039 26.1035 10.9629C24.8145 10.7461 23.1797 10.1015 21.9902 9.33981L21.6797 9.14059V5.85348C21.6797 3.49801 21.6621 2.49605 21.6094 2.33199C21.5215 2.03316 21.1289 1.59371 20.8301 1.45894C20.6074 1.35348 20.2676 1.34762 13.916 1.34762C7.46484 1.34762 7.23047 1.35348 7.06055 1.45894ZM20.4492 2.57808C20.4844 2.63082 20.5078 3.97262 20.5078 5.92379V9.1816L20.3789 9.29879C19.582 10.0078 18.1113 10.6933 16.8457 10.9336C16.3125 11.0332 15.1465 11.0742 14.3086 11.0156C13.8867 10.9863 13.875 10.9921 13.7168 11.1679C13.5762 11.3261 13.5469 11.4257 13.4824 11.9531C13.1426 14.9589 13.5762 17.5722 14.8301 20.039C15.9727 22.2949 17.7539 24.2754 19.9395 25.705L20.5078 26.08V26.707C20.5078 27.0527 20.4785 27.375 20.4492 27.4218C20.4023 27.498 19.3242 27.5097 11.4551 27.5273C2.57227 27.539 2.51953 27.539 2.40234 27.4218C2.28516 27.3046 2.28516 27.2402 2.28516 17.7539V8.20309H2.47852C2.57812 8.20309 3.50391 8.25582 4.5293 8.32027C5.92969 8.40816 6.45703 8.41988 6.66797 8.37301C7.21289 8.24996 7.69336 7.82809 7.88672 7.28316C7.94531 7.11324 7.96289 6.54488 7.96875 4.75777V2.4609L14.1797 2.47262C19.6289 2.49019 20.4023 2.50191 20.4492 2.57808ZM6.70898 7.06637C6.66211 7.14254 6.55664 7.21871 6.47461 7.24215C6.39258 7.25973 5.64844 7.23629 4.82227 7.18356C3.99023 7.13082 3.24609 7.08981 3.16406 7.08981C3.04688 7.08981 3.35742 6.74996 4.89258 5.21481L6.76758 3.3398L6.78516 5.13277C6.79688 6.66793 6.78516 6.95504 6.70898 7.06637ZM21.8555 10.5996C23.5547 11.5722 25.2656 12.1113 26.8418 12.1757L27.6387 12.205L27.6797 12.7675C27.7266 13.4648 27.6387 14.7949 27.4746 15.75C26.8887 19.248 25.1426 22.1308 22.3184 24.2578C21.9434 24.539 21.5156 24.8437 21.3691 24.9316L21.0996 25.0839L20.6133 24.7734C19.1074 23.8066 17.6426 22.3652 16.623 20.8418C15.041 18.4746 14.3203 15.58 14.5723 12.6328L14.6074 12.1757L14.9941 12.2168C15.791 12.2929 17.2793 12.0761 18.3105 11.7421C19.1602 11.4609 20.3496 10.8281 20.9355 10.3359C21.0293 10.2597 21.1113 10.1953 21.123 10.1953C21.1348 10.1953 21.4688 10.3769 21.8555 10.5996Z" fill="#00A0D8"/>
<path id="Vector_2" d="M3.83795 11.6543C3.46295 11.8125 3.36334 12.2988 3.65045 12.5801L3.80865 12.7441H7.73443H11.6602L11.8184 12.5859C12.0411 12.3574 12.0411 12.0176 11.8184 11.7891L11.6602 11.6309L7.80475 11.6191C5.68951 11.6133 3.9024 11.6309 3.83795 11.6543Z" fill="#00A0D8"/>
<path id="Vector_3" d="M3.83795 14.291C3.46295 14.4492 3.36334 14.9355 3.65045 15.2168L3.80865 15.3809H7.73443H11.6602L11.8184 15.2227C12.0411 14.9941 12.0411 14.6543 11.8184 14.4258L11.6602 14.2676L7.80475 14.2559C5.68951 14.25 3.9024 14.2676 3.83795 14.291Z" fill="#00A0D8"/>
<path id="Vector_4" d="M7.64638 16.793C5.67763 17.1152 4.13075 18.5039 3.62685 20.4199C3.46864 21.0176 3.45107 22.1016 3.59169 22.6934C4.02529 24.4688 5.39638 25.8574 7.17177 26.3086C7.81044 26.4727 8.82997 26.4727 9.46864 26.3086C12.0761 25.6406 13.6581 23.0449 13.0311 20.4492C12.8905 19.8691 12.4218 18.9551 12.0175 18.4805C11.4022 17.748 10.5351 17.1973 9.60927 16.9336C9.17568 16.8105 8.04482 16.7344 7.64638 16.793ZM9.5331 18.1172C11.2909 18.7383 12.3104 20.5723 11.9237 22.4062C11.6542 23.666 10.5936 24.7793 9.287 25.1719C8.80653 25.3184 7.83388 25.3184 7.35341 25.1719C6.39247 24.8848 5.44325 24.1113 5.05068 23.2969C4.49404 22.1543 4.49989 21.0234 5.05068 19.9277C5.50771 19.0137 6.43935 18.2637 7.42372 18.0176C7.96278 17.8828 9.00575 17.9297 9.5331 18.1172Z" fill="#00A0D8"/>
<path id="Vector_5" d="M8.64264 21.0352L7.52936 22.1484L6.98443 21.6094C6.48053 21.0996 6.43365 21.0645 6.20514 21.0645C5.75982 21.0645 5.48443 21.5566 5.72467 21.9141C5.85943 22.1191 7.0899 23.3906 7.23639 23.4785C7.30084 23.5195 7.44732 23.5488 7.55279 23.5547C7.74029 23.5547 7.85748 23.4551 8.98248 22.3359C10.377 20.959 10.5469 20.7539 10.5469 20.4668C10.5469 20.1797 10.2833 19.9219 9.98443 19.9219C9.7735 19.9219 9.69732 19.9863 8.64264 21.0352Z" fill="#00A0D8"/>
<path id="Vector_6" d="M20.5371 12.1523C20.1152 12.2578 19.7695 12.4512 19.4238 12.7793C18.8672 13.3066 18.6328 13.9336 18.6328 14.8945C18.6328 15.2402 18.6094 15.4688 18.5742 15.4688C18.4629 15.4688 18.041 15.8965 17.9121 16.1367C17.7891 16.3711 17.7832 16.4414 17.7832 18.1641C17.7832 19.8867 17.7891 19.957 17.9121 20.1855C18.0762 20.4961 18.3691 20.7656 18.6914 20.9121C18.9434 21.0234 19.0723 21.0352 21.0645 21.0352C22.3418 21.0352 23.2617 21.0117 23.3906 20.9766C23.7422 20.877 24.0879 20.5723 24.2871 20.1855L24.4629 19.8398V18.1641V16.4883L24.2871 16.1426C24.1758 15.9199 24.0176 15.7266 23.8477 15.5977L23.584 15.3926L23.5547 14.6543C23.5254 13.9863 23.502 13.875 23.3379 13.5352C22.8223 12.4395 21.6738 11.8711 20.5371 12.1523ZM21.5801 13.3184C21.8613 13.4414 22.1367 13.6934 22.2773 13.9629C22.3711 14.1504 22.4004 14.3203 22.4062 14.7305L22.4121 15.2637L21.1055 15.2812L19.793 15.293L19.8164 14.7188C19.834 14.1973 19.8516 14.1152 20.0098 13.8574C20.3262 13.3418 21.0469 13.0957 21.5801 13.3184ZM23.209 16.5762C23.3145 16.6992 23.3203 16.8223 23.3203 18.1582C23.3203 19.3711 23.3086 19.623 23.2266 19.7344L23.1387 19.8633H21.123C19.3711 19.8633 19.0957 19.8516 19.0195 19.7695C18.9375 19.6934 18.9258 19.4648 18.9258 18.1758C18.9258 17.3496 18.9492 16.6406 18.9727 16.6055C19.0957 16.4238 19.2598 16.4062 21.1699 16.4238L23.0977 16.4355L23.209 16.5762Z" fill="#00A0D8"/>
<path id="Vector_7" d="M20.8887 17.2206C20.8242 17.2499 20.7188 17.3319 20.6543 17.4023C20.5547 17.5136 20.5371 17.6132 20.5371 18.1757V18.8202L20.7305 18.9901C20.9414 19.1776 21.1348 19.2011 21.3809 19.078C21.6152 18.955 21.6797 18.7499 21.6797 18.164C21.6797 17.578 21.6152 17.373 21.3809 17.2499C21.1992 17.1562 21.0645 17.1503 20.8887 17.2206Z" fill="#00A0D8"/>
</g>
</g>
</svg>
