<svg width="180" height="171" viewBox="0 0 180 171" fill="none" xmlns="http://www.w3.org/2000/svg">
<g id="Group 1000002101">
<g id="Clip path group">
<mask id="mask0_315_1014" style="mask-type:luminance" maskUnits="userSpaceOnUse" x="0" y="0" width="180" height="171">
<g id="21be110fef">
<path id="Vector" d="M0 0H180V170.879H0V0Z" fill="white"/>
</g>
</mask>
<g mask="url(#mask0_315_1014)">
<g id="Group">
<path id="Vector_2" d="M179.118 84.5017C179.118 84.4691 179.083 84.4365 179.083 84.4026L150.086 19.1715L122.106 30.1581C122.457 27.0564 122.457 22.6685 120.666 19.5015C120.526 19.2544 120.379 19.0113 120.223 18.7736C120.067 18.5346 119.904 18.301 119.735 18.0702C119.564 17.8407 119.388 17.6166 119.203 17.3966C119.02 17.1766 118.829 16.962 118.633 16.7515C118.435 16.5424 118.231 16.3387 118.022 16.139C117.812 15.9407 117.597 15.7479 117.375 15.5619C117.154 15.3744 116.926 15.1938 116.693 15.02C116.461 14.8462 116.222 14.6778 115.98 14.5162C115.736 14.3546 115.489 14.1997 115.236 14.0517C114.983 13.905 114.726 13.7638 114.465 13.6294C114.203 13.4963 113.938 13.37 113.669 13.2505C113.399 13.1309 113.128 13.0182 112.85 12.9137C112.574 12.8091 112.296 12.7127 112.014 12.623C111.731 12.5348 111.447 12.4533 111.159 12.3786C110.873 12.3053 110.583 12.2401 110.293 12.1817C110.001 12.1233 109.708 12.073 109.415 12.0309C109.12 11.9902 108.824 11.9562 108.528 11.9291C108.232 11.9033 107.934 11.8856 107.637 11.8761C107.339 11.8666 107.042 11.8653 106.744 11.872C106.447 11.8788 106.149 11.8924 105.853 11.9155C105.557 11.9386 105.261 11.9698 104.966 12.0078C104.672 12.0472 104.377 12.0934 104.086 12.1491C103.794 12.2034 103.504 12.2672 103.216 12.3379C102.929 12.4085 102.643 12.4859 102.36 12.5728C102.077 12.6597 101.796 12.7534 101.519 12.8553C101.242 12.9558 100.968 13.0658 100.697 13.1812C100.426 13.298 100.159 13.4216 99.896 13.5533C99.6331 13.685 99.3746 13.8222 99.1204 13.9675C98.8662 14.1128 98.6164 14.2649 98.3709 14.4238C98.1268 14.5827 97.8856 14.7484 97.6517 14.9195C97.4163 15.092 97.1867 15.2699 96.9628 15.4546C96.739 15.6393 96.5223 15.8294 96.31 16.0249C96.0977 16.2219 95.8912 16.4242 95.6919 16.632C95.4926 16.8384 95.2991 17.0516 95.1128 17.2703C94.9265 17.4876 94.7474 17.7103 94.5741 17.9384C94.4023 18.1666 94.2362 18.3988 94.0773 18.6365C93.9199 18.8728 93.7683 19.1145 93.6253 19.359C93.4823 19.6048 93.3466 19.8533 93.218 20.1059C93.0895 20.3585 92.9697 20.6138 92.857 20.8732C92.7458 21.1326 92.6404 21.3947 92.5451 21.6595C92.4483 21.9229 92.3616 22.1905 92.2808 22.4607C92.2013 22.7296 92.1306 23.0012 92.067 23.2756C92.0049 23.5485 91.9501 23.8228 91.9053 24.0999C91.8591 24.3756 91.8215 24.654 91.7926 24.9324C91.7638 25.2108 91.7435 25.4892 91.732 25.7689C91.7204 26.0487 91.719 26.3284 91.7248 26.6082C91.7305 26.888 91.745 27.1677 91.7666 27.4461C91.7898 27.7245 91.8215 28.0029 91.862 28.28C91.9024 28.557 91.9515 28.8327 92.0078 29.1084C92.0656 29.3827 92.132 29.6557 92.2057 29.9259C92.2793 30.1975 92.3617 30.4651 92.4526 30.7326C92.5436 30.9988 92.6418 31.2622 92.7487 31.523C92.8556 31.7851 92.9711 32.0431 93.0938 32.2971C93.2166 32.5524 93.348 32.8036 93.4867 33.0508C93.6239 33.2993 93.7697 33.5424 93.9243 33.7814C94.0773 34.0218 94.2376 34.2567 94.4066 34.4876C94.5741 34.7185 94.7489 34.9453 94.9308 35.1666C95.1128 35.388 95.302 35.6039 95.497 35.8158C95.6919 36.0263 95.8941 36.2313 96.1021 36.4323C96.31 36.6319 96.5238 36.8261 96.7447 37.0149C96.9643 37.2037 97.1896 37.3857 97.4206 37.5622C97.6531 37.7374 97.8885 37.9072 98.1312 38.0701C98.3723 38.2331 98.6193 38.3906 98.8706 38.54C99.1219 38.6894 99.3775 38.832 99.6389 38.9678L69.7284 50.6823C69.0511 48.6832 68.0561 46.8349 66.7433 45.1387C67.1217 44.9445 67.4611 44.7015 67.7614 44.4122C68.1369 44.07 68.4287 43.6721 68.6352 43.2212C68.8417 42.769 68.9486 42.2977 68.9558 41.8061L68.8157 30.9173H71.2029C71.4802 30.9132 71.7474 30.8602 72.0016 30.7584C72.2572 30.6552 72.4825 30.5099 72.6774 30.3238C72.8825 30.1391 73.0414 29.9232 73.1511 29.676C73.2609 29.4289 73.3129 29.1722 73.3085 28.9047L72.8868 0L68.6742 0.0665443L69.0612 26.9586L12.7858 27.3538L12.4002 0L8.18747 0.0665443L8.57307 29.399C8.5774 29.528 8.59329 29.6543 8.62362 29.7792C8.6525 29.9055 8.69438 30.0264 8.74926 30.1432C8.80414 30.2613 8.86913 30.3727 8.94711 30.4786C9.02366 30.5846 9.11175 30.6823 9.20851 30.772C9.30672 30.8616 9.41214 30.9431 9.52479 31.0137C9.63888 31.0843 9.75875 31.1441 9.88439 31.193C10.0115 31.2432 10.1415 31.2799 10.2743 31.3057C10.4086 31.3315 10.5429 31.3451 10.6801 31.3464H13.1367C13.1367 31.4456 13.2782 42.2352 13.2782 42.2352C13.2869 42.5259 13.3317 42.8138 13.4125 43.0949C13.492 43.3774 13.6046 43.6476 13.7505 43.9043C13.8978 44.1623 14.0725 44.4 14.2776 44.62C14.4812 44.84 14.7108 45.0342 14.9621 45.2039L13.4183 47.514C12.8219 48.4049 12.0131 50.6157 12.0131 50.6157H11.9785L5.8349 72.1611L7.4495 76.8464L5.16769 77.8038C4.64345 78.0211 4.14665 78.2846 3.67729 78.5956C3.20938 78.9052 2.77757 79.2556 2.38186 79.6467C1.9876 80.0378 1.63811 80.4615 1.33194 80.9178C1.02722 81.3741 0.773042 81.8535 0.569412 82.3574C0.368671 82.8612 0.221364 83.3786 0.128936 83.9083C0.0350647 84.4392 -0.00248405 84.9743 0.0162902 85.5107C0.0336204 86.0485 0.107273 86.5795 0.235806 87.1037C0.364338 87.6279 0.546305 88.1359 0.780263 88.6261L31.989 154.156L61.2323 141.848C61.4922 141.743 61.7334 141.608 61.9544 141.442C62.1753 141.276 62.3703 141.086 62.5364 140.87C62.7039 140.656 62.8368 140.423 62.9379 140.175C63.0375 139.926 63.1011 139.67 63.1285 139.405C63.1559 139.14 63.1444 138.877 63.0953 138.614C63.0476 138.352 62.9624 138.101 62.8426 137.859C62.7227 137.619 62.5696 137.398 62.3862 137.195C62.2028 136.993 61.9934 136.818 61.7594 136.668C58.0031 134.193 55.405 131.52 54.6324 129.343C54.5587 129.139 54.4923 128.934 54.4331 128.728C54.3724 128.52 54.3204 128.311 54.2742 128.102C54.228 127.891 54.1876 127.679 54.1558 127.468C54.124 127.256 54.098 127.043 54.0793 126.828C54.0605 126.615 54.0489 126.4 54.0446 126.186C54.0403 125.971 54.0432 125.756 54.0518 125.542C54.0619 125.327 54.0778 125.114 54.1009 124.901C54.1255 124.688 54.1558 124.474 54.1934 124.263C54.2295 124.051 54.2742 123.84 54.3248 123.631C54.3768 123.422 54.4345 123.214 54.4981 123.009C54.5631 122.803 54.6338 122.599 54.7118 122.398C54.7898 122.196 54.875 121.996 54.9645 121.8C55.0555 121.604 55.1537 121.409 55.2563 121.218C55.3603 121.026 55.47 120.839 55.5855 120.653C55.7011 120.468 55.8238 120.288 55.9509 120.11C56.078 119.932 56.2123 119.757 56.351 119.587C56.4896 119.417 56.634 119.25 56.7842 119.088C56.9344 118.927 57.0889 118.769 57.2492 118.616C57.4095 118.464 57.5742 118.316 57.7432 118.172C57.9136 118.028 58.0883 117.889 58.2659 117.756C58.445 117.623 58.6284 117.494 58.8147 117.372C59.0025 117.248 59.1931 117.132 59.3881 117.02C59.583 116.907 59.7809 116.801 59.9831 116.701C60.1853 116.601 60.3903 116.507 60.5983 116.417C60.8063 116.329 61.0157 116.246 61.2294 116.17C61.4431 116.094 61.6583 116.023 61.8764 115.96C62.0945 115.896 62.314 115.837 62.5364 115.786C62.7574 115.734 62.9798 115.689 63.2051 115.651C63.4303 115.612 63.6556 115.581 63.8824 115.555C64.1091 115.529 64.3358 115.51 64.564 115.498C64.7922 115.486 65.0204 115.48 65.2486 115.48C65.4767 115.481 65.7049 115.488 65.9331 115.502C66.1599 115.515 66.388 115.536 66.6133 115.563C66.8401 115.59 67.0654 115.624 67.2906 115.663C67.5145 115.704 67.7369 115.75 67.9579 115.803C68.1803 115.856 68.3998 115.915 68.6164 115.98C68.8345 116.045 69.0497 116.117 69.262 116.194C69.4743 116.273 69.6851 116.357 69.8916 116.447C70.0996 116.537 70.3032 116.633 70.504 116.734C70.7061 116.835 70.9025 116.943 71.0975 117.057C71.291 117.17 71.4817 117.288 71.668 117.413C71.8543 117.536 72.0362 117.665 72.2139 117.8C72.3915 117.934 72.5648 118.074 72.7338 118.219C72.9027 118.363 73.0659 118.513 73.2248 118.666C73.3836 118.821 73.5382 118.978 73.6869 119.141C73.8357 119.304 73.9787 119.471 74.1159 119.643C74.2545 119.814 74.3859 119.989 74.513 120.167C74.6386 120.346 74.76 120.528 74.874 120.714C74.9881 120.9 75.0964 121.089 75.199 121.28C75.3015 121.472 75.3968 121.667 75.4864 121.864C75.5759 122.061 75.6582 122.261 75.7348 122.463C75.8113 122.666 75.8806 122.871 75.9442 123.076C76.0077 123.282 76.064 123.49 76.1132 123.7C76.1623 123.91 76.2056 124.12 76.2417 124.332C76.2763 124.544 76.3052 124.757 76.3283 124.97C76.35 125.183 76.3644 125.398 76.3731 125.612C76.3803 125.827 76.3818 126.042 76.3745 126.256C76.3688 126.471 76.3558 126.684 76.3356 126.899C76.3168 127.112 76.2893 127.325 76.2547 127.537C76.2215 127.749 76.181 127.961 76.1334 128.17C76.0857 128.38 76.0308 128.588 75.9687 128.794C75.9081 129.002 75.8402 129.206 75.7651 129.41C75.6915 129.612 75.6091 129.813 75.5225 130.01C75.4344 130.208 75.3405 130.404 75.2394 130.597C75.108 130.852 75.0199 131.119 74.9751 131.399C74.9318 131.679 74.9318 131.959 74.9795 132.238C75.0257 132.518 75.1152 132.786 75.2495 133.04C75.3824 133.294 75.5543 133.523 75.7622 133.727C75.9702 133.932 76.207 134.103 76.4699 134.239C76.7341 134.376 77.0143 134.472 77.3089 134.529C77.6036 134.585 77.901 134.599 78.2014 134.57C78.5018 134.54 78.7892 134.47 79.0665 134.358L103.359 124.13C103.94 123.893 104.471 123.585 104.956 123.203C105.44 122.822 105.856 122.382 106.203 121.886L109.89 120.467C110.099 122.102 110.527 123.684 111.169 125.216C111.81 126.748 112.648 128.178 113.681 129.507C113.302 129.714 112.963 129.966 112.663 130.267C112.28 130.611 111.985 131.013 111.777 131.471C111.571 131.93 111.468 132.408 111.468 132.907L111.644 143.761H109.257C108.98 143.766 108.713 143.818 108.457 143.922C108.201 144.025 107.978 144.169 107.783 144.356C107.575 144.538 107.419 144.753 107.313 145.001C107.209 145.25 107.166 145.508 107.186 145.774L107.572 170.686H111.784L111.399 147.754L167.673 147.325L168.06 170.719H172.273L171.886 145.346C171.883 145.216 171.867 145.09 171.838 144.963C171.808 144.837 171.766 144.715 171.712 144.595C171.659 144.477 171.592 144.364 171.516 144.257C171.438 144.15 171.351 144.051 171.254 143.96C171.158 143.869 171.052 143.787 170.938 143.714C170.824 143.642 170.704 143.581 170.579 143.529C170.451 143.479 170.322 143.44 170.187 143.412C170.053 143.384 169.917 143.369 169.78 143.366H167.322C167.322 143.3 167.358 143.201 167.358 143.135L167.182 132.51C167.182 132.217 167.144 131.927 167.068 131.644C166.993 131.358 166.881 131.087 166.734 130.827C166.587 130.568 166.409 130.33 166.2 130.113C165.99 129.894 165.756 129.704 165.496 129.541C166.304 128.32 166.936 127.396 167.042 127.199C167.653 126.321 168.096 125.375 168.376 124.36L168.446 124.13H168.482L174.625 102.55L172.378 95.8849L174.414 95.0931C174.676 94.9926 174.931 94.8813 175.183 94.7563C175.432 94.6328 175.675 94.4969 175.912 94.3503C176.147 94.2036 176.376 94.0461 176.595 93.8777C176.815 93.7106 177.024 93.5327 177.226 93.3453C177.427 93.1579 177.618 92.9623 177.798 92.7573C177.977 92.5522 178.148 92.339 178.305 92.1176C178.462 91.8976 178.608 91.6708 178.743 91.4359C178.877 91.2023 178.998 90.9619 179.108 90.7161C179.216 90.4717 179.313 90.2218 179.395 89.9665C179.479 89.7125 179.548 89.4545 179.603 89.1938C179.66 88.933 179.701 88.6709 179.73 88.4061C179.758 88.1413 179.772 87.8765 179.772 87.6103C179.774 87.3441 179.759 87.0793 179.732 86.8145C179.704 86.5497 179.664 86.2862 179.609 86.0255C179.554 85.7647 179.485 85.5067 179.404 85.2527C179.322 84.9974 179.226 84.7475 179.118 84.5017ZM16.1565 51.3083C16.3384 50.7108 16.6085 50.1499 16.9638 49.6257C16.9638 49.6257 18.0512 47.9757 19.2802 46.1939L61.9688 45.8639C62.883 46.7738 63.6686 47.772 64.3257 48.8598C64.9857 49.9489 65.4999 51.0938 65.8667 52.2984L32.0237 66.5198L31.6728 67.0807C29.2855 71.0394 24.9674 72.7886 24.9328 72.7886L23.3875 73.382C23.3875 73.382 25.8108 87.1418 26.478 91.1344C26.6745 92.3214 26.6586 93.5056 26.4304 94.6884C26.2008 95.8699 25.7718 96.9849 25.1436 98.0306C24.9198 98.3307 24.6627 98.601 24.3695 98.8427C24.0778 99.0844 23.7586 99.2908 23.4135 99.4592C23.0683 99.629 22.7058 99.758 22.3275 99.8449C21.9491 99.9332 21.5664 99.9767 21.1765 99.9767C20.0875 99.9441 19.6312 99.4158 19.4564 99.1184L12.611 79.0247L11.3112 75.2303L10.2238 72.0634L16.1565 51.3083ZM102.586 119.807C102.348 120.131 102.033 120.362 101.639 120.499L80.1193 129.574C80.1915 129.302 80.2551 129.031 80.3099 128.755C80.3663 128.481 80.4125 128.205 80.4515 127.928C80.489 127.651 80.5194 127.374 80.5396 127.095C80.5612 126.816 80.5742 126.537 80.5786 126.258C80.5815 125.979 80.5771 125.699 80.5641 125.421C80.5511 125.141 80.5295 124.863 80.4991 124.584C80.4688 124.307 80.4298 124.03 80.3822 123.755C80.3345 123.479 80.2782 123.205 80.2146 122.932C80.1496 122.659 80.0774 122.388 79.9951 122.12C79.9142 121.851 79.8261 121.585 79.7279 121.321C79.6312 121.056 79.5243 120.796 79.4117 120.537C79.2976 120.279 79.1763 120.024 79.0477 119.773C78.9178 119.522 78.7806 119.273 78.6361 119.03C78.4917 118.786 78.3401 118.545 78.1798 118.31C78.0209 118.074 77.8548 117.843 77.6801 117.616C77.5068 117.39 77.3263 117.168 77.14 116.951C76.9522 116.734 76.7587 116.522 76.558 116.315C76.3572 116.11 76.1507 115.909 75.9384 115.714C75.7261 115.518 75.5066 115.329 75.2827 115.146C75.0574 114.963 74.8278 114.786 74.5924 114.615C74.357 114.445 74.1173 114.281 73.8718 114.123C73.6263 113.966 73.3764 113.815 73.1223 113.671C72.8666 113.527 72.6081 113.39 72.3453 113.261C72.081 113.131 71.8153 113.008 71.5438 112.893C71.2737 112.778 70.9993 112.669 70.722 112.57C70.4447 112.469 70.1646 112.376 69.8815 112.291C69.5984 112.206 69.3125 112.128 69.0251 112.059C68.7363 111.99 68.4474 111.927 68.1557 111.875C67.864 111.82 67.5708 111.774 67.2762 111.736C66.9816 111.699 66.687 111.669 66.3909 111.648C66.0934 111.626 65.7974 111.612 65.4999 111.607C65.2024 111.6 64.9063 111.603 64.6088 111.614C64.3113 111.625 64.0152 111.644 63.7192 111.669C63.4231 111.697 63.1285 111.732 62.8353 111.774C62.5422 111.817 62.249 111.868 61.9587 111.926C61.6684 111.986 61.3796 112.052 61.0937 112.127C60.8063 112.2 60.5232 112.283 60.2416 112.373C59.96 112.463 59.6812 112.56 59.4068 112.666C59.131 112.771 58.8595 112.884 58.5909 113.003C58.3223 113.123 58.058 113.25 57.7966 113.385C57.5366 113.519 57.2796 113.66 57.0283 113.808C56.7756 113.956 56.5286 114.111 56.2874 114.273C56.0448 114.434 55.8079 114.603 55.5754 114.778C55.3429 114.952 55.1176 115.132 54.8967 115.32C54.6757 115.507 54.4605 115.7 54.2511 115.898C54.0432 116.097 53.8395 116.302 53.6431 116.511C53.4467 116.721 53.2575 116.936 53.0741 117.156C52.8907 117.376 52.7145 117.6 52.5455 117.831C52.3766 118.06 52.2148 118.294 52.0603 118.533C51.9043 118.771 51.757 119.014 51.6184 119.26C51.4783 119.507 51.3454 119.757 51.2212 120.011C51.097 120.263 50.98 120.521 50.8717 120.781C50.7634 121.041 50.6623 121.303 50.5699 121.57C50.4775 121.834 50.3937 122.102 50.3186 122.372C50.2421 122.642 50.1742 122.914 50.115 123.188C50.0558 123.461 50.0052 123.737 49.9633 124.014C49.9215 124.29 49.8882 124.568 49.8622 124.847C49.8377 125.125 49.8218 125.403 49.8131 125.682C49.8059 125.962 49.8059 126.241 49.816 126.52C49.8247 126.799 49.8435 127.078 49.8695 127.356C49.8969 127.635 49.9316 127.912 49.9749 128.187C50.0182 128.464 50.0702 128.739 50.1309 129.013C50.1915 129.286 50.2608 129.558 50.3388 129.828C50.4154 130.097 50.502 130.364 50.5944 130.629C51.7888 133.897 54.9833 136.8 57.8977 138.912L34.06 148.942L4.57124 87.01C4.32284 86.498 4.19287 85.9616 4.18131 85.3994C4.16831 84.8372 4.27518 84.2967 4.50048 83.7765C4.70988 83.2537 5.01894 82.7892 5.4262 82.3832C5.8349 81.9758 6.31004 81.6593 6.85305 81.4339L8.71316 80.6422L15.5947 100.802C15.8503 101.265 16.168 101.691 16.545 102.073C16.9233 102.458 17.3494 102.788 17.8216 103.063C18.2939 103.339 18.7979 103.551 19.3308 103.699C19.8651 103.847 20.4096 103.926 20.9656 103.937C20.9656 103.937 26.4419 104.036 28.6891 100.108V100.043C29.1267 99.3234 29.4949 98.5752 29.7968 97.797C30.1001 97.0188 30.3297 96.223 30.4885 95.4082C30.646 94.5934 30.7312 93.7717 30.7413 92.9433C30.7514 92.1149 30.6878 91.292 30.5492 90.4744C30.0235 87.3061 28.5837 79.0247 27.9872 75.6921C29.391 74.9601 30.6792 74.0814 31.8562 73.0547C33.0317 72.0267 34.0586 70.8832 34.9381 69.6216L70.5704 54.6084C70.5704 54.6084 71.5539 54.0801 72.3251 54.2458C72.8276 54.4848 73.1916 54.8474 73.414 55.3336L84.4374 79.0247C84.5501 79.2882 84.7031 79.5286 84.8967 79.7458C85.0902 79.9631 85.314 80.1478 85.5697 80.2986C85.8238 80.4507 86.0982 80.5607 86.3914 80.6299C86.6831 80.7005 86.9792 80.7263 87.281 80.7073C87.5814 80.6883 87.8717 80.6286 88.1533 80.5281C88.4349 80.4276 88.6934 80.2904 88.9317 80.1179C89.1686 79.9441 89.3751 79.7418 89.5484 79.5109C89.7217 79.2787 89.8545 79.0288 89.9484 78.7613C90.0062 78.5575 90.0712 78.3552 90.1419 78.1556C90.2127 77.9559 90.2907 77.7577 90.3745 77.5621C90.4582 77.3679 90.5478 77.1737 90.6445 76.9836C90.7398 76.7934 90.8424 76.606 90.9507 76.4227C91.059 76.238 91.1745 76.056 91.2944 75.8781C91.4143 75.7002 91.5399 75.5264 91.6713 75.3566C91.8028 75.1855 91.9399 75.0185 92.0829 74.8555C92.2245 74.6926 92.3718 74.535 92.5248 74.3802C92.6779 74.2254 92.8353 74.076 92.9971 73.9307C93.1588 73.7854 93.3264 73.6455 93.4982 73.5097C93.6686 73.3739 93.8448 73.2422 94.0253 73.1172C94.2044 72.9909 94.3893 72.8714 94.577 72.756C94.7648 72.6405 94.9554 72.5319 95.1504 72.4273C95.3453 72.3228 95.5432 72.225 95.7454 72.1313C95.9461 72.0389 96.1497 71.952 96.3563 71.8705C96.5642 71.7904 96.7736 71.7144 96.9845 71.6451C97.1968 71.5772 97.4105 71.5134 97.6257 71.4563C97.8423 71.4006 98.0604 71.349 98.2785 71.3056C98.498 71.2608 98.7189 71.2227 98.9399 71.1915C99.1623 71.1589 99.3847 71.1345 99.6071 71.1155C99.831 71.0964 100.055 71.0829 100.279 71.0774C100.503 71.0706 100.726 71.072 100.95 71.0788C101.174 71.0856 101.398 71.0978 101.622 71.1182C101.844 71.1372 102.067 71.163 102.289 71.1956C102.51 71.2282 102.731 71.2662 102.949 71.311C103.168 71.3558 103.385 71.4074 103.602 71.4645C103.817 71.5215 104.031 71.5853 104.243 71.6546C104.454 71.7252 104.663 71.7999 104.87 71.8828C105.076 71.9642 105.28 72.0512 105.481 72.1449C105.683 72.2372 105.879 72.3363 106.074 72.4409C106.269 72.5455 106.46 72.6568 106.648 72.7723C106.835 72.8877 107.019 73.0086 107.198 73.1349C107.377 73.2612 107.553 73.3915 107.723 73.5274C107.895 73.6645 108.061 73.8044 108.223 73.9511C108.385 74.0964 108.542 74.2471 108.694 74.4019C108.847 74.5567 108.993 74.7156 109.136 74.8786C109.277 75.0416 109.413 75.2086 109.545 75.3797C109.676 75.5508 109.802 75.7247 109.92 75.9026C110.04 76.0818 110.154 76.2625 110.262 76.4471C110.369 76.6318 110.472 76.8193 110.567 77.0107C110.662 77.2009 110.752 77.3937 110.836 77.5893C110.919 77.7848 110.996 77.9831 111.065 78.1827C111.136 78.3837 111.2 78.5847 111.257 78.7884C111.314 78.9921 111.366 79.1972 111.409 79.4036C111.452 79.6114 111.49 79.8192 111.52 80.027C111.55 80.2361 111.575 80.4452 111.591 80.6557C111.608 80.8662 111.618 81.0754 111.621 81.2872C111.624 81.4977 111.621 81.7082 111.61 81.9187C111.6 82.1292 111.582 82.3383 111.558 82.5488C111.535 82.758 111.503 82.9658 111.465 83.1736C111.428 83.3813 111.383 83.5878 111.332 83.7928C111.282 83.9979 111.224 84.2016 111.159 84.4039C111.096 84.6063 111.025 84.8059 110.947 85.0028C110.87 85.2011 110.787 85.3967 110.697 85.5895C110.606 85.7824 110.511 85.9725 110.408 86.1599C110.306 86.3473 110.197 86.532 110.083 86.714C109.969 86.8946 109.849 87.0725 109.724 87.2463C109.598 87.4215 109.467 87.5913 109.329 87.7583C109.192 87.9254 109.051 88.0883 108.903 88.2472C108.756 88.4061 108.603 88.5609 108.446 88.7103C108.288 88.8597 108.126 89.005 107.959 89.1462C107.793 89.2875 107.621 89.4233 107.446 89.5537C107.27 89.684 107.089 89.8103 106.906 89.9312C106.723 90.0507 106.535 90.1661 106.343 90.2761C103.29 91.8936 97.9535 91.497 95.8118 91.2662C95.5316 91.2363 95.2529 91.2403 94.9756 91.2784C94.6969 91.3178 94.4283 91.3884 94.1698 91.4929C93.9113 91.5962 93.6715 91.7306 93.4491 91.8936C93.2282 92.0565 93.0318 92.2426 92.8628 92.4544C92.8628 92.487 91.8446 93.5762 92.5118 95.4571L102.939 117.3C103.033 117.504 103.096 117.717 103.129 117.937C103.161 118.157 103.163 118.378 103.132 118.6C103.101 118.82 103.038 119.033 102.946 119.238C102.854 119.443 102.734 119.633 102.586 119.807ZM164.304 123.338C164.12 123.935 163.852 124.496 163.496 125.02V125.087C163.496 125.087 162.442 126.703 161.214 128.485L160.793 129.112H118.841L118.49 128.782C117.817 128.109 117.212 127.385 116.674 126.611C116.137 125.837 115.675 125.026 115.289 124.176C114.902 123.326 114.598 122.451 114.375 121.551C114.153 120.652 114.014 119.74 113.961 118.817L144.364 106.905C143.697 108.027 143.064 109.215 142.468 110.404L146.295 112.086C147.066 110.535 147.909 109.017 148.786 107.565C149.686 106.112 150.832 104.859 152.227 103.805C153.238 103.023 154.339 102.374 155.527 101.858L157.071 101.264L156.826 99.7132C156.791 99.6793 156.686 98.954 156.475 97.8649C155.842 94.3014 154.509 86.5809 153.982 83.5457C153.786 82.3574 153.8 81.1731 154.03 79.9916C154.258 78.8088 154.687 77.6952 155.316 76.6495C155.539 76.3466 155.796 76.0737 156.088 75.8292C156.379 75.5848 156.697 75.377 157.042 75.2045C157.387 75.0321 157.75 74.9017 158.128 74.8107C158.508 74.7197 158.892 74.6735 159.284 74.6695C160.371 74.7021 160.827 75.2303 161.004 75.5603L167.182 93.6414L168.482 97.4358L170.236 102.617L164.304 123.338Z" fill="#121212"/>
</g>
</g>
</g>
<path id="Vector_3" d="M43.4033 156.863L47.1481 155.047L52.0092 163.902L48.2659 165.719L43.4033 156.863Z" fill="#121212"/>
<path id="Vector_4" d="M13.0146 164.063L17.8772 155.209L21.6205 157.024L16.7594 165.879L13.0146 164.063Z" fill="#121212"/>
<g id="Clip path group_2">
<mask id="mask1_315_1014" style="mask-type:luminance" maskUnits="userSpaceOnUse" x="29" y="160" width="6" height="11">
<g id="9ad2f5ad0c">
<path id="Vector_5" d="M29.9497 160.797H34.7559V171H29.9497V160.797Z" fill="white"/>
</g>
</mask>
<g mask="url(#mask1_315_1014)">
<g id="Group_2">
<path id="Vector_6" d="M30.1973 170.84L30.4558 160.878L34.667 160.975L34.4085 170.936L30.1973 170.84Z" fill="#121212"/>
</g>
</g>
</g>
<path id="Vector_7" d="M132.473 7.40409L136.216 5.58838L141.079 14.4428L137.334 16.2599L132.473 7.40409Z" fill="#121212"/>
<path id="Vector_8" d="M162.873 14.5775L167.735 5.72168L171.478 7.53875L166.616 16.3932L162.873 14.5775Z" fill="#121212"/>
<path id="Vector_9" d="M149.581 10.3902L149.841 0.428955L154.052 0.525376L153.792 10.4866L149.581 10.3902Z" fill="#121212"/>
</g>
</svg>
