<svg width="50" height="50" viewBox="0 0 50 50" fill="none" xmlns="http://www.w3.org/2000/svg">
<g id="Group 1000001942">
<g id="Icone">
<circle id="Ellipse 835" cx="25" cy="25" r="25" fill="#00A0D8"/>
<g id="Group">
<path id="Vector" d="M14.0395 10.0433C13.4765 10.2021 12.9636 10.6928 12.6946 11.3134L12.5382 11.6742L12.5194 15.7299L12.5007 19.7928H11.9001C11.5686 19.7928 11.187 19.8289 11.0431 19.8794C10.6991 19.9949 10.1798 20.5938 10.0798 20.9907C9.97341 21.4237 9.97341 38.3681 10.0798 38.8011C10.1798 39.198 10.6991 39.797 11.0431 39.9124C11.2433 39.9774 13.5766 39.999 21.027 39.999C32.0117 39.999 31.1171 40.0495 31.6051 39.4217C31.9429 38.9887 32.0242 38.6784 32.0242 37.8052V37.1124H33.6319H35.2395L37.6229 34.3702L40 31.6279V23.6753V15.7155L39.7873 15.2608C39.5496 14.7557 39.3557 14.5392 38.8803 14.2505L38.5612 14.0557L34.051 14.034L29.5345 14.0124L29.5095 12.8433L29.4907 11.6742L29.278 11.2196C29.0403 10.7144 28.8464 10.4979 28.371 10.2093L28.0519 10.0144L21.1396 10C17.3362 10 14.1459 10.0144 14.0395 10.0433ZM28.0582 11.3206C28.4585 11.6598 28.4898 11.768 28.5086 12.9371L28.5273 14.0124L26.5068 14.034C24.4988 14.0557 24.4863 14.0557 24.1735 14.2361C23.7731 14.4598 23.3978 14.8928 23.2039 15.3546L23.0475 15.7155L23.0287 19.1938L23.01 22.6794H19.7633H16.5105V21.9866C16.5105 21.1134 16.4291 20.8031 16.0913 20.3701C15.7097 19.8794 15.4533 19.7928 14.3711 19.7928H13.5078V15.9392C13.5078 13.3773 13.5328 12.0134 13.5766 11.8763C13.6642 11.6093 13.8706 11.3495 14.1021 11.234C14.2585 11.1546 15.5158 11.1402 21.0895 11.1546C27.8455 11.1691 27.8893 11.1691 28.0582 11.3206ZM38.5675 15.3619C38.6613 15.4412 38.7989 15.6 38.8677 15.7083C38.9991 15.9031 38.9991 15.9608 39.0179 23.3289L39.0304 30.7475L37.5166 30.7763C36.0465 30.798 35.9839 30.8052 35.6837 30.9784C35.2833 31.2021 34.908 31.6351 34.7141 32.097C34.5639 32.4433 34.5577 32.5155 34.5389 34.2114L34.5139 35.9578H33.269H32.0242V30.4732V24.9887H34.1198H36.2217L36.3718 24.8083C36.5782 24.5773 36.5782 24.2454 36.3718 24.0145L36.2217 23.834H34.0697H31.9116L31.8365 23.6176C31.7302 23.3145 31.2735 22.867 30.9733 22.766C30.7981 22.7011 29.7597 22.6794 27.3701 22.6794H24.0171V19.4031C24.0171 17.2526 24.0421 16.0546 24.0859 15.9175C24.1735 15.6505 24.3799 15.3907 24.6114 15.2753C24.7678 15.1959 26.0251 15.1815 31.5988 15.1959C38.3548 15.2103 38.3986 15.2103 38.5675 15.3619ZM15.3532 21.1279C15.5033 21.2938 15.5096 21.3299 15.5096 22.3907C15.5096 23.4516 15.5158 23.4877 15.666 23.6536L15.8161 23.834H23.2664H30.7168L30.8669 24.0145L31.0233 24.1877V31.3392V38.4908L30.8669 38.664L30.7168 38.8444H21.0144H11.3121L11.162 38.664L11.0056 38.4908V29.8959V21.3011L11.162 21.1279L11.3121 20.9474H13.2576H15.203L15.3532 21.1279ZM36.9348 33.5042L35.5586 35.0918L35.5398 34.0671C35.521 32.8403 35.5461 32.6382 35.7587 32.3423C36.034 31.9671 36.2029 31.9238 37.3101 31.9165H38.311L36.9348 33.5042Z" fill="white"/>
<path id="Vector_2" d="M15.6662 15.3546C15.5661 15.4629 15.5098 15.6144 15.5098 15.7515C15.5098 15.8887 15.5661 16.0402 15.6662 16.1484L15.8163 16.3289H19.0004C22.0343 16.3289 22.1969 16.3216 22.3346 16.1917C22.541 15.9969 22.541 15.5062 22.3346 15.3113C22.1969 15.1814 22.0343 15.1742 19.0004 15.1742H15.8163L15.6662 15.3546Z" fill="white"/>
<path id="Vector_3" d="M15.6662 18.8185C15.5661 18.9267 15.5098 19.0783 15.5098 19.2154C15.5098 19.3525 15.5661 19.5041 15.6662 19.6123L15.8163 19.7927H19.0004C22.0343 19.7927 22.1969 19.7855 22.3346 19.6556C22.541 19.4608 22.541 18.97 22.3346 18.7752C22.1969 18.6453 22.0343 18.6381 19.0004 18.6381H15.8163L15.6662 18.8185Z" fill="white"/>
<path id="Vector_4" d="M26.6759 19.9733C26.5758 20.0815 26.5195 20.2331 26.5195 20.3702C26.5195 20.5073 26.5758 20.6588 26.6759 20.7671L26.8261 20.9475H31.5115C36.0217 20.9475 36.2094 20.9403 36.347 20.8104C36.5534 20.6156 36.5534 20.1248 36.347 19.93C36.2094 19.8001 36.0217 19.7929 31.5115 19.7929H26.8261L26.6759 19.9733Z" fill="white"/>
<path id="Vector_5" d="M12.9701 34.3412C12.1506 34.6804 11.7878 35.8855 12.2195 36.802C12.4134 37.2134 12.7136 37.4876 13.1015 37.6175C13.2704 37.6752 13.9272 37.6896 15.1345 37.6752C16.9111 37.6536 16.9236 37.6536 17.2301 37.4732C17.5867 37.2567 17.9057 36.7371 17.9745 36.2463C18.0746 35.5319 17.7493 34.7525 17.2301 34.4422C16.9236 34.2618 16.9174 34.2618 15.072 34.2474C13.5706 34.2402 13.1765 34.2546 12.9701 34.3412ZM16.8298 35.5175C16.9424 35.6185 16.9799 35.7268 16.9799 35.9577C16.9799 36.1886 16.9424 36.2969 16.8298 36.3979C16.6984 36.5278 16.5608 36.535 15.0094 36.535C13.458 36.535 13.3204 36.5278 13.1891 36.3979C12.9826 36.203 12.9826 35.7123 13.1891 35.5175C13.3204 35.3876 13.458 35.3804 15.0094 35.3804C16.5608 35.3804 16.6984 35.3876 16.8298 35.5175Z" fill="white"/>
</g>
</g>
</g>
</svg>
