<svg width="41" height="45" viewBox="0 0 41 45" fill="none" xmlns="http://www.w3.org/2000/svg">
<g id="Group 1000002085">
<path id="Vector" d="M20.2078 26.2967C20.3758 26.2967 20.5435 26.2934 20.7113 26.2864C20.879 26.2795 21.0461 26.2689 21.2132 26.2551C21.3803 26.2412 21.5468 26.2237 21.713 26.2029C21.8792 26.1821 22.0445 26.1577 22.2092 26.13C22.3739 26.1022 22.5376 26.0711 22.7005 26.0367C22.8634 26.0023 23.025 25.9643 23.1857 25.9232C23.3465 25.8818 23.5057 25.8374 23.6637 25.7896C23.822 25.7415 23.9784 25.6904 24.1337 25.6362C24.2887 25.5818 24.4421 25.5242 24.594 25.4636C24.7456 25.4027 24.8954 25.339 25.0437 25.2719C25.1917 25.2052 25.3378 25.135 25.4819 25.0621C25.6259 24.9891 25.7675 24.9131 25.9072 24.8342C26.0467 24.7553 26.184 24.6734 26.3189 24.5889C26.4535 24.5043 26.586 24.417 26.7157 24.3268C26.8455 24.2367 26.9725 24.1439 27.0971 24.0486C27.2213 23.9531 27.3429 23.8552 27.4617 23.7547C27.5805 23.6543 27.6962 23.5515 27.809 23.4462C27.9217 23.3411 28.0314 23.2335 28.1377 23.1238C28.2444 23.0139 28.3477 22.9021 28.4476 22.7878C28.5476 22.6737 28.6442 22.5576 28.7375 22.4397C28.8308 22.3215 28.9204 22.2016 29.007 22.0798C29.0933 21.958 29.1759 21.8345 29.2549 21.7091C29.3342 21.5837 29.4096 21.4571 29.4813 21.3286C29.5533 21.2002 29.6214 21.0705 29.6855 20.9392C29.7496 20.8079 29.8101 20.6754 29.8666 20.5418C29.9234 20.4079 29.976 20.2731 30.0246 20.1372C30.0735 20.0013 30.1182 19.8644 30.1589 19.7267C30.1996 19.589 30.2363 19.4505 30.2692 19.311C30.302 19.1718 30.3308 19.0318 30.3555 18.8912C30.3801 18.751 30.4004 18.6099 30.4168 18.4687C30.4335 18.3271 30.4457 18.1856 30.4539 18.0438C30.4621 17.9019 30.4664 17.7599 30.4664 17.6178C30.4664 17.4758 30.4621 17.334 30.4539 17.1922C30.4457 17.0501 30.4335 16.9085 30.4168 16.7673C30.4004 16.626 30.3801 16.4849 30.3555 16.3444C30.3308 16.2039 30.302 16.0641 30.2692 15.9246C30.2363 15.7854 30.1996 15.6469 30.1589 15.509C30.1182 15.3713 30.0735 15.2344 30.0246 15.0985C29.976 14.9626 29.9234 14.8277 29.8666 14.6941C29.8101 14.5603 29.7496 14.4277 29.6855 14.2967C29.6214 14.1654 29.5533 14.0357 29.4813 13.9073C29.4096 13.7788 29.3342 13.6519 29.2549 13.5268C29.1759 13.4014 29.0933 13.2779 29.007 13.1561C28.9204 13.0343 28.8308 12.9144 28.7375 12.7962C28.6442 12.678 28.5476 12.5619 28.4476 12.4479C28.3477 12.3338 28.2444 12.2218 28.1377 12.1121C28.0314 12.0022 27.9217 11.8948 27.809 11.7894C27.6962 11.6844 27.5805 11.5814 27.4617 11.4809C27.3429 11.3805 27.2213 11.2826 27.0971 11.1873C26.9725 11.092 26.8455 10.9992 26.7157 10.9091C26.586 10.8189 26.4535 10.7316 26.3189 10.647C26.184 10.5623 26.0467 10.4806 25.9072 10.4017C25.7675 10.3228 25.6259 10.2468 25.4819 10.1738C25.3378 10.1006 25.1917 10.0308 25.0437 9.96371C24.8954 9.89692 24.7456 9.83295 24.594 9.77232C24.4421 9.71144 24.2887 9.6539 24.1337 9.59969C23.9784 9.54523 23.822 9.49411 23.6637 9.44633C23.5057 9.39855 23.3465 9.35385 23.1857 9.31274C23.025 9.27138 22.8634 9.23362 22.7005 9.1992C22.5376 9.16452 22.3739 9.13343 22.2092 9.10569C22.0445 9.07794 21.8792 9.0538 21.713 9.03299C21.5468 9.01218 21.3803 8.99471 21.2132 8.98084C21.0461 8.96697 20.879 8.95643 20.7113 8.9495C20.5435 8.94256 20.3758 8.93896 20.2078 8.93896C20.0398 8.93896 19.872 8.94256 19.7043 8.9495C19.5366 8.95643 19.3695 8.96697 19.2024 8.98084C19.0353 8.99471 18.8688 9.01218 18.7026 9.03299C18.5364 9.0538 18.3711 9.07794 18.2064 9.10569C18.0417 9.13343 17.8779 9.16452 17.7151 9.1992C17.5522 9.23362 17.3906 9.27138 17.2298 9.31274C17.0691 9.35385 16.9099 9.39855 16.7519 9.44633C16.5936 9.49411 16.4371 9.54523 16.2819 9.59969C16.1269 9.6539 15.9735 9.71144 15.8215 9.77232C15.6699 9.83295 15.5201 9.89692 15.3719 9.96371C15.2239 10.0308 15.0777 10.1006 14.9337 10.1738C14.7897 10.2468 14.6481 10.3228 14.5083 10.4017C14.3689 10.4806 14.2315 10.5623 14.0966 10.647C13.962 10.7316 13.8296 10.8189 13.6998 10.9091C13.5701 10.9992 13.4431 11.092 13.3185 11.1873C13.1942 11.2826 13.0727 11.3805 12.9539 11.4809C12.8351 11.5814 12.7193 11.6844 12.6066 11.7894C12.4939 11.8948 12.3842 12.0022 12.2779 12.1121C12.1712 12.2218 12.0679 12.3338 11.9679 12.4479C11.868 12.5619 11.7714 12.678 11.6781 12.7962C11.5848 12.9144 11.4952 13.0343 11.4086 13.1561C11.3223 13.2779 11.2396 13.4014 11.1606 13.5268C11.0813 13.6519 11.006 13.7788 10.9343 13.9073C10.8623 14.0357 10.7942 14.1654 10.7301 14.2967C10.666 14.4277 10.6055 14.5603 10.549 14.6941C10.4922 14.8277 10.4396 14.9626 10.391 15.0985C10.3421 15.2344 10.2974 15.3713 10.2567 15.509C10.216 15.6469 10.1792 15.7854 10.1464 15.9246C10.1136 16.0641 10.0847 16.2039 10.0601 16.3444C10.0355 16.4849 10.0152 16.626 9.99874 16.7673C9.98203 16.9085 9.96988 17.0501 9.96168 17.1922C9.95347 17.334 9.94922 17.4758 9.94922 17.6178C9.95013 17.7596 9.9553 17.9014 9.96471 18.043C9.97383 18.1845 9.98689 18.3258 10.0042 18.4669C10.0218 18.6079 10.0431 18.7484 10.0686 18.8887C10.0938 19.0289 10.1233 19.1684 10.1567 19.3074C10.1902 19.4464 10.2278 19.5843 10.2692 19.7218C10.3105 19.8592 10.3558 19.9956 10.4053 20.1313C10.4545 20.2669 10.5077 20.4013 10.5645 20.5346C10.6216 20.6679 10.6824 20.8 10.7471 20.9307C10.8118 21.0617 10.8799 21.1912 10.9522 21.3191C11.0242 21.4471 11.0999 21.5735 11.1792 21.6986C11.2585 21.8234 11.3414 21.9465 11.428 22.068C11.5143 22.1895 11.6042 22.3092 11.6975 22.4269C11.7908 22.5448 11.8877 22.6604 11.9877 22.7742C12.0876 22.888 12.191 22.9997 12.2973 23.1094C12.4036 23.2189 12.5133 23.3262 12.6258 23.4311C12.7385 23.5361 12.8539 23.6389 12.9724 23.7391C13.0909 23.8393 13.2122 23.9371 13.3364 24.0324C13.4607 24.1277 13.5874 24.2202 13.7168 24.3104C13.8463 24.4003 13.9784 24.4877 14.1127 24.5724C14.2473 24.6569 14.3844 24.7386 14.5235 24.8178C14.6627 24.8966 14.804 24.9727 14.9477 25.0459C15.0911 25.1188 15.237 25.189 15.3846 25.2563C15.532 25.3233 15.6815 25.3873 15.8328 25.4484C15.9841 25.5093 16.1372 25.5671 16.2919 25.6218C16.4465 25.6765 16.6027 25.7279 16.7604 25.7762C16.9178 25.8245 17.0767 25.8695 17.2368 25.9111C17.3973 25.9527 17.5586 25.991 17.7209 26.0262C17.8834 26.0611 18.0466 26.093 18.2109 26.1212C18.375 26.1495 18.54 26.1744 18.7056 26.196C18.8715 26.2173 19.0377 26.2355 19.2042 26.2502C19.371 26.2648 19.5381 26.2761 19.7052 26.2838C19.8727 26.2916 20.0401 26.2959 20.2078 26.2967ZM20.2078 24.8214C20.0674 24.8214 19.9273 24.8185 19.7873 24.8126C19.6472 24.8067 19.5074 24.798 19.368 24.7864C19.2285 24.7749 19.0894 24.7602 18.9505 24.743C18.8119 24.7255 18.6737 24.7052 18.5361 24.6821C18.3987 24.659 18.2617 24.6328 18.1259 24.604C17.9898 24.5753 17.8545 24.5437 17.7205 24.5092C17.5863 24.4748 17.4532 24.4376 17.321 24.3975C17.1891 24.3574 17.0582 24.3148 16.9287 24.2693C16.7993 24.2241 16.6711 24.1758 16.5444 24.1252C16.4177 24.0743 16.2922 24.0211 16.1685 23.9651C16.0449 23.9091 15.923 23.8508 15.8027 23.7897C15.6824 23.7288 15.5642 23.6653 15.4475 23.5993C15.3308 23.5333 15.2163 23.465 15.1036 23.3943C14.9911 23.3237 14.8806 23.2507 14.7721 23.1754C14.6639 23.1002 14.5576 23.0226 14.4537 22.943C14.35 22.8633 14.2483 22.7814 14.1492 22.6976C14.0502 22.6136 13.9535 22.5278 13.8593 22.4397C13.7652 22.3518 13.6737 22.2619 13.5847 22.1702C13.4956 22.0785 13.4097 21.985 13.3261 21.8897C13.2425 21.7944 13.162 21.6975 13.0839 21.5989C13.0062 21.5 12.9311 21.3998 12.8591 21.2981C12.7871 21.1963 12.7181 21.0931 12.6519 20.9885C12.5859 20.8837 12.5231 20.7779 12.4629 20.6705C12.403 20.5634 12.3462 20.4549 12.2927 20.3453C12.239 20.2356 12.1888 20.1248 12.1414 20.0134C12.0943 19.9016 12.0503 19.7888 12.0099 19.6753C11.9692 19.5617 11.9318 19.4474 11.8977 19.3323C11.8637 19.2172 11.833 19.1016 11.8057 18.9853C11.7783 18.8689 11.7546 18.752 11.734 18.6346C11.7136 18.5172 11.6963 18.3996 11.6826 18.2814C11.669 18.1635 11.6589 18.045 11.6519 17.9266C11.6453 17.8082 11.6419 17.6895 11.6419 17.5708C11.6419 17.4521 11.6456 17.3337 11.6525 17.2153C11.6592 17.0966 11.6699 16.9784 11.6835 16.8603C11.6975 16.7423 11.7145 16.6247 11.7352 16.5073C11.7559 16.3899 11.7799 16.273 11.8075 16.1566C11.8349 16.0402 11.8655 15.9246 11.8999 15.8096C11.9339 15.6945 11.9713 15.5802 12.0123 15.4666C12.053 15.3533 12.0971 15.2405 12.1445 15.1291C12.1916 15.0173 12.2423 14.9066 12.2961 14.7971C12.3499 14.6875 12.4067 14.579 12.4665 14.4719C12.5267 14.3645 12.5899 14.2587 12.6561 14.1541C12.7221 14.0496 12.7913 13.9463 12.8637 13.8446C12.9357 13.7429 13.0107 13.6429 13.0888 13.5443C13.1669 13.4456 13.2477 13.3488 13.3313 13.2535C13.4148 13.1582 13.5011 13.0647 13.5901 12.9732C13.6792 12.8815 13.7709 12.7916 13.8651 12.704C13.9593 12.6161 14.0562 12.5301 14.1553 12.4463C14.2546 12.3626 14.3561 12.2809 14.46 12.2012C14.5643 12.1216 14.6703 12.0443 14.7788 11.969C14.8872 11.8937 14.9978 11.821 15.1106 11.7504C15.2233 11.6798 15.3378 11.6114 15.4545 11.5457C15.5712 11.4799 15.6897 11.4164 15.81 11.3556C15.9303 11.2947 16.0525 11.2364 16.1761 11.1804C16.3001 11.1246 16.4253 11.0714 16.552 11.0208C16.679 10.9702 16.8072 10.9222 16.9366 10.877C17.0664 10.8315 17.197 10.7888 17.3292 10.749C17.4614 10.7092 17.5945 10.6722 17.7288 10.6378C17.863 10.6034 17.998 10.572 18.1341 10.5433C18.2702 10.5145 18.4069 10.4885 18.5446 10.4657C18.6822 10.4426 18.8201 10.4223 18.959 10.4051C19.0979 10.3878 19.237 10.3735 19.3765 10.3619C19.5159 10.3503 19.6557 10.3416 19.7958 10.3359C19.9359 10.3303 20.0762 10.3275 20.2163 10.3277C20.3567 10.3277 20.4967 10.3308 20.6368 10.3367C20.7769 10.3426 20.9166 10.3516 21.0561 10.3632C21.1959 10.375 21.3347 10.3896 21.4736 10.4071C21.6121 10.4248 21.7504 10.4451 21.8877 10.4685C22.0254 10.4916 22.1621 10.5178 22.2982 10.5466C22.434 10.5756 22.5692 10.6075 22.7032 10.6419C22.8375 10.6766 22.9706 10.7138 23.1025 10.7539C23.2343 10.794 23.3653 10.8369 23.4947 10.8824C23.6242 10.9278 23.7524 10.9761 23.8791 11.027C24.0058 11.0779 24.131 11.1313 24.2543 11.1873C24.378 11.2433 24.4998 11.3019 24.6202 11.363C24.7405 11.4241 24.8587 11.4876 24.9753 11.5536C25.0917 11.6196 25.2063 11.6882 25.3187 11.7589C25.4314 11.8298 25.5417 11.9027 25.6499 11.9783C25.7583 12.0535 25.8644 12.1311 25.968 12.211C26.0719 12.2906 26.1734 12.3726 26.2724 12.4566C26.3715 12.5406 26.4678 12.6267 26.562 12.7145C26.6559 12.8026 26.7473 12.8925 26.8364 12.9843C26.9251 13.0762 27.0111 13.1697 27.0946 13.265C27.1779 13.3603 27.2587 13.4574 27.3362 13.5564C27.414 13.655 27.489 13.7552 27.5607 13.8572C27.6327 13.9589 27.7017 14.0622 27.7676 14.167C27.8336 14.2715 27.8965 14.3776 27.9563 14.485C28.0162 14.5924 28.0727 14.7008 28.1262 14.8105C28.1797 14.9202 28.2298 15.0309 28.2769 15.1427C28.324 15.2544 28.3677 15.3669 28.4084 15.4805C28.4489 15.5943 28.4859 15.7086 28.52 15.8237C28.5537 15.9388 28.5844 16.0546 28.6114 16.171C28.6388 16.2874 28.6625 16.4043 28.6828 16.5217C28.7032 16.6391 28.7202 16.7567 28.7336 16.8746C28.7472 16.9928 28.7573 17.1112 28.7639 17.2297C28.7706 17.3481 28.774 17.4668 28.7737 17.5855C28.7737 17.7039 28.7703 17.8223 28.7633 17.9407C28.7566 18.0592 28.7463 18.1773 28.7323 18.2953C28.7187 18.4132 28.7017 18.5308 28.681 18.6482C28.6603 18.7654 28.6363 18.882 28.609 18.9984C28.5816 19.1147 28.5509 19.2303 28.5169 19.3452C28.4829 19.4603 28.4455 19.5743 28.4048 19.6879C28.3641 19.8012 28.32 19.9137 28.2726 20.0254C28.2255 20.1369 28.1751 20.2474 28.1213 20.3571C28.0678 20.4665 28.011 20.5747 27.9509 20.682C27.891 20.7892 27.8281 20.895 27.7619 20.9993C27.6956 21.1039 27.6267 21.2069 27.5547 21.3086C27.4823 21.4103 27.4076 21.5103 27.3295 21.6089C27.2517 21.7073 27.1709 21.8041 27.0873 21.8995C27.0038 21.9945 26.9175 22.088 26.8288 22.1795C26.7398 22.2712 26.6483 22.3608 26.5541 22.4484C26.4599 22.5363 26.3633 22.6221 26.2639 22.7058C26.1649 22.7896 26.0634 22.8713 25.9595 22.9507C25.8556 23.0303 25.7495 23.1076 25.6411 23.1826C25.5326 23.2579 25.4223 23.3306 25.3096 23.4013C25.1968 23.4716 25.0823 23.54 24.9659 23.6057C24.8493 23.6715 24.7308 23.7347 24.6104 23.7956C24.4904 23.8565 24.3683 23.9148 24.2446 23.9705C24.1213 24.0263 23.9961 24.0794 23.8691 24.1301C23.7424 24.1807 23.6144 24.2284 23.4847 24.2737C23.3553 24.3189 23.2246 24.3615 23.0928 24.4013C22.9606 24.4412 22.8275 24.4781 22.6935 24.5123C22.5592 24.5467 22.4243 24.5781 22.2885 24.6068C22.1524 24.6354 22.0156 24.6613 21.8783 24.6842C21.7407 24.7073 21.6027 24.7273 21.4642 24.7445C21.3256 24.7618 21.1865 24.7761 21.047 24.7874C20.9075 24.799 20.7678 24.8075 20.628 24.8131C20.4879 24.8188 20.3479 24.8216 20.2078 24.8214Z" fill="white"/>
<path id="Vector_2" d="M24.4013 15.2423H22.5804C22.5546 15.2526 22.5291 15.2526 22.5032 15.2423L21.9393 13.7778C21.9104 13.7007 21.8749 13.6259 21.8321 13.5535C21.7895 13.481 21.7403 13.4122 21.6847 13.3464C21.6291 13.2807 21.5677 13.219 21.5003 13.1615C21.4331 13.1039 21.3611 13.0513 21.2839 13.0035C21.2071 12.9557 21.1259 12.9133 21.0409 12.8763C20.9558 12.8393 20.868 12.8082 20.7771 12.7831C20.6863 12.7579 20.5936 12.7389 20.4994 12.7263C20.4049 12.7135 20.3101 12.707 20.2144 12.707C20.119 12.707 20.0239 12.7135 19.9294 12.7263C19.8352 12.7389 19.7425 12.7579 19.6517 12.7831C19.5608 12.8082 19.473 12.8393 19.388 12.8763C19.3029 12.9133 19.2221 12.9557 19.1449 13.0035C19.0677 13.0513 18.9957 13.1039 18.9286 13.1615C18.8614 13.219 18.8 13.2807 18.7441 13.3464C18.6885 13.4122 18.6396 13.481 18.5968 13.5535C18.5542 13.6259 18.5184 13.7007 18.4898 13.7778L17.9256 15.1881C17.8997 15.1968 17.8742 15.1968 17.8487 15.1881H16.0278C15.9318 15.1876 15.8367 15.1935 15.7419 15.2058C15.6474 15.2182 15.5544 15.2367 15.4632 15.2616C15.3718 15.2862 15.2837 15.3168 15.198 15.3533C15.1126 15.3898 15.0309 15.4319 14.9534 15.4792C14.8756 15.5267 14.8027 15.5788 14.7349 15.6361C14.6669 15.6932 14.6046 15.7545 14.5484 15.8198C14.4919 15.8853 14.4417 15.9542 14.398 16.0261C14.3542 16.0983 14.3178 16.173 14.288 16.2498C14.2582 16.3269 14.2357 16.4055 14.2205 16.4854C14.2053 16.5656 14.1978 16.646 14.1978 16.7271C14.1978 16.8081 14.205 16.8887 14.2199 16.9686C14.2348 17.0488 14.2573 17.1274 14.2868 17.2045C14.3163 17.2815 14.353 17.356 14.3965 17.4282C14.4399 17.5004 14.4897 17.5692 14.5463 17.6347C14.6025 17.7003 14.6648 17.7617 14.7325 17.8189C14.8003 17.8762 14.8729 17.9286 14.9504 17.9762L16.4252 18.8766C16.4352 18.902 16.4352 18.9272 16.4252 18.9526L15.861 20.4279C15.8297 20.5042 15.806 20.5821 15.7896 20.6615C15.7735 20.7411 15.7647 20.8212 15.7637 20.9019C15.7628 20.9826 15.7695 21.0627 15.7838 21.1426C15.7981 21.2223 15.82 21.3006 15.8491 21.3774C15.8786 21.4542 15.9148 21.5285 15.9585 21.6004C16.002 21.6723 16.0518 21.7407 16.1086 21.8057C16.1651 21.8706 16.2274 21.9313 16.2958 21.9878C16.3638 22.0441 16.4371 22.0957 16.5148 22.1419C16.6692 22.2385 16.8372 22.3128 17.0189 22.3644C17.2006 22.4163 17.3875 22.4435 17.5792 22.4458C17.773 22.4427 17.9617 22.4155 18.1453 22.3636C18.3291 22.3117 18.4995 22.238 18.6563 22.1419L20.1312 21.2307H20.2208L21.6956 22.1419C21.8497 22.2385 22.0177 22.3128 22.1994 22.3644C22.3814 22.4163 22.568 22.4435 22.76 22.4458C22.9535 22.4427 23.1422 22.4155 23.326 22.3636C23.5096 22.3117 23.68 22.238 23.8371 22.1419C23.9158 22.0983 23.9896 22.0494 24.0595 21.9958C24.1291 21.9421 24.1932 21.884 24.2518 21.8218C24.3108 21.7597 24.3633 21.6939 24.4101 21.6245C24.4566 21.5554 24.4964 21.4835 24.5295 21.4088C24.563 21.3343 24.5888 21.258 24.6079 21.1799C24.6271 21.102 24.6386 21.0232 24.6429 20.9435C24.6471 20.8639 24.6441 20.7845 24.6338 20.7054C24.6234 20.6263 24.6058 20.5482 24.5806 20.4714L24.0167 19.0068C23.9993 18.9814 23.9993 18.9562 24.0167 18.9308L25.4912 18.0304C25.5702 17.9821 25.644 17.9286 25.7127 17.8703C25.7814 17.812 25.844 17.7493 25.9008 17.6823C25.9576 17.6152 26.0074 17.5448 26.0509 17.4711C26.094 17.3974 26.1302 17.3211 26.1587 17.2422C26.1876 17.1636 26.2086 17.0835 26.2219 17.0018C26.2356 16.9201 26.2411 16.8381 26.239 16.7557C26.2365 16.6735 26.2265 16.5918 26.2086 16.5106C26.1906 16.4297 26.1654 16.3505 26.1323 16.273C26.1019 16.1972 26.0649 16.124 26.0208 16.0531C25.9767 15.9824 25.9263 15.9151 25.8698 15.8509C25.813 15.7869 25.751 15.7271 25.6832 15.6713C25.6152 15.6156 25.5429 15.5647 25.4654 15.5187C25.3882 15.4727 25.3071 15.4321 25.2223 15.397C25.1372 15.3618 25.0497 15.3325 24.9592 15.3091C24.8689 15.2855 24.7769 15.2683 24.6833 15.2569C24.5897 15.2459 24.4958 15.241 24.4013 15.2423ZM24.4013 16.8371L22.9265 17.7483C22.8493 17.7953 22.777 17.8472 22.7095 17.904C22.6421 17.9607 22.5801 18.0216 22.5242 18.0866C22.4683 18.1519 22.4185 18.2202 22.3753 18.2919C22.3322 18.3638 22.296 18.4378 22.2668 18.5146C22.2377 18.5912 22.2158 18.6693 22.2012 18.7486C22.1866 18.8283 22.1796 18.9084 22.1799 18.9888C22.1806 19.0692 22.1885 19.1494 22.204 19.2288C22.2194 19.3081 22.2425 19.386 22.2726 19.4623L22.8369 20.9271C22.8369 20.9271 22.8369 20.9813 22.8369 21.0029L21.362 20.1025C21.2845 20.0552 21.2031 20.0136 21.118 19.9771C21.0326 19.9406 20.9448 19.91 20.854 19.8854C20.7631 19.8605 20.6705 19.842 20.576 19.8294C20.4818 19.8168 20.387 19.8106 20.2913 19.8106C20.1959 19.8106 20.1011 19.8168 20.0066 19.8294C19.9124 19.842 19.8197 19.8605 19.7289 19.8854C19.638 19.91 19.5499 19.9406 19.4648 19.9771C19.3795 20.0136 19.298 20.0552 19.2205 20.1025L17.746 21.0029C17.746 21.0029 17.746 20.9487 17.746 20.9271L18.1693 19.4623C18.1993 19.386 18.2221 19.3081 18.2376 19.2288C18.2531 19.1494 18.2613 19.0692 18.2616 18.9888C18.2622 18.9084 18.2552 18.8283 18.2407 18.7486C18.2261 18.6693 18.2042 18.5912 18.175 18.5146C18.1456 18.4378 18.1094 18.3638 18.0663 18.2919C18.0231 18.2202 17.9736 18.1519 17.9174 18.0866C17.8615 18.0216 17.7998 17.9607 17.7323 17.904C17.6649 17.8472 17.5923 17.7953 17.5151 17.7483L16.0405 16.8371V16.7611C16.0405 16.7611 16.0405 16.7611 16.1174 16.7611H17.9383C18.0343 16.7598 18.1298 16.7523 18.2242 16.7387C18.319 16.7248 18.4117 16.7051 18.5029 16.6788C18.5937 16.6529 18.6818 16.621 18.7669 16.5833C18.852 16.5458 18.9331 16.5026 19.0103 16.4543C19.0875 16.406 19.1598 16.3529 19.2272 16.2951C19.2944 16.237 19.3561 16.1751 19.412 16.1091C19.4679 16.043 19.5177 15.9737 19.5608 15.9012C19.604 15.8285 19.6401 15.7535 19.6693 15.6762L20.2208 14.2117C20.2466 14.1991 20.2721 14.1991 20.2977 14.2117H20.3748L20.9391 15.6762C20.9679 15.7538 21.0038 15.829 21.0466 15.9017C21.0895 15.9747 21.139 16.0441 21.1946 16.1103C21.2505 16.1766 21.3122 16.2388 21.3793 16.2968C21.4468 16.3546 21.5191 16.4081 21.5963 16.4564C21.6737 16.5049 21.7549 16.5478 21.8403 16.5853C21.9253 16.6231 22.0134 16.6547 22.1046 16.6806C22.1957 16.7066 22.2887 16.7261 22.3835 16.7397C22.4786 16.7531 22.574 16.7603 22.67 16.7611H24.491C24.5025 16.7539 24.5153 16.7503 24.5295 16.7503C24.5438 16.7503 24.5566 16.7539 24.5678 16.7611L24.4524 16.8371H24.4013Z" fill="white"/>
<path id="Vector_3" d="M35.1339 19.7118L34.5183 18.117C34.4518 17.9405 34.4184 17.7597 34.4184 17.5745C34.4184 17.3892 34.4518 17.2086 34.5183 17.0322L35.1339 15.4266C35.1619 15.3482 35.1865 15.2691 35.2074 15.1892C35.2281 15.1096 35.2454 15.0292 35.2588 14.948C35.2725 14.8671 35.2822 14.7859 35.2886 14.7042C35.2946 14.6225 35.2971 14.5408 35.2959 14.4591C35.2943 14.3772 35.2895 14.2957 35.2807 14.2143C35.2722 14.1329 35.2597 14.0517 35.2436 13.971C35.2275 13.8904 35.2077 13.8105 35.1843 13.7311C35.1612 13.6517 35.1342 13.5731 35.1038 13.4955C35.0731 13.4179 35.0391 13.3414 35.0017 13.2661C34.9644 13.1906 34.9236 13.1166 34.8793 13.0439C34.8352 12.9709 34.7878 12.8998 34.7371 12.8302C34.6863 12.7606 34.6329 12.6925 34.5761 12.6265C34.5192 12.5602 34.4594 12.496 34.3968 12.4338C34.3339 12.3716 34.2686 12.3112 34.2005 12.2534C34.1324 12.1954 34.0617 12.1396 33.9884 12.0862C33.9152 12.0328 33.8398 11.9819 33.7618 11.9334L32.159 10.9461C31.984 10.8382 31.833 10.7103 31.706 10.5618C31.579 10.4136 31.482 10.2525 31.4152 10.0781L30.7996 8.48355C30.7689 8.40468 30.7346 8.32684 30.6969 8.25029C30.6589 8.17374 30.6173 8.09847 30.5723 8.02474C30.5277 7.95101 30.4794 7.87882 30.4274 7.80818C30.3758 7.73753 30.3211 7.66868 30.263 7.60189C30.2047 7.53484 30.1436 7.47011 30.0795 7.40717C30.0154 7.34449 29.9486 7.28386 29.8787 7.22554C29.8088 7.16697 29.7365 7.11123 29.6614 7.05754C29.5864 7.0041 29.5092 6.95298 29.4293 6.90469C29.3497 6.85639 29.2677 6.81066 29.1838 6.76776C29.0996 6.72486 29.0136 6.68479 28.9261 6.64779C28.8383 6.61054 28.749 6.57638 28.6578 6.54504C28.567 6.51395 28.4749 6.48569 28.3814 6.46077C28.2878 6.4356 28.193 6.41376 28.0976 6.39501C28.0019 6.37626 27.9055 6.36084 27.8086 6.34851C27.7114 6.33618 27.6139 6.32719 27.516 6.32128C27.4182 6.31537 27.32 6.31306 27.2219 6.31358H25.2345C25.0206 6.31306 24.8118 6.2848 24.6083 6.22931C24.4047 6.17383 24.216 6.09342 24.0419 5.98835L22.4261 4.99006C22.1055 4.78661 21.7558 4.62913 21.3772 4.5179C20.9983 4.40692 20.6085 4.34732 20.2077 4.33936C19.8115 4.33987 19.425 4.39228 19.0483 4.49606C18.6715 4.59959 18.323 4.74987 18.0022 4.94665L16.3863 5.94493C16.2125 6.05 16.0236 6.13041 15.82 6.1859C15.6164 6.24165 15.4077 6.26965 15.1938 6.27042H13.2063C13.1082 6.26965 13.0101 6.27222 12.9122 6.27787C12.8144 6.28378 12.7169 6.29277 12.6199 6.3051C12.5227 6.31743 12.4264 6.33284 12.3307 6.3516C12.2353 6.37035 12.1408 6.39218 12.0472 6.41736C11.9536 6.44228 11.8612 6.47054 11.7704 6.50162C11.6792 6.53296 11.5899 6.56713 11.5024 6.60438C11.4146 6.64137 11.3286 6.68145 11.2447 6.72435C11.1606 6.76725 11.0788 6.81297 10.9989 6.86127C10.9193 6.90982 10.8419 6.96069 10.7668 7.01412C10.6918 7.06781 10.6194 7.12356 10.5496 7.18213C10.48 7.24044 10.4128 7.30107 10.3487 7.36375C10.2846 7.42669 10.2235 7.49169 10.1655 7.55848C10.1072 7.62553 10.0525 7.69412 10.0008 7.76476C9.94917 7.83541 9.90086 7.90759 9.85589 7.98132C9.81092 8.05505 9.7693 8.13032 9.73162 8.20687C9.69364 8.28343 9.65931 8.36127 9.62862 8.44013L9.01304 10.0347C8.94376 10.2078 8.84562 10.3684 8.71892 10.5163C8.59191 10.6643 8.44212 10.793 8.26924 10.9027L6.62789 11.9334C6.55102 11.9829 6.47658 12.0351 6.40457 12.0895C6.33256 12.144 6.26298 12.2008 6.19613 12.2599C6.12898 12.319 6.06518 12.3801 6.0038 12.4433C5.94243 12.5067 5.88409 12.572 5.82879 12.639C5.77349 12.7061 5.72123 12.7749 5.67231 12.8453C5.62339 12.916 5.57751 12.9879 5.53498 13.0614C5.49274 13.1348 5.45355 13.2096 5.418 13.2859C5.38245 13.3619 5.35054 13.439 5.32198 13.5171C5.29342 13.5952 5.26851 13.6743 5.24724 13.7542C5.22597 13.8339 5.20835 13.9143 5.19437 13.9952C5.18039 14.0761 5.17037 14.1575 5.16368 14.2392C5.1573 14.3207 5.15457 14.4024 5.15548 14.4843C5.15669 14.566 5.16125 14.6477 5.16976 14.7291C5.17827 14.8108 5.19042 14.8917 5.20652 14.9724C5.22232 15.0531 5.24177 15.1332 5.26516 15.2126C5.28826 15.292 5.3153 15.3706 5.34568 15.4482L5.96126 17.0537C6.0278 17.2302 6.06123 17.4111 6.06123 17.5963C6.06123 17.7815 6.0278 17.9624 5.96126 18.1386L5.34568 19.7118C5.31378 19.7902 5.28552 19.8693 5.26091 19.9497C5.2363 20.0298 5.21564 20.1108 5.19862 20.1925C5.18161 20.2739 5.16824 20.3561 5.15882 20.4386C5.1494 20.521 5.14393 20.6037 5.14211 20.6865C5.14059 20.7694 5.14241 20.8522 5.14849 20.9349C5.15457 21.0176 5.16429 21.1001 5.17766 21.1823C5.19133 21.2642 5.20865 21.3456 5.22992 21.4266C5.25088 21.5075 5.2758 21.5876 5.30436 21.667C5.33292 21.7461 5.36513 21.8245 5.40098 21.9016C5.43683 21.9786 5.47603 22.0544 5.51887 22.1289C5.56171 22.2037 5.6082 22.2766 5.65773 22.348C5.70725 22.4195 5.76012 22.4891 5.81633 22.5572C5.87224 22.625 5.93149 22.691 5.99377 22.755C6.05606 22.8189 6.12108 22.8808 6.18914 22.9407C6.2569 23.0003 6.32769 23.0576 6.40092 23.1126C6.47415 23.1675 6.5498 23.2202 6.62789 23.27L8.23095 24.2681C8.40505 24.3744 8.55576 24.5005 8.68276 24.647C8.80977 24.7934 8.907 24.9527 8.97475 25.1253L9.59003 26.7198C9.62072 26.7987 9.65505 26.8765 9.69303 26.9531C9.73101 27.0297 9.77234 27.1049 9.8173 27.1787C9.86227 27.2524 9.91058 27.3246 9.96224 27.3952C10.0139 27.4659 10.0689 27.5344 10.1269 27.6015C10.185 27.6683 10.246 27.7333 10.3101 27.7962C10.3745 27.8589 10.4414 27.9195 10.5113 27.9778C10.5809 28.0364 10.6535 28.0922 10.7282 28.1459C10.8033 28.1993 10.8807 28.2502 10.9607 28.2987C11.0403 28.347 11.1223 28.3927 11.2062 28.4356C11.2903 28.4785 11.376 28.5186 11.4638 28.5556C11.5516 28.5928 11.641 28.627 11.7318 28.6584C11.8227 28.6894 11.915 28.7177 12.0086 28.7426C12.1022 28.7678 12.1967 28.7896 12.2924 28.8084C12.3881 28.8271 12.4844 28.8425 12.5813 28.8549C12.6783 28.8672 12.7758 28.8762 12.8736 28.8821C12.9718 28.8878 13.0696 28.8903 13.1678 28.8896H15.1555C15.3703 28.8896 15.5799 28.9183 15.7838 28.9759C15.988 29.0334 16.1761 29.1169 16.3481 29.2261L17.9636 30.2131C18.2844 30.4101 18.6332 30.5604 19.01 30.6639C19.3868 30.7677 19.7729 30.8201 20.1692 30.8206C20.5672 30.8191 20.9555 30.7662 21.3341 30.6626C21.713 30.5588 22.0639 30.4091 22.3878 30.2131L24.0419 29.2911C24.2139 29.1819 24.402 29.0987 24.6058 29.0411C24.81 28.9836 25.0194 28.9548 25.2345 28.9548H27.2219C27.32 28.9556 27.4182 28.953 27.516 28.9471C27.6139 28.9415 27.7114 28.9322 27.8086 28.9199C27.9055 28.9078 28.0019 28.8921 28.0976 28.8734C28.193 28.8546 28.2878 28.8328 28.3814 28.8079C28.4749 28.7827 28.567 28.7544 28.6578 28.7233C28.749 28.6923 28.8383 28.6578 28.9261 28.6208C29.0136 28.5836 29.0996 28.5435 29.1838 28.5006C29.2677 28.4577 29.3497 28.412 29.4293 28.3637C29.5092 28.3154 29.5864 28.2645 29.6614 28.2108C29.7365 28.1574 29.8088 28.1014 29.8787 28.0431C29.9486 27.9845 30.0154 27.9242 30.0795 27.8612C30.1436 27.7983 30.2047 27.7335 30.263 27.6665C30.3211 27.5997 30.3758 27.5309 30.4274 27.4602C30.4794 27.3898 30.5277 27.3176 30.5723 27.2436C30.6173 27.1699 30.6589 27.0946 30.6969 27.0181C30.7346 26.9415 30.7689 26.864 30.7996 26.7851L31.4152 25.1903C31.4808 25.0169 31.5771 24.8571 31.7045 24.7104C31.8318 24.5637 31.9831 24.4381 32.159 24.3333L33.7618 23.3461C33.8426 23.2957 33.921 23.2425 33.9969 23.1871C34.0729 23.1313 34.1461 23.0733 34.2166 23.0129C34.2874 22.9523 34.3549 22.8896 34.4196 22.8246C34.4843 22.7596 34.546 22.6928 34.6046 22.6237C34.6633 22.5546 34.7186 22.4837 34.7705 22.411C34.8225 22.3383 34.8711 22.264 34.916 22.188C34.961 22.1122 35.0026 22.0349 35.0406 21.9563C35.0786 21.8777 35.1129 21.7978 35.1433 21.7169C35.174 21.6359 35.2007 21.554 35.2235 21.4713C35.2466 21.3885 35.2658 21.3053 35.281 21.2213C35.2965 21.1373 35.3077 21.053 35.315 20.9683C35.3226 20.8835 35.3262 20.7987 35.3256 20.7137C35.3253 20.6287 35.3211 20.5439 35.3129 20.4591C35.3044 20.3746 35.2922 20.2903 35.2764 20.2063C35.2603 20.1223 35.2402 20.0393 35.2165 19.9566C35.1929 19.8742 35.1652 19.7925 35.1339 19.7118ZM7.67948 13.0724L9.29531 12.0852C9.61586 11.8858 9.89326 11.65 10.1275 11.378C10.3618 11.1057 10.5417 10.81 10.6671 10.4904L11.27 8.8956C11.3028 8.80954 11.3435 8.72631 11.3921 8.64565C11.4404 8.56498 11.496 8.48817 11.5589 8.41496C11.6215 8.34174 11.6908 8.2729 11.7661 8.20893C11.8418 8.14496 11.9226 8.08639 12.0092 8.03296C12.0955 7.97978 12.1863 7.93251 12.2815 7.89141C12.3766 7.85031 12.475 7.81563 12.5768 7.78763C12.6783 7.75937 12.7819 7.7383 12.8876 7.72392C12.993 7.70979 13.0994 7.70259 13.2063 7.70234H15.1938C15.3919 7.70311 15.5888 7.69052 15.7844 7.66483C15.9801 7.63914 16.1721 7.60061 16.3605 7.54897C16.5489 7.49734 16.7315 7.43337 16.9077 7.35733C17.0843 7.28103 17.2523 7.19369 17.4124 7.09479L19.0152 6.10755C19.1021 6.05514 19.1935 6.00864 19.2889 5.96805C19.3843 5.92772 19.4831 5.89356 19.5846 5.86607C19.6863 5.83858 19.79 5.81777 19.8957 5.80364C20.0011 5.78977 20.1075 5.78284 20.2141 5.78284C20.3211 5.78284 20.4271 5.78977 20.5328 5.80364C20.6383 5.81777 20.7419 5.83858 20.8437 5.86607C20.9455 5.89356 21.0439 5.92772 21.1393 5.96805C21.235 6.00864 21.3262 6.05514 21.4131 6.10755L23.0161 7.09479C23.176 7.19369 23.344 7.28103 23.5205 7.35733C23.697 7.43337 23.8793 7.49734 24.0677 7.54897C24.2561 7.60061 24.4481 7.63914 24.6438 7.66483C24.8395 7.69052 25.0364 7.70311 25.2345 7.70234H27.2219C27.3285 7.70234 27.4346 7.70927 27.5397 7.7234C27.6451 7.73753 27.7485 7.7586 27.8496 7.7866C27.9511 7.8146 28.0493 7.84902 28.1441 7.89038C28.2389 7.93149 28.3291 7.97875 28.4151 8.03219C28.5011 8.08536 28.5816 8.14419 28.6566 8.20816C28.7314 8.27238 28.8 8.34123 28.862 8.41444C28.924 8.48791 28.9787 8.56473 29.0264 8.64565C29.0738 8.72631 29.1136 8.80954 29.1455 8.8956L29.7097 10.4904C29.8355 10.81 30.0154 11.1057 30.2497 11.378C30.4836 11.65 30.761 11.8858 31.0819 12.0852L32.6974 13.0724C32.7828 13.1261 32.8627 13.1849 32.9371 13.2489C33.0116 13.3131 33.0796 13.3817 33.1416 13.4547C33.2036 13.5279 33.2583 13.6044 33.306 13.6846C33.3537 13.765 33.3941 13.848 33.4266 13.9335C33.4591 14.0191 33.4837 14.1062 33.5002 14.195C33.5169 14.2837 33.5251 14.3731 33.5254 14.463C33.5254 14.5526 33.5175 14.642 33.5014 14.7309C33.485 14.8198 33.4607 14.9069 33.4284 14.9927L32.8129 16.5983C32.6935 16.9176 32.6336 17.2449 32.6336 17.5799C32.6336 17.9151 32.6935 18.2424 32.8129 18.5617L33.4284 20.1673C33.4607 20.2531 33.485 20.3402 33.5014 20.4291C33.5175 20.5179 33.5254 20.6071 33.5254 20.697C33.5251 20.7869 33.5169 20.8763 33.5002 20.9649C33.4837 21.0538 33.4591 21.1409 33.4266 21.2264C33.3941 21.312 33.3537 21.395 33.306 21.4754C33.2583 21.5555 33.2036 21.6321 33.1416 21.7053C33.0796 21.7783 33.0116 21.8468 32.9371 21.9111C32.8627 21.975 32.7828 22.0339 32.6974 22.0876L31.0819 23.0748C30.761 23.2741 30.4836 23.51 30.2497 23.782C30.0154 24.0543 29.8355 24.35 29.7097 24.6696L29.0942 26.2752C29.0617 26.3607 29.0215 26.4434 28.9735 26.5238C28.9255 26.604 28.8705 26.6803 28.8082 26.7532C28.746 26.8259 28.6773 26.894 28.6022 26.9577C28.5272 27.0212 28.4467 27.0795 28.361 27.1324C28.275 27.1851 28.1848 27.2318 28.09 27.2727C27.9955 27.3133 27.8973 27.3474 27.7965 27.3752C27.6953 27.4027 27.5923 27.4235 27.4875 27.4373C27.3826 27.4512 27.2769 27.4579 27.1709 27.4576H25.2345C25.0364 27.4569 24.8395 27.4695 24.6438 27.4951C24.4481 27.5208 24.2561 27.5594 24.0677 27.611C23.8793 27.6626 23.697 27.7266 23.5205 27.8026C23.344 27.8789 23.176 27.9663 23.0161 28.0652L21.4131 29.0524C21.3271 29.1064 21.2362 29.1544 21.1411 29.196C21.0457 29.2379 20.9473 29.2731 20.8455 29.3014C20.7437 29.3299 20.6398 29.3514 20.5338 29.3658C20.428 29.3802 20.3214 29.3874 20.2141 29.3874C20.1069 29.3874 20.0002 29.3802 19.8945 29.3658C19.7884 29.3514 19.6845 29.3299 19.5827 29.3014C19.481 29.2731 19.3825 29.2379 19.2871 29.196C19.192 29.1544 19.1015 29.1064 19.0152 29.0524L17.4124 28.0652C17.2523 27.9663 17.0843 27.8789 16.9077 27.8026C16.7315 27.7266 16.5489 27.6626 16.3605 27.611C16.1721 27.5594 15.9801 27.5208 15.7844 27.4951C15.5888 27.4695 15.3919 27.4569 15.1938 27.4576H13.2063C13.0997 27.4576 12.994 27.4507 12.8885 27.4368C12.7834 27.4227 12.6801 27.4019 12.5786 27.3741C12.4774 27.3464 12.3793 27.3122 12.2842 27.2716C12.1891 27.2308 12.0985 27.184 12.0119 27.1314C11.9257 27.0785 11.8448 27.0204 11.7692 26.957C11.6935 26.8935 11.6242 26.8254 11.5613 26.7527C11.4981 26.68 11.4422 26.6037 11.3933 26.5236C11.3447 26.4434 11.3034 26.3607 11.27 26.2752L10.6671 24.6696C10.5417 24.35 10.3618 24.0543 10.1275 23.782C9.89326 23.51 9.61586 23.2741 9.29531 23.0748L7.67948 22.0876C7.5941 22.0339 7.51419 21.975 7.43975 21.9111C7.36531 21.8468 7.29725 21.7783 7.23527 21.7053C7.17359 21.6321 7.11859 21.5555 7.07089 21.4754C7.02319 21.395 6.98308 21.312 6.95057 21.2264C6.91775 21.1409 6.89345 21.0538 6.87673 20.9649C6.86002 20.8763 6.85182 20.7869 6.85152 20.697C6.85152 20.6071 6.85942 20.5179 6.87582 20.4291C6.89193 20.3402 6.91623 20.2531 6.94844 20.1673L7.56402 18.5617C7.68343 18.2424 7.74329 17.9151 7.74329 17.5801C7.74329 17.2449 7.68343 16.9176 7.56402 16.5983L6.94844 14.9927C6.91532 14.9071 6.8901 14.8198 6.87309 14.7309C6.85607 14.642 6.84757 14.5526 6.84726 14.4625C6.84696 14.3726 6.85486 14.2829 6.87127 14.194C6.88767 14.1049 6.91198 14.0175 6.9448 13.932C6.97731 13.8462 7.01772 13.7632 7.06572 13.6828C7.11403 13.6024 7.16903 13.5258 7.23162 13.4529C7.29391 13.3799 7.36258 13.3116 7.43793 13.2476C7.51298 13.1839 7.59349 13.1253 7.67948 13.0724Z" fill="white"/>
<path id="Vector_4" d="M39.1479 18.3773C39.0516 18.1197 39.0033 17.8558 39.0033 17.5856C39.0033 17.3153 39.0516 17.0512 39.1479 16.7936L39.9813 14.6239C40.0199 14.5234 40.0536 14.422 40.0828 14.3195C40.112 14.217 40.1363 14.1134 40.1557 14.0094C40.1752 13.9051 40.19 13.8003 40.1998 13.6952C40.2095 13.5901 40.2144 13.4848 40.2144 13.3792C40.2144 13.2736 40.2095 13.1683 40.1998 13.0632C40.1897 12.9579 40.1752 12.8534 40.1557 12.7491C40.136 12.645 40.1117 12.5415 40.0825 12.439C40.0533 12.3365 40.0196 12.235 39.981 12.1346C39.9424 12.0344 39.8993 11.9355 39.8516 11.8379C39.8039 11.7405 39.7516 11.6447 39.6948 11.5509C39.6383 11.4569 39.5772 11.3649 39.5122 11.275C39.4469 11.1851 39.3776 11.0975 39.3041 11.012C39.2308 10.9267 39.1536 10.844 39.0725 10.7638C38.9914 10.6837 38.9069 10.6063 38.8188 10.5318C38.7304 10.4571 38.6389 10.3857 38.5438 10.3173C38.449 10.2487 38.3512 10.1835 38.2503 10.1216L36.1216 8.80885C35.864 8.64906 35.6409 8.45973 35.4529 8.24137C35.2645 8.02276 35.1199 7.78539 35.0187 7.52875L34.198 5.35904C34.1594 5.25885 34.1163 5.1602 34.0686 5.06284C34.0206 4.96548 33.9686 4.86991 33.9118 4.77589C33.8553 4.68213 33.7942 4.59016 33.7289 4.5005C33.6639 4.41059 33.5946 4.32299 33.5214 4.23796C33.4478 4.15267 33.3707 4.06995 33.2898 3.99006C33.2087 3.90991 33.1242 3.83258 33.0361 3.75808C32.9477 3.68358 32.8563 3.61217 32.7615 3.54383C32.6667 3.4755 32.5688 3.41025 32.4679 3.3486C32.3671 3.28668 32.2635 3.22811 32.1574 3.17314C32.0511 3.11816 31.9423 3.06678 31.8314 3.019C31.7202 2.97122 31.6072 2.92729 31.492 2.88696C31.3769 2.84663 31.2599 2.81041 31.1414 2.77778C31.0229 2.74541 30.9032 2.7169 30.7819 2.69223C30.6607 2.66783 30.5386 2.64728 30.4155 2.63084C30.2924 2.6144 30.1688 2.60232 30.0448 2.5941C29.9205 2.58588 29.796 2.58177 29.6714 2.58177H26.9529C26.6333 2.58074 26.3209 2.53861 26.0168 2.45538C25.7127 2.37189 25.4304 2.25141 25.1706 2.09368L23.0164 0.770164C22.8131 0.646085 22.5998 0.536392 22.3762 0.440571C22.1529 0.34475 21.9219 0.264086 21.6834 0.198578C21.4452 0.133327 21.2024 0.0840039 20.9548 0.0506078C20.7075 0.0172118 20.4586 0.000513818 20.208 0C19.7127 0.000256942 19.2299 0.0655076 18.759 0.195238C18.2737 0.32574 17.825 0.517639 17.4126 0.770164L15.2581 2.10446C14.9983 2.2622 14.7164 2.38268 14.4119 2.46617C14.1078 2.5494 13.7957 2.59179 13.4758 2.59282H10.7956C10.6701 2.59307 10.5449 2.5977 10.4198 2.60643C10.2946 2.61517 10.17 2.62827 10.046 2.64522C9.92206 2.66244 9.79931 2.6835 9.67717 2.70893C9.55533 2.73437 9.4347 2.76365 9.3156 2.79705C9.19649 2.83044 9.0789 2.86795 8.96344 2.90931C8.84768 2.95041 8.73405 2.99563 8.62253 3.04443C8.51103 3.0935 8.40195 3.14591 8.2956 3.20217C8.18895 3.25843 8.08535 3.31803 7.98417 3.38122C7.88329 3.44442 7.78545 3.51069 7.69066 3.58057C7.59586 3.65019 7.50471 3.72289 7.41659 3.79893C7.32878 3.87471 7.24462 3.95332 7.1638 4.03476C7.08328 4.11619 7.00671 4.20019 6.93409 4.28702C6.86117 4.3736 6.79281 4.46248 6.72839 4.55368C6.66398 4.64488 6.60382 4.73813 6.54822 4.83318C6.49261 4.92849 6.44157 5.02533 6.39478 5.12398C6.34829 5.22263 6.30636 5.32282 6.26929 5.42429L5.44831 7.594C5.34744 7.85038 5.20251 8.08775 5.01443 8.30637C4.82605 8.52472 4.60333 8.71406 4.34568 8.8741L2.17868 10.1326C2.07751 10.1945 1.97967 10.2595 1.88487 10.3281C1.78977 10.3964 1.69831 10.4681 1.6102 10.5426C1.52178 10.6171 1.43731 10.6944 1.35619 10.7746C1.27506 10.8547 1.19789 10.9377 1.12466 11.023C1.05113 11.1083 0.981857 11.1959 0.916835 11.2858C0.851509 11.3757 0.790437 11.4677 0.733923 11.5617C0.677105 11.6557 0.625148 11.7513 0.577141 11.8489C0.529438 11.9463 0.486293 12.0452 0.447705 12.1454C0.409117 12.2458 0.375391 12.3473 0.346222 12.4498C0.317054 12.5523 0.292746 12.6558 0.273301 12.7599C0.253551 12.8642 0.238967 12.969 0.229244 13.074C0.219217 13.1791 0.214355 13.2844 0.214355 13.39C0.214355 13.4956 0.219217 13.6009 0.22894 13.706C0.238967 13.8113 0.253551 13.9159 0.272997 14.0202C0.292442 14.1242 0.31675 14.2277 0.345918 14.3302C0.375087 14.433 0.408813 14.5342 0.447401 14.6347L1.28084 16.8044C1.37715 17.0602 1.42546 17.3225 1.42546 17.591C1.42546 17.8594 1.37715 18.1215 1.28084 18.3773L0.447401 20.547C0.408813 20.6475 0.375087 20.749 0.345918 20.8515C0.31675 20.9542 0.292442 21.0575 0.272997 21.1618C0.253551 21.2658 0.238967 21.3706 0.22894 21.4757C0.219217 21.581 0.214355 21.6864 0.214355 21.7917C0.214355 21.8973 0.219217 22.0026 0.229244 22.1077C0.238967 22.213 0.253551 22.3175 0.272997 22.4218C0.292746 22.5261 0.317054 22.6294 0.346222 22.7319C0.375391 22.8347 0.409117 22.9361 0.447705 23.0363C0.486293 23.1368 0.529438 23.2357 0.577141 23.333C0.625148 23.4304 0.677105 23.5262 0.733923 23.6203C0.790437 23.7143 0.851509 23.806 0.916835 23.8962C0.981857 23.9861 1.05113 24.0737 1.12466 24.159C1.19789 24.2442 1.27506 24.327 1.35619 24.4071C1.43731 24.4873 1.52178 24.5646 1.6102 24.6393C1.69831 24.7138 1.78977 24.7853 1.88487 24.8538C1.97967 24.9222 2.07751 24.9874 2.17868 25.0493L4.34568 26.3621C4.60607 26.5195 4.83061 26.7078 5.01929 26.9267C5.20767 27.1456 5.35078 27.3842 5.44831 27.6422L6.26929 29.8119C6.33735 29.9896 6.41999 30.1625 6.51692 30.3305C6.61354 30.4986 6.72384 30.6601 6.8475 30.815C6.97086 30.9702 7.10667 31.1171 7.25434 31.2561C7.40201 31.3951 7.56061 31.5246 7.72985 31.6448C7.89909 31.7653 8.07714 31.875 8.26461 31.9741C8.45178 32.0733 8.64654 32.1609 8.84829 32.2369C9.05004 32.3132 9.25695 32.3772 9.46934 32.4288C9.68172 32.4805 9.89745 32.5195 10.1162 32.5457V44.2623C10.1156 44.3307 10.1259 44.3977 10.1475 44.4635C10.1691 44.5295 10.2007 44.5917 10.2426 44.65C10.2845 44.7083 10.335 44.761 10.3939 44.8075C10.4532 44.854 10.5188 44.8928 10.5905 44.9241C10.7157 44.9768 10.8482 45.0019 10.9879 44.9999C11.0803 45.0007 11.1705 44.9891 11.258 44.9649C11.3459 44.9408 11.427 44.9053 11.5011 44.8588L20.2593 39.4346L29.0303 44.8588C29.1044 44.9053 29.1856 44.9408 29.2731 44.9649C29.3609 44.9891 29.4511 45.0007 29.5432 44.9999C29.6832 45.0019 29.8157 44.9768 29.9409 44.9241C30.0126 44.8928 30.0782 44.854 30.1372 44.8075C30.1964 44.761 30.2469 44.7083 30.2888 44.65C30.3307 44.5917 30.3623 44.5295 30.3839 44.4635C30.4055 44.3977 30.4158 44.3307 30.4152 44.2623V32.5457C30.634 32.5195 30.8497 32.4805 31.0621 32.4288C31.2742 32.3772 31.4814 32.3132 31.6831 32.2369C31.8849 32.1609 32.0796 32.0733 32.2668 31.9741C32.4543 31.875 32.6323 31.7653 32.8016 31.6448C32.9708 31.5246 33.1294 31.3951 33.2771 31.2561C33.4247 31.1171 33.5606 30.9702 33.6839 30.815C33.8076 30.6601 33.9176 30.4986 34.0145 30.3305C34.1114 30.1625 34.1941 29.9896 34.2621 29.8119L35.0828 27.6422C35.1718 27.3878 35.3052 27.1512 35.4826 26.9326C35.6601 26.714 35.8731 26.5237 36.1216 26.3621L38.2886 25.0275C38.3883 24.9648 38.4846 24.8985 38.5779 24.8292C38.6715 24.7601 38.7614 24.6879 38.848 24.6126C38.9349 24.5374 39.0178 24.4593 39.0974 24.3786C39.177 24.2979 39.2527 24.2147 39.3247 24.1292C39.3964 24.0434 39.4642 23.9555 39.528 23.8653C39.5918 23.7752 39.6513 23.6832 39.7066 23.5889C39.7619 23.4949 39.813 23.3991 39.8595 23.3017C39.906 23.2043 39.9479 23.1054 39.9853 23.0052C40.0226 22.9051 40.0551 22.8038 40.0834 22.7013C40.1114 22.5991 40.1348 22.4961 40.1533 22.392C40.1718 22.2883 40.1855 22.184 40.1946 22.0792C40.2034 21.9743 40.2077 21.8693 40.2071 21.7642C40.2062 21.6591 40.2007 21.5543 40.1904 21.4495C40.18 21.345 40.1648 21.2407 40.1448 21.1371C40.125 21.0333 40.1001 20.9303 40.0706 20.8283C40.0415 20.7264 40.0071 20.6254 39.9686 20.5255L39.1479 18.3773ZM32.5053 29.2912C32.4567 29.4188 32.3968 29.5427 32.3251 29.6624C32.2534 29.7821 32.1711 29.8961 32.0778 30.0048C31.9848 30.1137 31.8824 30.2155 31.7703 30.3105C31.6585 30.4056 31.5382 30.4924 31.41 30.5715C31.2817 30.6504 31.1468 30.7202 31.0056 30.7814C30.8643 30.8423 30.7181 30.8934 30.5674 30.935C30.4164 30.9764 30.2627 31.0075 30.1059 31.0283C29.9494 31.0493 29.7917 31.0596 29.6331 31.0593H29.4921C29.4347 31.0593 29.3779 31.0642 29.322 31.0737C29.2658 31.083 29.2111 31.0971 29.1582 31.1156C29.1053 31.1341 29.0552 31.157 29.0075 31.1837C28.9598 31.2107 28.9157 31.2412 28.8753 31.2757C28.8349 31.3098 28.7988 31.3471 28.7669 31.3874C28.7353 31.4275 28.7082 31.4701 28.6863 31.5148C28.6645 31.5595 28.6481 31.6058 28.6368 31.6533C28.6256 31.7008 28.6201 31.7488 28.6201 31.7971V42.7544L26.1195 41.2246V33.739C26.1231 33.7133 26.1253 33.6874 26.1259 33.6612C26.1262 33.6352 26.1253 33.6093 26.1222 33.5833C26.1195 33.5574 26.1152 33.5317 26.1092 33.5063C26.1031 33.4806 26.0958 33.4554 26.0864 33.4305C26.0773 33.4058 26.0666 33.3814 26.0545 33.3575C26.0423 33.3336 26.0286 33.3102 26.0135 33.2876C25.9986 33.265 25.9819 33.2429 25.9642 33.2219C25.9463 33.2006 25.9272 33.1803 25.9068 33.1607C25.8865 33.1412 25.8649 33.1227 25.8421 33.1052C25.8193 33.0875 25.7956 33.0711 25.771 33.0557C25.7461 33.0402 25.7203 33.0259 25.6938 33.0128C25.6674 32.9997 25.64 32.9878 25.6118 32.9771C25.5838 32.9665 25.5553 32.957 25.5261 32.9488C25.4966 32.9408 25.4672 32.9339 25.4371 32.9285C25.407 32.9231 25.3766 32.919 25.3459 32.9162C25.3152 32.9133 25.2845 32.9121 25.2539 32.9121C25.2232 32.9121 25.1925 32.9133 25.1618 32.9162C25.1314 32.919 25.101 32.9231 25.0709 32.9285C25.0409 32.9339 25.0111 32.9408 24.9819 32.9488C24.9527 32.957 24.9239 32.9665 24.8959 32.9771C24.868 32.9878 24.8406 32.9997 24.8139 33.0128C24.7875 33.0259 24.7616 33.0402 24.737 33.0557C24.7121 33.0711 24.6884 33.0875 24.6656 33.1052C24.6431 33.1227 24.6216 33.1412 24.6012 33.1607C24.5805 33.1803 24.5617 33.2006 24.5438 33.2219C24.5259 33.2429 24.5094 33.265 24.4943 33.2876C24.4791 33.3102 24.4654 33.3336 24.4532 33.3575C24.4411 33.3814 24.4304 33.4058 24.4213 33.4305C24.4122 33.4554 24.4046 33.4806 24.3985 33.5063C24.3928 33.5317 24.3882 33.5574 24.3855 33.5833C24.3827 33.6093 24.3815 33.6352 24.3821 33.6612C24.3824 33.6874 24.3846 33.7133 24.3882 33.739V40.1397L20.7336 37.905C20.6601 37.8578 20.5793 37.822 20.4915 37.7976C20.4033 37.7735 20.3131 37.7622 20.2207 37.764C20.1284 37.7632 20.0384 37.7748 19.9506 37.7989C19.8628 37.8231 19.782 37.8585 19.7079 37.905L16.0405 40.1397V33.7608C16.0441 33.7349 16.0463 33.7089 16.0469 33.683C16.0472 33.657 16.046 33.6308 16.0432 33.6052C16.0405 33.5792 16.0362 33.5533 16.0302 33.5278C16.0241 33.5024 16.0165 33.4772 16.0074 33.4523C15.9983 33.4274 15.9876 33.403 15.9755 33.3791C15.9633 33.3552 15.9496 33.3321 15.9345 33.3092C15.9193 33.2866 15.9029 33.2648 15.8849 33.2435C15.8673 33.2224 15.8482 33.2018 15.8278 33.1823C15.8075 33.163 15.7859 33.1443 15.7631 33.1268C15.7403 33.1094 15.7166 33.0929 15.6917 33.0775C15.6671 33.0618 15.6413 33.0477 15.6148 33.0346C15.5881 33.0215 15.561 33.0094 15.5328 32.9989C15.5048 32.9881 15.4763 32.9786 15.4468 32.9706C15.4176 32.9624 15.3882 32.9557 15.3581 32.9503C15.328 32.9447 15.2976 32.9406 15.2669 32.938C15.2362 32.9352 15.2055 32.9339 15.1749 32.9339C15.1442 32.9339 15.1135 32.9352 15.0828 32.938C15.0521 32.9406 15.022 32.9447 14.9919 32.9503C14.9619 32.9557 14.9321 32.9624 14.9029 32.9706C14.8734 32.9786 14.8449 32.9881 14.8169 32.9989C14.789 33.0094 14.7616 33.0215 14.7349 33.0346C14.7085 33.0477 14.6826 33.0618 14.658 33.0775C14.6331 33.0929 14.6094 33.1094 14.5866 33.1268C14.5641 33.1445 14.5426 33.163 14.5219 33.1823C14.5015 33.2018 14.4824 33.2224 14.4648 33.2435C14.4469 33.2648 14.4304 33.2866 14.4153 33.3092C14.4001 33.3321 14.3864 33.3552 14.3742 33.3791C14.3621 33.403 14.3514 33.4274 14.3423 33.4523C14.3332 33.4772 14.3256 33.5024 14.3195 33.5278C14.3135 33.5533 14.3092 33.5792 14.3065 33.6052C14.3037 33.6308 14.3025 33.657 14.3031 33.683C14.3034 33.7089 14.3056 33.7349 14.3092 33.7608V41.2246L11.7576 42.7975V31.8406C11.7585 31.7923 11.7536 31.7445 11.7433 31.6972C11.7326 31.6499 11.7172 31.6037 11.6959 31.559C11.6746 31.5143 11.6485 31.4719 11.6172 31.4316C11.5859 31.3913 11.5503 31.354 11.5105 31.3196C11.4704 31.2852 11.427 31.2546 11.3796 31.2276C11.3325 31.2006 11.2827 31.1778 11.2301 31.1593C11.1775 31.1405 11.1234 31.1267 11.0675 31.1171C11.0116 31.1076 10.9554 31.1028 10.8983 31.1028H10.7956C10.6349 31.1028 10.4754 31.0922 10.3164 31.0704C10.1578 31.0488 10.0023 31.0167 9.84944 30.9741C9.69692 30.9314 9.54925 30.8788 9.40675 30.8161C9.26394 30.7534 9.12813 30.6817 8.99899 30.6005C8.86986 30.5196 8.74924 30.4302 8.63712 30.3329C8.525 30.2355 8.42261 30.1312 8.33024 30.02C8.23757 29.9087 8.15614 29.7921 8.08595 29.6698C8.01546 29.5475 7.95712 29.4214 7.91064 29.2912L7.0769 27.1214C6.99729 26.9254 6.90037 26.7361 6.78552 26.5529C6.67097 26.3698 6.54001 26.1953 6.39326 26.0296C6.2462 25.864 6.08486 25.7088 5.90924 25.5644C5.73362 25.42 5.54585 25.2883 5.34592 25.1685L3.20445 23.8669C3.07562 23.788 2.955 23.7009 2.84258 23.6061C2.73016 23.5111 2.62715 23.4093 2.53357 23.3007C2.43999 23.192 2.35704 23.0777 2.28472 22.958C2.21241 22.8383 2.15164 22.7144 2.10242 22.5865C2.0532 22.4586 2.01613 22.3283 1.99121 22.1955C1.9663 22.0627 1.95384 21.9291 1.95354 21.7948C1.95354 21.6602 1.966 21.5266 1.99061 21.3938C2.01552 21.2609 2.05259 21.1307 2.10151 21.0028L2.92218 18.8331C3.00179 18.6329 3.06195 18.4287 3.10206 18.2204C3.14247 18.0118 3.16282 17.8021 3.16282 17.591C3.16282 17.3798 3.14247 17.1699 3.10206 16.9616C3.06195 16.7533 3.00179 16.5488 2.92218 16.3486L2.10151 14.1789C2.05198 14.0513 2.01461 13.9208 1.98939 13.7879C1.96417 13.6551 1.95141 13.5215 1.95141 13.3869C1.95111 13.2523 1.96357 13.1187 1.98848 12.9857C2.0134 12.8529 2.05016 12.7224 2.09969 12.5944C2.14891 12.4665 2.20968 12.3427 2.28199 12.223C2.35461 12.1032 2.43756 11.9889 2.53144 11.8803C2.62533 11.7716 2.72864 11.6699 2.84136 11.5751C2.95439 11.4803 3.07532 11.3937 3.20445 11.3151L5.34592 9.99158C5.5504 9.86827 5.74182 9.73186 5.92048 9.58261C6.09884 9.43335 6.2623 9.27305 6.41058 9.10171C6.55855 8.93036 6.68981 8.75002 6.80375 8.56069C6.91769 8.37136 7.01309 8.17587 7.08996 7.97369L7.9234 5.80398C7.97353 5.67733 8.03491 5.55479 8.10753 5.43662C8.18045 5.31819 8.2637 5.20516 8.35728 5.09778C8.45086 4.9904 8.55387 4.88995 8.66598 4.79593C8.7781 4.70216 8.89842 4.61636 9.02634 4.53852C9.15456 4.46068 9.28916 4.39158 9.42984 4.33147C9.57082 4.27161 9.71606 4.221 9.86646 4.18016C10.0166 4.13931 10.1694 4.10848 10.3253 4.08793C10.4811 4.06738 10.6379 4.05711 10.7956 4.05736H13.4758C13.7268 4.05608 13.9756 4.03784 14.2232 4.0029C14.4706 3.96771 14.713 3.91607 14.9506 3.84774C15.1879 3.77966 15.4176 3.69566 15.6391 3.59624C15.8606 3.49657 16.0715 3.38276 16.2711 3.25457L18.4384 1.93106C18.566 1.85065 18.7 1.7795 18.841 1.71733C18.982 1.65542 19.1281 1.60327 19.2788 1.56088C19.4298 1.51849 19.5836 1.48689 19.7407 1.46532C19.8975 1.44399 20.0554 1.4332 20.2144 1.4332C20.3733 1.4332 20.5313 1.44399 20.688 1.46532C20.8451 1.48689 20.9989 1.51849 21.1499 1.56088C21.3006 1.60327 21.4467 1.65542 21.5877 1.71733C21.7287 1.7795 21.863 1.85065 21.9903 1.93106L24.1576 3.25457C24.3584 3.37994 24.5702 3.49091 24.7923 3.58751C25.0144 3.6841 25.2441 3.76528 25.4817 3.83078C25.7193 3.89603 25.9615 3.9451 26.2082 3.97773C26.4549 4.01009 26.7032 4.02576 26.9529 4.02474H29.6331C29.7914 4.02499 29.9491 4.03578 30.1056 4.05685C30.2621 4.07791 30.4158 4.10951 30.5665 4.15113C30.7172 4.19274 30.8631 4.24387 31.0043 4.30501C31.1453 4.36589 31.2799 4.43602 31.4081 4.51489C31.5364 4.59375 31.6564 4.68058 31.7685 4.77538C31.8806 4.87043 31.983 4.9719 32.0763 5.08057C32.1693 5.18897 32.2519 5.30303 32.3239 5.42249C32.3959 5.54194 32.4564 5.66551 32.5053 5.79293L33.3391 7.96264C33.4138 8.1643 33.5074 8.35954 33.6192 8.54836C33.731 8.73718 33.8601 8.91726 34.006 9.08886C34.1518 9.26021 34.3132 9.42077 34.4894 9.57028C34.6659 9.71979 34.8549 9.85671 35.0573 9.98054L37.2243 11.3151C37.3531 11.394 37.4737 11.4808 37.5861 11.5758C37.6989 11.6706 37.8019 11.7726 37.8954 11.8813C37.9887 11.99 38.0717 12.1043 38.144 12.224C38.2163 12.3437 38.2771 12.4675 38.3263 12.5952C38.3755 12.7231 38.4126 12.8534 38.4375 12.9862C38.4624 13.119 38.4752 13.2526 38.4752 13.3872C38.4752 13.5215 38.4627 13.6551 38.4381 13.7879C38.4132 13.9208 38.3761 14.0513 38.3272 14.1789L37.4938 16.3486C37.4172 16.5495 37.3595 16.754 37.3209 16.9621C37.282 17.1704 37.2628 17.3801 37.2628 17.591C37.2628 17.8019 37.282 18.0113 37.3209 18.2196C37.3595 18.4279 37.4172 18.6324 37.4938 18.8331L38.3272 21.0028C38.3758 21.1307 38.4123 21.2609 38.4366 21.3938C38.4612 21.5266 38.4734 21.6602 38.4727 21.7945C38.4724 21.9289 38.46 22.0625 38.4348 22.195C38.4098 22.3278 38.3728 22.4581 38.3236 22.5857C38.2743 22.7134 38.2136 22.8372 38.1416 22.957C38.0692 23.0767 37.9866 23.191 37.8933 23.2996C37.8 23.4083 37.6973 23.5103 37.5852 23.6054C37.4731 23.7004 37.3528 23.7877 37.2243 23.8669L35.0573 25.1685C34.8558 25.2934 34.6671 25.4306 34.4912 25.5803C34.3156 25.7304 34.1546 25.8909 34.0087 26.0623C33.8629 26.2334 33.7337 26.4134 33.6213 26.602C33.5092 26.7906 33.415 26.9853 33.3391 27.1864L32.5053 29.2912Z" fill="white"/>
</g>
</svg>
