<svg width="119" height="123" viewBox="0 0 119 123" fill="none" xmlns="http://www.w3.org/2000/svg">
<g id="icon">
<g id="Group">
<path id="Vector" d="M51.2431 31.3214C49.7298 31.5916 48.0469 32.9151 47.2599 34.4548C46.5214 35.9134 46.5214 35.8189 46.5214 46.2319V55.6995L45.8797 56.0506L45.2381 56.4018L44.8264 55.5104C44.3543 54.511 43.1315 52.9848 42.3445 52.4311L41.836 52.0664L42.6472 51.1615C44.6206 48.9871 45.0928 45.8942 43.87 43.1255C41.9208 38.7497 36.8964 37.8178 33.8212 41.2752C32.5742 42.6664 31.9931 44.2195 31.9931 46.1644C31.9931 48.1632 32.6105 49.8109 33.8818 51.1615C34.3055 51.6207 34.6566 52.0124 34.6566 52.0394C34.6566 52.0664 34.4023 52.269 34.0876 52.4851C32.8163 53.39 31.7509 54.9702 31.1819 56.7935L30.8429 57.8469L30.8066 67.7737C30.7824 74.9993 30.8066 77.849 30.9034 78.2407C31.0972 78.9835 31.5451 79.6048 32.1262 79.9289C32.5863 80.1991 32.7921 80.1991 38.3976 80.1721L44.1969 80.1315L44.669 79.7129C45.6497 78.8215 45.6013 79.2131 45.6739 71.6499L45.7345 64.9105L48.3859 63.3708L51.0373 61.8311H65.6625C79.9003 61.8311 80.2998 61.8176 81.0504 61.561C82.8181 60.9532 84.1256 59.5486 84.8157 57.5363C85.0699 56.7799 85.0821 56.6179 85.1184 47.1098C85.1426 40.4379 85.1063 37.1695 85.0215 36.5482C84.622 33.9011 82.6607 31.7266 80.2998 31.3079C79.3191 31.1459 52.1996 31.1459 51.2431 31.3214ZM80.9173 33.7525C81.7769 34.1982 82.4306 34.9275 82.8302 35.8864L83.1449 36.6427V46.5695C83.1449 56.4288 83.1449 56.4963 82.8907 57.1176C82.5275 57.982 81.8253 58.8058 81.0989 59.238L80.4814 59.6027L67.3817 59.6432L54.282 59.6702L54.5846 59.0354C54.9357 58.2656 55.0689 57.2256 54.8994 56.5368C54.7784 56.0371 54.8026 55.9966 57.7324 50.6888C59.3548 47.7581 60.7108 45.2054 60.7592 45.0164C60.856 44.5842 60.5413 44.0439 60.1175 43.8549C59.4153 43.5577 59.3064 43.7333 56.4491 48.906C54.96 51.5937 53.7129 53.8492 53.6645 53.9032C53.6161 53.9572 53.2892 53.8492 52.926 53.6601C52.4417 53.417 52.0664 53.3225 51.4732 53.3225C50.7831 53.3225 50.5409 53.4035 49.5724 53.9302L48.4585 54.5245V45.6917C48.4585 37.21 48.4706 36.8318 48.7007 36.143C49.1365 34.833 50.0809 33.9011 51.3521 33.5229C51.7879 33.3878 55.1052 33.3608 66.0741 33.3743L80.2393 33.4013L80.9173 33.7525ZM39.7415 41.6399C41.0491 42.1531 42.1145 43.4902 42.4777 45.0704C42.962 47.2313 41.9934 49.4868 40.1289 50.5132C39.4025 50.9184 39.2209 50.9589 38.2281 50.9589C37.2959 50.9589 37.0417 50.9049 36.4484 50.5943C35.5646 50.1351 34.7292 49.2032 34.3176 48.2172C34.0391 47.5555 33.9907 47.2718 33.9907 46.1644C33.9907 45.0434 34.027 44.7868 34.3176 44.1385C34.8866 42.8419 36.0368 41.7885 37.2838 41.4373C37.877 41.2752 39.0514 41.3698 39.7415 41.6399ZM39.4873 53.39C41.497 53.9167 43.1194 55.713 43.6278 57.955C43.7852 58.6843 44.0637 59.0084 44.548 59.0219C44.7901 59.0354 45.9766 58.4142 47.9985 57.2527C50.0566 56.0776 51.2189 55.4834 51.4732 55.4834C52.0785 55.4834 52.5265 55.821 52.817 56.4963C53.1439 57.2527 53.0713 57.8604 52.5991 58.3466C52.4175 58.5357 49.6813 60.1834 46.5093 62.0202C42.2598 64.4783 40.6495 65.3426 40.3348 65.3426C39.4025 65.3426 38.7487 64.4648 38.7972 63.2627C38.8456 62.1418 37.9739 61.588 37.2596 62.2633C36.6058 62.9116 36.7753 64.8159 37.5986 66.0314C37.8286 66.3556 38.3129 66.8148 38.664 67.0309C39.2451 67.3955 39.4267 67.436 40.3469 67.436C41.3396 67.436 41.4244 67.409 42.4898 66.7878C43.1072 66.4366 43.64 66.153 43.6763 66.153C43.761 66.153 43.7489 77.5654 43.6642 77.822C43.6036 78.0111 43.0104 78.0381 38.3008 78.0381C34.3418 78.0381 32.9737 77.9976 32.8648 77.8761C32.6711 77.66 32.6589 59.211 32.8527 58.1575C33.2885 55.8615 34.9593 53.9302 36.9932 53.3765C37.8528 53.1469 38.5671 53.1469 39.4873 53.39Z" fill="#FBFBFB"/>
<path id="Vector_2" d="M55.892 37.2101C55.2019 37.3587 54.9355 38.5337 55.4682 39.0199C55.7346 39.263 56.0736 39.2765 62.2602 39.2765H68.7859L69.028 38.9253C69.367 38.4526 69.3428 38.0204 68.9917 37.5612L68.7011 37.1831L62.4176 37.1696C58.9671 37.1561 56.0252 37.1696 55.892 37.2101Z" fill="#FBFBFB"/>
<path id="Vector_3" d="M71.7519 37.3046C71.1707 37.5883 71.0134 38.5067 71.4613 39.0064C71.6792 39.2495 71.8608 39.2765 73.8222 39.2765C75.8319 39.2765 75.9409 39.263 76.183 38.9794C76.6431 38.4121 76.4494 37.5207 75.8077 37.2641C75.2508 37.048 72.2241 37.075 71.7519 37.3046Z" fill="#FBFBFB"/>
<path id="Vector_4" d="M62.9145 42.7881C62.5755 42.9367 62.2607 43.4364 62.2607 43.8145C62.2607 43.9766 62.3697 44.2602 62.515 44.4628L62.7571 44.814H69.2343C73.2296 44.814 75.7963 44.7599 75.9416 44.6789C76.2806 44.4763 76.4622 43.774 76.2685 43.3553C75.9779 42.653 75.9779 42.653 69.3433 42.6665C65.9534 42.6665 63.0477 42.7206 62.9145 42.7881Z" fill="#FBFBFB"/>
<path id="Vector_5" d="M61.2067 48.3252C60.6377 48.5818 60.5045 49.5677 60.9646 50.0539C61.243 50.3511 61.2915 50.3511 65.6742 50.3511C68.1198 50.3511 70.2022 50.3106 70.3111 50.27C70.6017 50.135 70.8681 49.4597 70.7833 49.068C70.747 48.8789 70.5654 48.6088 70.408 48.4603C70.1053 48.2036 69.9116 48.1901 65.7831 48.2036C63.4102 48.2036 61.352 48.2577 61.2067 48.3252Z" fill="#FBFBFB"/>
<path id="Vector_6" d="M72.1639 48.5953C71.8612 48.9465 71.8128 49.0815 71.8733 49.4462C72.0065 50.243 72.2608 50.3511 74.0889 50.3511C74.9848 50.3511 75.8202 50.2971 75.9413 50.216C76.2439 50.0404 76.4377 49.3381 76.3045 48.9465C76.0866 48.2982 75.7718 48.1901 74.0889 48.1901H72.5271L72.1639 48.5953Z" fill="#FBFBFB"/>
<path id="Vector_7" d="M57.8412 54.0655C57.6475 54.2681 57.5386 54.5517 57.5386 54.8083C57.5386 55.0649 57.6475 55.3486 57.8412 55.5511C58.1197 55.8753 58.1802 55.8888 59.96 55.8888C61.7397 55.8888 61.8002 55.8753 62.0787 55.5511C62.2724 55.3486 62.3814 55.0649 62.3814 54.8083C62.3814 54.5517 62.2724 54.2681 62.0787 54.0655C61.8002 53.7414 61.7397 53.7279 59.96 53.7279C58.1802 53.7279 58.1197 53.7414 57.8412 54.0655Z" fill="#FBFBFB"/>
<path id="Vector_8" d="M64.3554 53.8629C63.7864 54.1195 63.6653 55.0379 64.1375 55.5511L64.428 55.8888H70.1062C75.6754 55.8888 75.7965 55.8888 76.1112 55.6052C76.535 55.227 76.5471 54.5247 76.1233 54.0655L75.8328 53.7279L70.2273 53.7414C67.14 53.7414 64.5007 53.7954 64.3554 53.8629Z" fill="#FBFBFB"/>
<path id="Vector_9" d="M65.0568 62.9251C64.1851 63.1142 63.0833 63.7625 62.4174 64.4918C60.3956 66.6933 60.2866 70.2993 62.1753 72.6088C62.4538 72.9465 62.6233 73.2436 62.5506 73.2706C61.6789 73.6082 59.7418 75.364 58.9791 76.539L58.6764 76.9982L58.1437 76.6741C57.841 76.4985 57.5747 76.3364 57.5505 76.3229C57.5262 76.3094 57.7442 75.9988 58.0226 75.6476C60.444 72.5818 59.3907 67.8007 55.9644 66.2881C53.4583 65.1806 50.5647 66.4772 49.3298 69.2459C48.894 70.2318 48.8819 70.2993 48.8819 71.7444C48.8819 73.149 48.9061 73.2976 49.2693 74.1485C49.4751 74.6482 49.8746 75.3235 50.141 75.6476L50.6495 76.2554L49.9473 76.6876C47.647 78.1327 46.0852 80.5097 45.5525 83.3324L45.4193 84.1158H38.4578C30.9515 84.1158 31.012 84.1158 30.3098 84.8316C29.6924 85.4664 29.5713 86.0201 29.5713 88.4106C29.5713 90.8552 29.656 91.2874 30.334 92.0572C30.5398 92.3003 30.9031 92.5569 31.1452 92.6245C31.4115 92.7055 41.6177 92.7595 59.7055 92.7595H87.8541L88.3869 92.4759C88.7016 92.3003 89.0406 91.9627 89.2343 91.6385C89.5491 91.1118 89.5612 91.0308 89.5975 88.7213C89.646 86.0336 89.5733 85.5744 88.968 84.9126C88.4837 84.3859 87.951 84.1428 87.2488 84.1293L86.7645 84.1158L86.6313 83.3189C86.3287 81.5227 85.4812 79.7939 84.2221 78.3893C83.5199 77.606 82.2365 76.5795 81.7038 76.3769C81.6433 76.3499 81.8249 75.9988 82.1155 75.5936C83.1324 74.1755 83.5199 72.6088 83.314 70.8936C83.0235 68.5841 81.3285 66.5582 79.2219 66.018C76.9579 65.4237 74.367 66.8418 73.3742 69.2189C72.4541 71.3933 72.7205 73.6893 74.1007 75.5801C74.3912 75.9853 74.6091 76.3229 74.5849 76.3499C74.5607 76.3634 74.3065 76.5255 74.0159 76.6876L73.4711 76.9847L73.2411 76.6065C72.7084 75.7422 71.1344 74.1755 70.3596 73.7163L69.5605 73.2571L70.1538 72.4467C71.0497 71.2042 71.2676 70.4344 71.2797 68.6516C71.2797 67.2335 71.2676 67.1254 70.8681 66.2206C69.7785 63.7355 67.4297 62.3984 65.0568 62.9251ZM67.4055 65.2616C68.0472 65.5723 68.8583 66.4907 69.161 67.2605C69.3789 67.8413 69.4274 68.1384 69.3789 68.9352C69.2579 70.9881 67.9019 72.4062 66.0737 72.3927C64.8025 72.3792 63.7855 71.7039 63.1802 70.4884C62.1269 68.314 63.1802 65.6938 65.3473 65.0591C65.8195 64.924 66.897 65.032 67.4055 65.2616ZM55.1896 68.2734C55.577 68.422 55.9887 68.7326 56.4003 69.1918C58.9306 72.0146 56.3034 76.5525 52.8772 75.2425C51.158 74.5942 50.2621 72.1496 51.049 70.2723C51.7997 68.449 53.5067 67.6252 55.1896 68.2734ZM79.5246 68.422C80.7716 69.1243 81.4011 70.2453 81.4132 71.7309C81.4132 73.149 80.82 74.3106 79.7062 75.0399C79.2219 75.364 79.0282 75.4045 78.1202 75.4045C76.9095 75.4045 76.3768 75.1479 75.6503 74.2565C75.0087 73.4597 74.815 72.8654 74.8029 71.7579C74.8029 71.0016 74.8634 70.6775 75.1297 70.1237C75.5051 69.3134 76.2557 68.5436 76.9579 68.2599C77.6359 67.9763 78.8829 68.0574 79.5246 68.422ZM68.144 74.9993C69.5727 75.5396 70.7107 76.4175 71.4734 77.606L71.9335 78.3218L71.3403 79.1456C70.408 80.4287 69.5242 82.7247 69.5242 83.8322C69.5242 84.1158 69.5 84.1158 66.1343 84.1158C63.5192 84.1158 62.7322 84.0753 62.6959 83.9402C62.6717 83.8592 62.5748 83.346 62.4659 82.8327C62.1995 81.6172 61.4368 79.902 60.7467 79.0241L60.2019 78.3353L60.674 77.6735C62.1027 75.6476 63.834 74.6887 66.0495 74.6752C67.006 74.6617 67.4176 74.7292 68.144 74.9993ZM56.255 78.1057C57.9258 78.754 59.2939 80.1046 60.0808 81.8873C60.3472 82.4816 60.6014 83.2244 60.6377 83.535L60.7225 84.1158H54.0394H47.3685L47.4411 83.7376C47.877 81.6847 48.8456 80.064 50.2742 78.9971C52.0902 77.66 54.2331 77.3359 56.255 78.1057ZM80.0936 78.0382C82.2486 78.7945 83.9315 80.6988 84.5853 83.1569C84.6942 83.562 84.779 83.9402 84.779 84.0077C84.779 84.0618 81.7886 84.1158 78.1202 84.1158C72.5025 84.1158 71.4613 84.0888 71.4613 83.9267C71.4613 83.4405 71.994 81.9278 72.4057 81.1985C74.0885 78.3218 77.2 77.0387 80.0936 78.0382ZM87.6241 88.4377V90.5311H59.5965H31.5689L31.5326 88.5862C31.5084 87.2762 31.5447 86.5874 31.6416 86.4658C31.7626 86.3037 36.0001 86.2767 59.7055 86.3037L87.6241 86.3443V88.4377Z" fill="#FBFBFB"/>
</g>
</g>
</svg>
