<svg width="30" height="30" viewBox="0 0 30 30" fill="none" xmlns="http://www.w3.org/2000/svg">
<g id="protection 1">
<g id="Group">
<path id="Vector" d="M11.1094 0.873034C7.4707 1.69335 7.23633 1.75194 7.10156 1.90428L6.9668 2.06249L6.98438 5.61913C7.00781 9.02342 7.01367 9.1992 7.14258 9.90233C7.75781 13.248 9.62695 16.084 12.4512 17.9473C13.002 18.3105 14.2793 18.9551 14.8066 19.1367C15.1055 19.2422 15.123 19.2422 15.4512 19.1308C15.6387 19.0664 16.1191 18.8555 16.5234 18.6562C19.5879 17.1562 21.8906 14.3848 22.8164 11.0859C23.209 9.69725 23.2207 9.56835 23.2441 5.63671L23.2676 2.05077L23.1035 1.88671C22.9512 1.73436 22.6641 1.66405 19.1777 0.884752C17.1035 0.421862 15.3105 0.0351429 15.1934 0.0234241C15.0527 0.0117054 13.5762 0.316393 11.1094 0.873034ZM18.5742 1.95702L22.0605 2.73631L22.0781 5.63085C22.0957 8.83592 22.0605 9.32811 21.7383 10.5762C21.4102 11.8535 20.8477 13.0547 20.0508 14.1797C19.541 14.9004 18.2402 16.207 17.5195 16.7168C16.957 17.1152 15.3047 17.9883 15.1172 17.9883C14.9297 17.9883 13.2773 17.1152 12.7148 16.7168C11.9883 16.2012 10.6875 14.9004 10.1836 14.1797C9.38086 13.0488 8.82422 11.8535 8.49609 10.5762C8.17383 9.32811 8.13867 8.83592 8.15625 5.63085L8.17383 2.73631L11.6309 1.95702C13.5352 1.53514 15.0879 1.18358 15.0879 1.17772C15.0879 1.17772 16.6582 1.52342 18.5742 1.95702Z" fill="#00A0D8"/>
<path id="Vector_2" d="M12.1641 2.85938C9.5918 3.44531 9.41016 3.49805 9.28125 3.65039C8.9707 4.01953 9.22266 4.57031 9.70898 4.57031C9.83203 4.57031 11.0918 4.30664 12.5098 3.99023L15.0879 3.41016L17.5078 3.94336L19.9336 4.48242L19.9043 6.73828C19.8809 8.80078 19.8691 9.04688 19.752 9.58008C19.5586 10.4355 19.3535 11.0215 18.9785 11.7598C18.2051 13.2949 17.0391 14.5195 15.5156 15.416L15.1289 15.6445L14.7715 15.4453C12.2285 14.0039 10.5469 11.3789 10.3359 8.50195C10.3008 8.01562 10.2773 7.92773 10.1309 7.76953C10.002 7.62305 9.92578 7.58789 9.72656 7.58789C9.52148 7.58789 9.45117 7.62305 9.30469 7.78711L9.12305 7.98633L9.16406 8.54883C9.39844 11.8945 11.4199 15 14.373 16.5586C14.7012 16.7285 15.0352 16.875 15.1113 16.875C15.2637 16.875 16.0195 16.5059 16.5234 16.1836C18.4453 14.959 19.9922 12.9258 20.6484 10.7695C21.0293 9.52148 21.0469 9.3457 21.0762 6.46875L21.1055 3.82031L20.9355 3.63867C20.7773 3.46875 20.6777 3.43945 17.9941 2.8418C16.4648 2.50195 15.1465 2.22656 15.0645 2.23242C14.9824 2.23828 13.6758 2.51953 12.1641 2.85938Z" fill="#00A0D8"/>
<path id="Vector_3" d="M9.31055 5.67773C9.07617 5.91211 9.07617 6.19922 9.31055 6.45703C9.45117 6.61523 9.52148 6.65039 9.71484 6.65039C10.0078 6.65039 10.2363 6.45703 10.2891 6.17578C10.3887 5.63086 9.70898 5.2793 9.31055 5.67773Z" fill="#00A0D8"/>
<path id="Vector_4" d="M15.9376 7.85742C14.8712 8.82422 13.9688 9.60938 13.9454 9.59766C13.9161 9.58594 13.6407 9.28125 13.3302 8.91797C13.0196 8.55469 12.6974 8.23242 12.6153 8.19727C12.3927 8.11523 12.1524 8.18555 11.9767 8.39648C11.713 8.70703 11.7892 8.90625 12.463 9.70898C13.3653 10.7871 13.6583 11.0742 13.8575 11.0742C13.9571 11.0742 14.1153 11.0215 14.2091 10.9629C14.5841 10.7227 18.6036 7.02539 18.6798 6.84961C18.7384 6.70898 18.7384 6.62109 18.6915 6.46875C18.6036 6.21094 18.4278 6.09375 18.129 6.09375C17.8888 6.09375 17.836 6.14062 15.9376 7.85742Z" fill="#00A0D8"/>
<path id="Vector_5" d="M3.95508 11.5665C3.49805 11.7598 3.05274 12.211 2.88868 12.6563C2.78907 12.9141 2.70118 13.6817 2.42579 16.5587C2.05079 20.5665 2.05079 20.543 2.43164 21.17C2.53125 21.3399 3.72657 22.922 5.08594 24.6915L7.5586 27.9024V28.752V29.6016L7.75782 29.8009C7.96875 30.0118 8.15039 30.047 8.40821 29.9298C8.68946 29.8009 8.73047 29.6251 8.73047 28.5704C8.73047 28.043 8.71289 27.5626 8.68946 27.504C8.67188 27.4512 7.50586 25.9161 6.09961 24.088C4.69922 22.2657 3.48633 20.6427 3.4043 20.4845L3.25782 20.2032L3.5918 16.6876C3.83204 14.1739 3.94922 13.1309 4.01368 13.002C4.29493 12.4571 5.08594 12.4805 5.40821 13.0372C5.46094 13.1192 5.48438 14.0567 5.50782 16.2305L5.53711 19.3067L5.71289 19.6466C5.99414 20.1856 8.23829 23.0626 8.44336 23.1446C8.8125 23.3028 9.22852 22.9981 9.2168 22.588C9.21094 22.418 9.09375 22.2305 8.60157 21.5802C8.0625 20.8653 7.99805 20.7598 7.99805 20.543C7.99805 20.2325 8.15039 19.9981 8.42579 19.8809C8.75391 19.7462 9.01758 19.8516 9.35743 20.2618C10.0781 21.1348 11.7656 23.42 11.9356 23.7481C12.3047 24.4688 12.3223 24.5743 12.3574 27.2579C12.3926 29.6251 12.3984 29.7071 12.5156 29.8243C12.6856 29.9942 13.0254 30.0411 13.2188 29.9122C13.541 29.7012 13.5469 29.6075 13.5234 27.0411C13.4941 24.879 13.4824 24.6622 13.3711 24.2286C13.1367 23.3673 12.8145 22.8341 11.3965 20.9766C10.6699 20.0274 10.0078 19.1837 9.91407 19.1134C9.36914 18.6446 8.53711 18.5274 7.89844 18.8321C7.69922 18.9259 7.45899 19.1075 7.30664 19.2774L7.04297 19.5704L6.87891 19.3243L6.70899 19.0841L6.67969 16.0313C6.64454 12.6739 6.65039 12.7559 6.26954 12.2227C5.90625 11.7247 5.43164 11.4727 4.77539 11.4434C4.37696 11.4259 4.25391 11.4434 3.95508 11.5665Z" fill="#00A0D8"/>
<path id="Vector_6" d="M24.6445 11.5723C24.2344 11.7423 23.8418 12.0997 23.625 12.5098L23.4668 12.8028L23.4375 15.879C23.4082 19.1251 23.4141 19.002 23.1328 19.4063L23.0273 19.5645L22.7578 19.2716C22.3594 18.8555 21.9551 18.6739 21.3926 18.668C21.0293 18.668 20.8887 18.6915 20.625 18.8204C20.4492 18.9083 20.2324 19.0372 20.1504 19.1134C19.998 19.2423 17.7539 22.1661 17.3496 22.752C17.0742 23.1622 16.8281 23.7188 16.6992 24.2755C16.5938 24.7149 16.582 24.9727 16.582 27.1993V29.6427L16.7168 29.795C16.7988 29.8946 16.9277 29.9591 17.0859 29.9825C17.2969 30.0118 17.3555 29.9884 17.5254 29.836L17.7246 29.6602L17.7539 27.1173C17.7891 24.3399 17.7832 24.4044 18.1699 23.672C18.2637 23.4962 18.9141 22.5997 19.6172 21.6798C21.0469 19.7989 21.1406 19.7169 21.5859 19.8692C21.9902 20.0098 22.2012 20.4786 22.0195 20.8184C21.9844 20.8887 21.709 21.2696 21.4043 21.668C20.9238 22.3009 20.8594 22.418 20.8594 22.6231C20.8594 23.0098 21.2344 23.2794 21.6035 23.1622C21.8027 23.0977 24.1289 20.127 24.3516 19.6466C24.4336 19.4825 24.5215 19.1895 24.5508 19.002C24.5859 18.8145 24.6094 17.42 24.6094 15.9083C24.6094 13.8223 24.627 13.1192 24.6855 13.0079C24.791 12.797 25.1191 12.5977 25.3652 12.5977C25.6055 12.5977 25.9102 12.7618 26.0449 12.9669C26.1621 13.1485 26.8242 19.9395 26.7539 20.2852C26.7246 20.4552 26.0859 21.3223 24.082 23.9356C22.6348 25.8223 21.4219 27.4161 21.3867 27.4805C21.3516 27.5391 21.3281 28.0196 21.3281 28.5938V29.6016L21.5273 29.8009C21.7383 30.0118 21.9199 30.047 22.1777 29.9298C22.4473 29.8067 22.5 29.6134 22.5 28.7286V27.92L25.0254 24.6387C26.6191 22.5704 27.6152 21.2227 27.7266 20.9884C27.8555 20.7247 27.9141 20.4962 27.9316 20.2266C27.9727 19.6583 27.334 13.0548 27.2051 12.7149C26.8242 11.672 25.6641 11.1505 24.6445 11.5723Z" fill="#00A0D8"/>
</g>
</g>
</svg>
