<svg width="43" height="40" viewBox="0 0 43 40" fill="none" xmlns="http://www.w3.org/2000/svg">
<g id="Group 1000002035">
<path id="Vector" d="M21.6918 32.0255C21.4964 32.0255 21.3175 31.9186 21.2361 31.7352C21.1383 31.4985 21.2604 31.2309 21.5046 31.1392C23.0263 30.5663 24.5235 29.894 25.9474 29.1452C26.4112 28.9007 26.9564 28.5265 26.8914 28.1522C26.8426 27.8466 26.4193 27.6021 25.6219 27.434L23.9863 27.0901C23.4331 26.9756 23.0263 26.5706 22.9367 26.0435C22.8472 25.5164 23.0994 25.0044 23.5795 24.7218L23.5958 24.7141C24.3769 24.2634 24.8815 23.591 24.9546 22.9264C24.9791 22.6895 24.9546 22.4527 24.8733 22.2388C24.6211 21.5665 23.8562 21.1922 23.2215 21.0622L23.1972 21.0547C22.7413 20.963 22.3508 20.6727 22.1636 20.2754C21.9765 19.8858 21.9927 19.4427 22.2207 19.0682C22.3996 18.7703 22.5054 18.4417 22.5136 18.1133C22.5462 17.143 21.7568 16.1573 20.756 15.9283C19.7877 15.7067 18.6486 16.1804 18.1602 17.0055C18.1359 17.0436 18.1114 17.0742 18.0789 17.1047C17.9893 17.1889 17.8672 17.2423 17.7291 17.2423C17.4604 17.2423 17.2407 17.0361 17.2407 16.7838C17.2407 16.6999 17.2652 16.6157 17.314 16.5471C18.0218 15.3629 19.5923 14.7134 20.9919 15.0343C22.4486 15.3705 23.547 16.738 23.4982 18.1438C23.4819 18.6098 23.3355 19.0835 23.0831 19.5113C22.9855 19.6719 23.0343 19.8169 23.0668 19.8858C23.1319 20.0231 23.2622 20.1148 23.4169 20.1454L23.4494 20.1531C24.5803 20.3823 25.4835 21.0547 25.809 21.9179C25.9394 22.2541 25.9882 22.6284 25.9394 23.0104C25.8335 23.9578 25.1582 24.8746 24.1247 25.4781L24.1004 25.4934C23.8805 25.6156 23.897 25.822 23.9133 25.8831C23.9295 25.9595 23.9783 26.1352 24.2143 26.181L25.8498 26.5247C26.3054 26.6241 27.705 26.9145 27.8677 28.0069C27.9735 28.7251 27.4934 29.3744 26.4358 29.9323C24.9791 30.7039 23.4411 31.3915 21.8789 31.9797C21.8138 32.018 21.7568 32.0255 21.6918 32.0255Z" fill="white"/>
<path id="Vector_2" d="M12.5209 39.1306C11.6748 39.1306 10.9912 38.4813 10.9912 37.6944C10.9912 36.8998 11.6828 36.2581 12.5209 36.2581C13.3591 36.2581 14.0506 36.9074 14.0506 37.6944C14.0506 38.489 13.3673 39.1306 12.5209 39.1306ZM12.5209 37.1749C12.2117 37.1749 11.9677 37.4116 11.9677 37.6944C11.9677 37.9848 12.2199 38.214 12.5209 38.214C12.8302 38.214 13.0744 37.977 13.0744 37.6944C13.0744 37.4041 12.8302 37.1749 12.5209 37.1749Z" fill="white"/>
<path id="Vector_3" d="M12.5213 7.21107C12.4725 7.21107 12.4155 7.21107 12.3667 7.20353C11.9599 7.16523 11.5938 6.98186 11.3334 6.68399C11.0729 6.38591 10.9508 6.01164 10.9916 5.62963C11.0324 5.24761 11.2275 4.9039 11.545 4.65941C12.1958 4.15515 13.1641 4.24684 13.7012 4.86559C13.9617 5.16367 14.0838 5.53794 14.043 5.91996C14.0022 6.30198 13.8071 6.64568 13.4896 6.89017C13.2131 7.1041 12.8713 7.21107 12.5213 7.21107ZM12.5213 5.25536C12.3992 5.25536 12.2691 5.29345 12.1715 5.36986C11.9356 5.55322 11.8948 5.88165 12.0902 6.10333C12.1878 6.21029 12.3179 6.27895 12.4645 6.29423C12.6109 6.30951 12.7573 6.26367 12.8713 6.17973C12.9852 6.08805 13.0585 5.9658 13.0747 5.82828C13.091 5.69075 13.0422 5.55322 12.9526 5.44626C12.8388 5.31648 12.6842 5.25536 12.5213 5.25536Z" fill="white"/>
<path id="Vector_4" d="M19.1368 14.6599H8.55869C8.29022 14.6599 8.07031 14.4535 8.07031 14.2015V11.3976C8.07031 11.1456 8.29022 10.9392 8.55869 10.9392H19.1368C19.4053 10.9392 19.625 11.1456 19.625 11.3976V14.2015C19.625 14.4613 19.4053 14.6599 19.1368 14.6599ZM9.04683 13.7431H18.6487V11.856H9.04683V13.7431Z" fill="white"/>
<path id="Vector_5" d="M22.8227 33.8209H15.4586C15.1901 33.8209 14.9702 33.6147 14.9702 33.3625C14.9702 33.1104 15.1901 32.9041 15.4586 32.9041H22.8227C23.0911 32.9041 23.3108 33.1104 23.3108 33.3625C23.3108 33.6147 23.0911 33.8209 22.8227 33.8209Z" fill="white"/>
<path id="Vector_6" d="M17.7369 18.2813H15.4586C15.1901 18.2813 14.9702 18.0749 14.9702 17.8229C14.9702 17.5709 15.1901 17.3645 15.4586 17.3645H17.7369C18.0054 17.3645 18.225 17.5709 18.225 17.8229C18.225 18.0749 18.0054 18.2813 17.7369 18.2813Z" fill="white"/>
<path id="Vector_7" d="M17.7369 20.8712H15.4586C15.1901 20.8712 14.9702 20.6648 14.9702 20.4128C14.9702 20.1605 15.1901 19.9543 15.4586 19.9543H17.7369C18.0054 19.9543 18.225 20.1605 18.225 20.4128C18.225 20.6648 18.0054 20.8712 17.7369 20.8712Z" fill="white"/>
<path id="Vector_8" d="M17.7044 23.4613H15.4586C15.1901 23.4613 14.9702 23.2549 14.9702 23.0029C14.9702 22.7506 15.1901 22.5444 15.4586 22.5444H17.7044C17.9728 22.5444 18.1925 22.7506 18.1925 23.0029C18.1925 23.2549 17.9811 23.4613 17.7044 23.4613Z" fill="white"/>
<path id="Vector_9" d="M18.0461 26.0511H15.4586C15.1901 26.0511 14.9702 25.8447 14.9702 25.5927C14.9702 25.3405 15.1901 25.1343 15.4586 25.1343H18.0461C18.3146 25.1343 18.5343 25.3405 18.5343 25.5927C18.5343 25.8447 18.3146 26.0511 18.0461 26.0511Z" fill="white"/>
<path id="Vector_10" d="M21.1951 31.2308H15.4586C15.1901 31.2308 14.9702 31.0246 14.9702 30.7724C14.9702 30.5204 15.1901 30.314 15.4586 30.314H21.1951C21.4636 30.314 21.6833 30.5204 21.6833 30.7724C21.6833 31.0246 21.4636 31.2308 21.1951 31.2308Z" fill="white"/>
<path id="Vector_11" d="M24.45 36.4107H15.4586C15.1901 36.4107 14.9702 36.2046 14.9702 35.9523C14.9702 35.7003 15.1901 35.4939 15.4586 35.4939H24.45C24.7184 35.4939 24.9381 35.7003 24.9381 35.9523C24.9381 36.2046 24.7184 36.4107 24.45 36.4107Z" fill="white"/>
<path id="Vector_12" d="M18.4694 29.5349C17.8429 29.5349 17.2082 29.3896 16.7281 29.1071L16.2074 28.8015C15.7518 28.5339 15.1903 28.45 14.6694 28.5645L12.9933 28.9312C12.0656 29.1376 11.0811 28.9084 10.3567 28.3353C9.99069 28.0452 9.52683 27.8846 9.03868 27.8846H8.99791C8.72944 27.8846 8.50977 27.6784 8.50977 27.4262C8.50977 27.1742 8.72944 26.9678 8.99791 26.9678H9.03868C9.75475 26.9678 10.4463 27.2047 10.9832 27.6401C11.4716 28.0299 12.1389 28.1827 12.7654 28.0452L14.4415 27.6784C15.2146 27.5103 16.0528 27.6326 16.7281 28.0299L17.249 28.3353C17.8835 28.7098 18.9821 28.725 19.6331 28.3658C19.869 28.2361 20.162 28.3125 20.3004 28.5264C20.4387 28.7479 20.3572 29.0229 20.1295 29.1529C19.6494 29.4049 19.0634 29.5349 18.4694 29.5349Z" fill="white"/>
<g id="Clip path group">
<mask id="mask0_2583_1185" style="mask-type:luminance" maskUnits="userSpaceOnUse" x="0" y="13" width="28" height="27">
<g id="d4a32f44ea">
<path id="Vector_13" d="M0.476074 13.729H27.2166V40.0001H0.476074V13.729Z" fill="white"/>
</g>
</mask>
<g mask="url(#mask0_2583_1185)">
<g id="Group">
<path id="Vector_14" d="M26.7204 40.0246H0.974671C0.795539 40.0246 0.640918 39.9329 0.551581 39.7954C0.462016 39.6579 0.470033 39.4745 0.559599 39.337L8.86768 26.1962C9.3233 25.4705 9.56748 24.6454 9.56748 23.7974V14.2016C9.56748 13.9493 9.78716 13.7432 10.0556 13.7432H17.7532C17.8834 13.7432 18.0054 13.789 18.1033 13.8807C18.2008 13.9724 18.2496 14.0869 18.2414 14.2091L18.1926 23.7974C18.1846 24.6454 18.4285 25.4781 18.8844 26.204L27.1434 39.337C27.233 39.482 27.233 39.6579 27.1434 39.7954C27.0621 39.9329 26.8993 40.0246 26.7204 40.0246ZM1.83711 39.1078H25.8659L18.0462 26.6699C17.501 25.799 17.2081 24.8057 17.2163 23.7897L17.2651 14.66H10.5438V23.7974C10.5438 24.8057 10.2508 25.799 9.70561 26.6622L1.83711 39.1078Z" fill="white"/>
</g>
</g>
</g>
<path id="Vector_15" d="M12.5209 32.1782C11.6748 32.1782 10.9912 31.5289 10.9912 30.7418C10.9912 29.9475 11.6828 29.3057 12.5209 29.3057C13.3591 29.3057 14.0506 29.955 14.0506 30.7418C14.0506 31.5364 13.3673 32.1782 12.5209 32.1782ZM12.5209 30.2148C12.2117 30.2148 11.9677 30.4515 11.9677 30.7343C11.9677 31.0246 12.2199 31.2538 12.5209 31.2538C12.8302 31.2538 13.0744 31.0169 13.0744 30.7343C13.0744 30.4515 12.8302 30.2148 12.5209 30.2148Z" fill="white"/>
<path id="Vector_16" d="M9.02262 35.769C8.17622 35.769 7.49268 35.1197 7.49268 34.3329C7.49268 33.5383 8.18446 32.8965 9.02262 32.8965C9.86056 32.8965 10.5523 33.5458 10.5523 34.3329C10.5523 35.1272 9.8688 35.769 9.02262 35.769ZM9.02262 33.8056C8.71338 33.8056 8.46919 34.0425 8.46919 34.3251C8.46919 34.6155 8.7214 34.8447 9.02262 34.8447C9.33164 34.8447 9.57582 34.6077 9.57582 34.3251C9.57582 34.0425 9.33164 33.8056 9.02262 33.8056Z" fill="white"/>
<g id="Clip path group_2">
<mask id="mask1_2583_1185" style="mask-type:luminance" maskUnits="userSpaceOnUse" x="19" y="0" width="11" height="9">
<g id="23e40d8a14">
<path id="Vector_17" d="M19.2998 0H29.738V8.66004H19.2998V0Z" fill="white"/>
</g>
</mask>
<g mask="url(#mask1_2583_1185)">
<g id="Group_2">
<path id="Vector_18" d="M21.2519 8.65488C21.2356 8.65488 21.2193 8.65488 21.2031 8.65488C21.0727 8.6396 20.9589 8.58623 20.8776 8.48679L19.4372 6.82895C19.2663 6.6303 19.2988 6.34772 19.5105 6.18716L27.4523 0.0981487C27.5499 0.0217455 27.68 -0.0163485 27.8103 -0.00106794C27.9404 0.0142127 28.0543 0.0675874 28.1358 0.167019L29.576 1.82486C29.7469 2.02351 29.7143 2.30609 29.5027 2.46665L21.5611 8.55566C21.4715 8.62432 21.3657 8.65488 21.2519 8.65488ZM20.495 6.60749L21.3169 7.55489L28.5019 2.04632L27.68 1.09914L20.495 6.60749Z" fill="white"/>
</g>
</g>
</g>
<path id="Vector_19" d="M36.3383 15.5691C36.2 15.5691 36.0536 15.508 35.964 15.4011C35.7931 15.2024 35.8257 14.9198 36.0373 14.7593L37.8763 13.3459C38.088 13.1856 38.389 13.2161 38.5598 13.4148C38.7307 13.6134 38.6982 13.896 38.4865 14.0564L36.6476 15.4699C36.558 15.5311 36.4442 15.5691 36.3383 15.5691Z" fill="white"/>
<path id="Vector_20" d="M37.8353 17.2959C37.6972 17.2959 37.5506 17.2348 37.461 17.1278C37.2901 16.9292 37.3229 16.6464 37.5343 16.486L39.3733 15.0727C39.5849 14.9121 39.8859 14.9427 40.0568 15.1413C40.2277 15.34 40.1952 15.6228 39.9835 15.7831L38.1446 17.1965C38.0552 17.2576 37.9494 17.2959 37.8353 17.2959Z" fill="white"/>
<path id="Vector_21" d="M28.8276 6.93585C28.6892 6.93585 28.5429 6.87473 28.4533 6.76776C28.2824 6.56911 28.3149 6.28653 28.5266 6.12598L30.3656 4.71262C30.577 4.55228 30.8782 4.58284 31.0491 4.78149C31.22 4.98014 31.1874 5.26273 30.9758 5.42328L29.1368 6.83663C29.0473 6.89776 28.9334 6.93585 28.8276 6.93585Z" fill="white"/>
<path id="Vector_22" d="M30.3335 8.66259C30.1951 8.66259 30.0485 8.60147 29.9592 8.4945C29.7883 8.29585 29.8208 8.01305 30.0322 7.85271L31.8714 6.43936C32.0829 6.27881 32.3839 6.30937 32.5547 6.50802C32.7256 6.70666 32.6931 6.98946 32.4817 7.1498L30.6427 8.56316C30.5449 8.62428 30.4393 8.66259 30.3335 8.66259Z" fill="white"/>
<path id="Vector_23" d="M31.8305 10.389C31.6922 10.389 31.5458 10.3279 31.4562 10.2209C31.2853 10.0222 31.3179 9.73965 31.5295 9.57931L33.3685 8.16575C33.5799 8.00541 33.8811 8.03597 34.052 8.23462C34.2227 8.43327 34.1901 8.71585 33.9787 8.87641L32.1398 10.2898C32.0502 10.3509 31.9444 10.389 31.8305 10.389Z" fill="white"/>
<path id="Vector_24" d="M33.3359 12.1158C33.1975 12.1158 33.0509 12.0547 32.9616 11.9477C32.7907 11.7491 32.8233 11.4665 33.0347 11.3059L34.8736 9.89257C35.0853 9.73223 35.3863 9.76279 35.5572 9.96123C35.7281 10.1599 35.6955 10.4427 35.4839 10.603L33.6449 12.0164C33.5556 12.0775 33.4415 12.1158 33.3359 12.1158Z" fill="white"/>
<path id="Vector_25" d="M34.833 13.8425C34.6946 13.8425 34.548 13.7814 34.4587 13.6744C34.2878 13.4758 34.3203 13.193 34.5318 13.0326L36.3707 11.6193C36.5824 11.4587 36.8834 11.4893 37.0543 11.6879C37.2251 11.8866 37.1926 12.1692 36.9812 12.3297L35.1422 13.7356C35.0527 13.8042 34.9468 13.8425 34.833 13.8425Z" fill="white"/>
<path id="Vector_26" d="M39.3408 19.0222C39.2024 19.0222 39.056 18.9611 38.9665 18.8541C38.7956 18.6554 38.8281 18.3729 39.0398 18.2123L40.7974 16.8678C41.0089 16.7073 41.3101 16.7378 41.481 16.9365C41.6516 17.1351 41.6191 17.4179 41.4077 17.5783L39.65 18.923C39.5604 18.9841 39.4466 19.0222 39.3408 19.0222Z" fill="white"/>
<path id="Vector_27" d="M33.303 18.1283C33.2542 18.1283 33.1974 18.1283 33.1486 18.1206C32.7416 18.0825 32.3755 17.8991 32.1151 17.6012C31.5781 16.99 31.6757 16.0807 32.3347 15.5767C32.6522 15.3322 33.0508 15.2175 33.4576 15.2558C33.8647 15.2939 34.2307 15.4772 34.4912 15.7753C34.7514 16.0732 34.8735 16.4475 34.833 16.8295C34.7922 17.2115 34.597 17.5554 34.2795 17.7999C33.9948 18.0136 33.653 18.1283 33.303 18.1283ZM33.295 16.1649C33.1649 16.1649 33.0428 16.203 32.945 16.2794C32.709 16.4627 32.6685 16.7914 32.8637 17.0128C32.9615 17.1198 33.0916 17.1887 33.238 17.204C33.3846 17.2192 33.5309 17.1734 33.6448 17.0892C33.7589 16.9976 33.8319 16.8753 33.8482 16.7378C33.8647 16.6003 33.8157 16.4627 33.7263 16.3558C33.6285 16.2488 33.4984 16.1801 33.352 16.1649C33.3358 16.1649 33.3195 16.1649 33.295 16.1649Z" fill="white"/>
<path id="Vector_28" d="M37.1767 21.0316C37.1279 21.0316 37.0708 21.0316 37.022 21.0241C36.6152 20.9858 36.2492 20.8024 35.9887 20.5046C35.4515 19.8933 35.5494 18.9843 36.2084 18.48C36.5256 18.2355 36.9244 18.1208 37.3313 18.1591C37.7381 18.1972 38.1044 18.3806 38.3646 18.6786C38.6251 18.9765 38.7471 19.351 38.7064 19.733C38.6658 20.1148 38.4704 20.4587 38.1532 20.7032C37.8684 20.9171 37.5267 21.0316 37.1767 21.0316ZM37.1686 19.0682C37.0383 19.0682 36.9162 19.1065 36.8186 19.1829C36.5827 19.3663 36.5419 19.6947 36.7373 19.9164C36.8349 20.0233 36.9652 20.092 37.1116 20.1073C37.258 20.1226 37.4046 20.0767 37.5184 19.9928C37.6323 19.9011 37.7056 19.7788 37.7218 19.6413C37.7381 19.5038 37.6893 19.3663 37.5997 19.2593C37.5022 19.1523 37.372 19.0835 37.2254 19.0682C37.2092 19.0682 37.1929 19.0682 37.1686 19.0682Z" fill="white"/>
<path id="Vector_29" d="M31.0411 12.0242C30.919 12.0242 30.7889 12.0623 30.6913 12.1387C30.4554 12.3221 30.4146 12.6507 30.61 12.8722C30.7076 12.9792 30.8377 13.048 30.9843 13.0633C31.1306 13.0786 31.277 13.0327 31.3911 12.9486C31.5049 12.8569 31.5782 12.7347 31.5945 12.5971C31.6108 12.4596 31.562 12.3221 31.4724 12.2151C31.3666 12.0929 31.2039 12.0242 31.0411 12.0242ZM31.0493 13.9877C31.0005 13.9877 30.9435 13.9877 30.8947 13.9799C30.4879 13.9418 30.1216 13.7585 29.8611 13.4606C29.3242 12.8494 29.4218 11.9401 30.0811 11.436C30.7318 10.9318 31.7003 11.0234 32.2373 11.6422C32.4977 11.9401 32.6198 12.3146 32.579 12.6966C32.5383 13.0786 32.3431 13.4223 32.0256 13.6668C31.7409 13.873 31.3991 13.9877 31.0493 13.9877Z" fill="white"/>
<path id="Vector_30" d="M19.926 1.15256C19.8039 1.15256 19.6735 1.19087 19.5759 1.26727C19.34 1.45064 19.2992 1.77906 19.4946 2.00053C19.5922 2.10749 19.7225 2.17636 19.8689 2.19164C20.0153 2.20692 20.1619 2.16108 20.2757 2.07693C20.5117 1.89356 20.5525 1.56514 20.3571 1.34367C20.2512 1.21368 20.0886 1.15256 19.926 1.15256ZM19.934 3.10848C19.8852 3.10848 19.8281 3.10848 19.7794 3.10073C19.3725 3.06264 19.0065 2.87927 18.746 2.58119C18.2089 1.96996 18.3067 1.06087 18.9657 0.556612C19.6167 0.0523508 20.585 0.144035 21.1219 0.763009C21.6591 1.37423 21.5615 2.28333 20.9022 2.78759C20.6175 3.00152 20.284 3.10848 19.934 3.10848Z" fill="white"/>
<path id="Vector_31" d="M15.4666 9.9764C15.0193 9.9764 14.5797 9.79303 14.2787 9.44933C14.0182 9.15146 13.8961 8.77698 13.9369 8.39496C13.9777 8.01295 14.1728 7.66924 14.4903 7.42475C14.8076 7.18026 15.2064 7.06576 15.6132 7.10386C16.0201 7.14217 16.3861 7.32553 16.6466 7.6234C16.907 7.92126 17.0291 8.29575 16.9883 8.67776C16.9476 9.05978 16.7524 9.40349 16.4349 9.64798C16.1502 9.86944 15.8084 9.9764 15.4666 9.9764ZM15.4666 8.01295C15.3365 8.01295 15.2144 8.05126 15.1168 8.12766C15.003 8.21934 14.9297 8.34159 14.9134 8.47911C14.8972 8.61664 14.946 8.75417 15.0355 8.86113C15.2307 9.08259 15.5807 9.1209 15.8166 8.93753C15.9305 8.84585 16.0038 8.7236 16.0201 8.58608C16.0363 8.44855 15.9875 8.31103 15.898 8.20406C15.8084 8.0971 15.67 8.02823 15.5237 8.01295C15.4992 8.01295 15.4829 8.01295 15.4666 8.01295Z" fill="white"/>
<path id="Vector_32" d="M37.1521 23.7821C37.0138 23.7821 36.8672 23.7743 36.7208 23.759C35.6059 23.6521 34.6051 23.1478 33.8973 22.3304L21.4637 8.0361C21.3824 7.94442 21.3416 7.82217 21.3581 7.69993C21.3744 7.57768 21.4312 7.47072 21.537 7.39431L28.2256 2.26023C28.4372 2.09989 28.7382 2.13045 28.9091 2.3291L41.3427 16.6234C42.0505 17.4408 42.376 18.4646 42.2702 19.5037C42.1564 20.5503 41.6192 21.49 40.7485 22.1546L39.7885 22.888C39.0399 23.4687 38.1122 23.7821 37.1521 23.7821ZM22.5298 7.81442L34.6539 21.7575C35.7768 23.0486 37.8029 23.2395 39.1783 22.1851L40.1383 21.4519C40.8056 20.9399 41.2206 20.2217 41.3019 19.4195C41.3915 18.6174 41.1393 17.8306 40.5941 17.2041L28.4698 3.26122L22.5298 7.81442Z" fill="white"/>
</g>
</svg>
