<svg width="30" height="30" viewBox="0 0 30 30" fill="none" xmlns="http://www.w3.org/2000/svg">
<g id="la-satisfaction 1" clip-path="url(#clip0_1510_268)">
<g id="Group">
<path id="Vector" d="M14.6484 0.363283C14.4785 0.474611 14.3438 0.703126 13.8516 1.69922L13.2598 2.90625L11.9531 3.09961C11.2266 3.20508 10.5703 3.32813 10.4824 3.36914C10.3125 3.45703 10.1367 3.7793 10.1367 3.99609C10.1367 4.23047 10.3301 4.46484 11.2617 5.35547L12.1699 6.22266L11.9414 7.54688C11.8184 8.2793 11.7305 8.93555 11.748 9.01172C11.8066 9.25781 12.082 9.49805 12.3398 9.5332C12.5625 9.5625 12.6797 9.51563 13.7695 8.94141C14.4199 8.60156 14.9766 8.32031 15.0059 8.32031C15.041 8.32031 15.5859 8.5957 16.2305 8.93555C16.9219 9.30469 17.4551 9.55078 17.5547 9.55078C17.7949 9.55078 18.0879 9.35156 18.1992 9.12305C18.2871 8.93555 18.2812 8.85938 18.0645 7.57617L17.8301 6.22266L18.7383 5.35547C19.6699 4.45899 19.8633 4.23047 19.8633 3.99609C19.8633 3.77344 19.6875 3.45703 19.5117 3.36914C19.418 3.32227 18.7617 3.19922 18.041 3.09375L16.7402 2.90625L16.1484 1.70508C15.7734 0.94922 15.5039 0.462893 15.4102 0.398439C15.1641 0.216799 14.8828 0.20508 14.6484 0.363283ZM15.3867 3.29297C15.5918 3.71484 15.791 4.05469 15.8789 4.11328C15.9961 4.19531 17.2793 4.44727 17.6016 4.45313C17.625 4.45313 17.373 4.72266 17.0332 5.05078C16.6289 5.44922 16.4121 5.70703 16.3945 5.8125C16.3711 5.94727 16.4648 6.63867 16.6055 7.40039C16.6406 7.56445 16.6348 7.56445 15.9023 7.17773C15.498 6.9668 15.0996 6.79688 15.0059 6.79688C14.9121 6.79688 14.5078 6.9668 14.0977 7.17773L13.3594 7.56445L13.3945 7.40039C13.5352 6.63867 13.6289 5.94727 13.6055 5.8125C13.5879 5.70703 13.3711 5.44922 12.9668 5.05078C12.6328 4.72266 12.3809 4.45313 12.4043 4.45313C12.7266 4.44727 14.0039 4.19531 14.1211 4.11328C14.209 4.05469 14.4082 3.71484 14.6133 3.29297C14.8066 2.90039 14.9824 2.57813 15 2.57813C15.0176 2.57813 15.1934 2.90039 15.3867 3.29297Z" fill="#00A0D8"/>
<path id="Vector_2" d="M2.80078 6.01173C2.4668 6.18752 2.44336 6.32228 2.49023 7.82228L2.53711 9.18751L1.49414 9.96095C0.480469 10.7227 0.234375 10.9688 0.234375 11.2383C0.234375 11.4024 0.357422 11.6543 0.503906 11.7891C0.568359 11.8418 1.19531 12.0469 1.9043 12.2461L3.19336 12.6094L3.56836 13.7168C3.77344 14.3262 3.99023 14.9297 4.04883 15.0527C4.23047 15.4629 4.75195 15.6035 5.08008 15.3281C5.17383 15.2461 5.56641 14.7129 5.94727 14.1328L6.64453 13.084L8.02734 13.043C9.21094 13.0078 9.42188 12.9902 9.55078 12.8965C9.76172 12.75 9.91992 12.4043 9.87305 12.1875C9.84961 12.0879 9.46875 11.5488 9 10.9512L8.16211 9.8965L8.47852 8.88869C8.94141 7.41798 8.96484 7.30665 8.90039 7.06642C8.87109 6.95509 8.77734 6.80861 8.69531 6.74415C8.38477 6.49806 8.25586 6.5215 6.89648 7.0254L5.625 7.49416L4.5 6.70314C3.29883 5.85939 3.16992 5.80666 2.80078 6.01173ZM5.0625 8.81251C5.37891 9.02345 5.5957 9.00587 6.41602 8.70119C6.79688 8.56056 7.11914 8.44923 7.125 8.45509C7.13086 8.46095 7.03125 8.79494 6.9082 9.19923C6.78516 9.60353 6.67969 10.002 6.67969 10.084C6.67969 10.2598 6.82031 10.4824 7.35938 11.1504L7.75195 11.6309L6.86719 11.6602C5.82422 11.6953 5.91211 11.6426 5.30273 12.5567L4.875 13.1953L4.62891 12.457C4.49414 12.0527 4.33594 11.6602 4.27148 11.5781C4.19531 11.4785 4.01953 11.3906 3.74414 11.3086C3.52148 11.2442 3.15234 11.1387 2.92383 11.0684L2.50781 10.9512L3.08789 10.5235C4.00781 9.83205 3.96094 9.93165 3.9375 8.89455L3.91406 8.00978L4.37695 8.33205C4.62891 8.51369 4.93945 8.72462 5.0625 8.81251Z" fill="#00A0D8"/>
<path id="Vector_3" d="M25.5 6.709L24.3808 7.49416L23.1035 7.02541C21.7441 6.5215 21.6152 6.49806 21.3047 6.74416C21.2226 6.80861 21.1289 6.96095 21.0937 7.08986C21.041 7.28908 21.0703 7.43556 21.4336 8.60158L21.8379 9.8965L21 10.9512C20.5312 11.5488 20.1504 12.0879 20.1269 12.1875C20.0801 12.4043 20.2383 12.75 20.4492 12.8965C20.5722 12.9903 20.7949 13.0078 21.9726 13.043L23.3554 13.084L24.0527 14.1328C24.4336 14.7129 24.8261 15.2461 24.9199 15.3281C25.125 15.5039 25.4414 15.5156 25.6992 15.3574C25.9101 15.2285 25.9336 15.1699 26.4726 13.5938L26.8066 12.6094L28.1074 12.2461C29.4258 11.877 29.5312 11.8242 29.7011 11.502C29.9062 11.1035 29.7246 10.8692 28.5 9.94924L27.4687 9.1758L27.5097 7.81642C27.5566 6.31056 27.5332 6.18166 27.1875 6.00588C26.8183 5.81252 26.7011 5.85939 25.5 6.709ZM26.0625 8.90041C26.039 9.9258 25.9804 9.80861 26.8828 10.4942L27.4863 10.9512L27.0761 11.0684C26.8476 11.1387 26.4785 11.2442 26.2558 11.3086C25.9804 11.3906 25.8047 11.4785 25.7285 11.5781C25.664 11.6602 25.5058 12.0528 25.3711 12.457L25.125 13.1953L24.6972 12.5567C24.0879 11.6426 24.1758 11.6953 23.1328 11.6602L22.248 11.6309L22.6406 11.1504C23.1797 10.4824 23.3203 10.2598 23.3203 10.084C23.3203 10.002 23.2148 9.60353 23.0918 9.19924C22.9687 8.79494 22.8691 8.46095 22.8808 8.44924C22.8867 8.44338 23.209 8.5547 23.5898 8.70119C23.9707 8.84767 24.3867 8.96486 24.5039 8.96486C24.7148 8.96486 24.9726 8.81838 25.7695 8.23244C25.9219 8.12111 26.0508 8.02736 26.0625 8.02736C26.0742 8.02736 26.0742 8.41994 26.0625 8.90041Z" fill="#00A0D8"/>
<path id="Vector_4" d="M14.7363 11.0684C14.6719 11.0977 14.5547 11.1915 14.4727 11.2794L14.3262 11.4376L14.3086 13.3887L14.291 15.3399L13.6641 16.3536L13.0371 17.3672L12.2754 17.877L11.5137 18.3809L11.4785 17.9473C11.4551 17.5606 11.4316 17.4961 11.2617 17.3262L11.0742 17.1387H8.4375H5.80078L5.61328 17.3321L5.41992 17.5196V23.4376V29.3555L5.61328 29.543L5.80078 29.7364H8.4375H11.0742L11.2266 29.5782L11.3848 29.42L11.5957 29.5313C12.0527 29.7598 12.3223 29.7715 17.5195 29.754L22.5293 29.7364L22.8867 29.5723C23.3379 29.3614 23.7363 28.9629 23.9473 28.5059C24.0879 28.2071 24.1113 28.0782 24.1113 27.6563C24.1113 27.2403 24.0879 27.1055 23.959 26.8301L23.8008 26.4961L24.0234 26.2794C24.1465 26.1563 24.3223 25.8985 24.416 25.6993C24.5566 25.3946 24.5801 25.2657 24.5801 24.8438C24.5801 24.4278 24.5566 24.293 24.4277 24.0176L24.2695 23.6836L24.4922 23.4669C24.6152 23.3438 24.791 23.086 24.8848 22.8868C25.0254 22.5821 25.0488 22.4532 25.0488 22.0313C25.0488 21.6094 25.0254 21.4805 24.8848 21.1817C24.7969 20.9883 24.6797 20.7891 24.627 20.7305C24.5391 20.6309 24.5391 20.6192 24.627 20.5196C24.6797 20.461 24.7969 20.2618 24.8848 20.0684C25.0254 19.7696 25.0488 19.6407 25.0488 19.2188C25.0488 18.7969 25.0254 18.668 24.8848 18.3692C24.6738 17.9122 24.2754 17.5137 23.8242 17.3028L23.4668 17.1387L20.9941 17.1211L18.5273 17.1036L18.5039 15.3047C18.4805 13.793 18.4629 13.4532 18.375 13.1836C18.0293 12.1114 17.332 11.4434 16.2598 11.1622C15.8379 11.0508 14.9004 10.9922 14.7363 11.0684ZM16.1367 12.6036C16.5059 12.7383 16.8633 13.0958 16.9922 13.459C17.0508 13.6231 17.0801 14.2559 17.1035 15.8907L17.1387 18.1055L17.332 18.293L17.5195 18.4864L20.3906 18.5157L23.2617 18.545L23.4492 18.7383C23.6133 18.9024 23.6426 18.9669 23.6426 19.2188C23.6426 19.4708 23.6133 19.5352 23.4492 19.6993L23.2617 19.8926L22.2656 19.9219L21.2695 19.9512L21.082 20.1446C20.918 20.3086 20.8887 20.3731 20.8887 20.6251C20.8887 20.877 20.918 20.9415 21.082 21.1055L21.2695 21.2989L22.2656 21.3282L23.2617 21.3575L23.4492 21.5508C23.6133 21.7149 23.6426 21.7794 23.6426 22.0313C23.6426 22.2833 23.6133 22.3477 23.4492 22.5118L23.2617 22.7051L22.2656 22.7344L21.2695 22.7637L21.082 22.9571C20.918 23.1211 20.8887 23.1856 20.8887 23.4376C20.8887 23.6895 20.918 23.754 21.082 23.918L21.2695 24.1114L22.0312 24.1407L22.793 24.17L22.9805 24.3633C23.1445 24.5274 23.1738 24.5919 23.1738 24.8438C23.1738 25.0958 23.1445 25.1602 22.9805 25.3243L22.793 25.5176L22.0312 25.5469L21.2695 25.5762L21.082 25.7696C20.918 25.9336 20.8887 25.9981 20.8887 26.2501C20.8887 26.4961 20.918 26.5665 21.0762 26.7305C21.252 26.9004 21.2988 26.918 21.7969 26.9532C22.2949 26.9883 22.3418 27.0059 22.5176 27.1758C22.6758 27.3399 22.7051 27.4102 22.7051 27.6563C22.7051 27.9083 22.6758 27.9727 22.5117 28.1368L22.3242 28.3301H17.2969H12.2695L12.0293 28.1719C11.9004 28.084 11.7305 27.9141 11.6543 27.7911L11.5137 27.5684L11.4961 23.8184L11.4844 20.0684L12.6973 19.2774C14.0977 18.3692 14.2148 18.2754 14.3203 18.0235C14.3613 17.9239 14.6836 17.379 15.0352 16.8165L15.6738 15.7911L15.6914 14.1329C15.7031 13.1836 15.7324 12.4805 15.7617 12.4805C15.791 12.4805 15.9609 12.5333 16.1367 12.6036ZM10.0781 23.4376V28.3594H8.4375H6.79688V23.4376V18.5157H8.4375H10.0781V23.4376Z" fill="#00A0D8"/>
<path id="Vector_5" d="M8.17383 26.5957C7.91016 26.7129 7.76367 26.9473 7.76367 27.252C7.76367 27.498 7.79297 27.5625 7.95703 27.7266C8.12109 27.8906 8.18555 27.9199 8.4375 27.9199C8.68945 27.9199 8.75391 27.8906 8.91797 27.7266C9.08203 27.5625 9.11133 27.498 9.11133 27.2461C9.11133 27 9.08203 26.9297 8.92969 26.7715C8.73633 26.5781 8.39062 26.502 8.17383 26.5957Z" fill="#00A0D8"/>
</g>
</g>
<defs>
<clipPath id="clip0_1510_268">
<rect width="30" height="30" fill="white"/>
</clipPath>
</defs>
</svg>
