<svg width="119" height="119" viewBox="0 0 119 119" fill="none" xmlns="http://www.w3.org/2000/svg">
<g id="icon">

<g id="Group 1000002037">
<path id="Vector" d="M88.7548 76.7022L83.0694 71.8505L75.989 65.8088C77.7483 63.7355 78.6957 61.2474 78.6957 58.6391C78.6957 55.3631 77.1992 52.2779 74.4826 49.9598C71.7663 47.6418 68.1558 46.3645 64.3117 46.3645C60.4681 46.3645 56.8575 47.6418 54.1408 49.9598C51.4246 52.2779 49.9277 55.3591 49.9277 58.6391C49.9277 61.915 51.4246 65.0003 54.1408 67.3183C56.8575 69.6363 60.4681 70.9136 64.3117 70.9136C67.3685 70.9136 70.2841 70.1048 72.7138 68.6037L79.7942 74.6455L85.4796 79.4972C86.3834 80.2685 87.8462 80.2685 88.75 79.4972C89.6538 78.7258 89.6538 77.4735 88.7548 76.7022ZM72.3495 65.4978C67.9175 69.2797 60.7111 69.2797 56.2791 65.4978C51.8472 61.7159 51.8472 55.5663 56.2791 51.7844C60.7111 48.0025 67.9175 48.0025 72.3495 51.7844C76.781 55.5663 76.781 61.7159 72.3495 65.4978Z" fill="#FBFBFB"/>
<path id="Vector_2" d="M35.8833 65.5308H40.3735V70.109H35.8833V65.5308Z" fill="#FBFBFB"/>
<path id="Vector_3" d="M42.5903 62.6696H47.0801V70.1046H42.5903V62.6696Z" fill="#FBFBFB"/>
<path id="Vector_4" d="M62.6982 66.7333C63.2278 66.808 63.7674 66.8496 64.3117 66.8496C65.3031 66.8496 66.27 66.7208 67.1885 66.4805V55.2345H62.6982V66.7333Z" fill="#FBFBFB"/>
<path id="Vector_5" d="M55.9971 62.7649C56.405 63.3662 56.9104 63.9303 57.5129 64.4444C58.3831 65.1867 59.3935 65.767 60.4873 66.1736V58.0917H55.9971V62.7649Z" fill="#FBFBFB"/>
<path id="Vector_6" d="M49.291 63.6566V70.1091H53.7812V69.0599C53.4847 68.8399 53.1934 68.6077 52.9115 68.3674C51.3128 67.0072 50.093 65.4024 49.291 63.6566Z" fill="#FBFBFB"/>
<path id="Vector_7" d="M39.7715 46.5675H52.9793V47.9983H39.7715V46.5675Z" fill="#FBFBFB"/>
<path id="Vector_8" d="M39.7715 49.9432H49.291V51.374H39.7715V49.9432Z" fill="#FBFBFB"/>
<path id="Vector_9" d="M39.7715 53.2024H47.0798V54.6332H39.7715V53.2024Z" fill="#FBFBFB"/>
<path id="Vector_10" d="M39.8052 42.9309H69.7057V44.3617H39.8052V42.9309Z" fill="#FBFBFB"/>
<g id="Clip path group">
<mask id="mask0_687_1014" style="mask-type:luminance" maskUnits="userSpaceOnUse" x="29" y="29" width="51" height="60">
<g id="d7f944ca59">
<path id="Vector_11" d="M29.5713 29.1943H79.981V88.8983H29.5713V29.1943Z" fill="white"/>
</g>
</mask>
<g mask="url(#mask0_687_1014)">
<g id="Group">
<path id="Vector_12" d="M78.6227 77.9668C77.933 77.9668 77.374 78.4437 77.374 79.0325V86.7995H32.0739V31.3282H77.374V49.7274C77.374 50.3162 77.933 50.7931 78.6227 50.7931C79.3129 50.7931 79.8718 50.3162 79.8718 49.7274V29.5449C79.8718 29.3503 79.6871 29.1927 79.4588 29.1927H29.9844C29.756 29.1927 29.5713 29.3503 29.5713 29.5449V88.5868C29.5713 88.7819 29.756 88.9394 29.9844 88.9394H79.4635C79.6918 88.9394 79.8766 88.7819 79.8766 88.5868V79.0369C79.8766 78.4481 79.3129 77.9668 78.6227 77.9668Z" fill="#FBFBFB"/>
</g>
</g>
</g>
<path id="Vector_13" d="M44.3637 39.3232L44.9956 41.2058H46.4631L44.15 34.3887H42.4054L40.0776 41.2058H41.5016L42.1089 39.3232H44.3637ZM42.8621 36.7648C42.9885 36.3541 43.1098 35.8275 43.2169 35.4047H43.2458C43.3576 35.8235 43.4793 36.3376 43.6153 36.7689L44.1548 38.4153H42.3225L42.8621 36.7648Z" fill="#FBFBFB"/>
<path id="Vector_14" d="M47.1914 34.3887V38.4274C47.1914 40.4389 48.2459 41.3096 49.9711 41.3096C51.7351 41.3096 52.8673 40.4054 52.8673 38.4068V34.3887H51.468V38.5187C51.468 39.7876 50.9138 40.3226 50.0151 40.3226C49.1743 40.3226 48.5959 39.7835 48.5959 38.5187V34.3887H47.1914Z" fill="#FBFBFB"/>
<path id="Vector_15" d="M60.5898 37.644C60.5898 36.4248 60.1378 35.5872 59.3993 35.0603C58.7433 34.5837 57.8295 34.339 56.5031 34.339C55.7352 34.339 55.0162 34.3927 54.4473 34.4799V41.1768C54.8703 41.2268 55.4534 41.2599 56.1772 41.2599C57.5722 41.2599 58.6897 40.9736 59.4088 40.4014C60.1184 39.8457 60.5898 38.9375 60.5898 37.644ZM56.5031 40.3101C56.2696 40.3101 56.0171 40.3061 55.8423 40.281V35.3425C56.0218 35.3094 56.289 35.2803 56.6486 35.2803C58.262 35.2803 59.127 36.1551 59.1175 37.6686C59.1175 39.5016 58.0872 40.3186 56.5031 40.3101Z" fill="#FBFBFB"/>
<path id="Vector_16" d="M61.7754 34.3887H63.1752V41.2058H61.7754V34.3887Z" fill="#FBFBFB"/>
<path id="Vector_17" d="M67.5194 41.2058V35.4172H69.5601V34.3887H64.0884V35.4172H66.1149V41.2058H67.5194Z" fill="#FBFBFB"/>
<path id="Vector_18" d="M54.5195 85.6677C58.8155 85.6677 62.2949 82.6943 62.2949 79.0327C62.2949 75.3671 58.8103 72.3981 54.5195 72.3981C50.224 72.3981 46.7446 75.3711 46.7446 79.0327C46.7446 82.6987 50.2287 85.6677 54.5195 85.6677ZM49.3538 79.4268C49.7475 79.0908 50.3841 79.0908 50.7778 79.4268L52.4447 80.8491L57.7317 76.3375C58.1253 76.0015 58.762 76.0015 59.1556 76.3375C59.5493 76.6735 59.5493 77.2166 59.1556 77.5526L52.4447 83.279L49.3538 80.642C48.9602 80.306 48.9602 79.7628 49.3538 79.4268Z" fill="#FBFBFB"/>
</g>
</g>
</svg>
